<?xml version="1.0" encoding="UTF-8" standalone="no"?>
<!-- Created with Inkscape (http://www.inkscape.org/) -->

<svg
   xmlns:dc="http://purl.org/dc/elements/1.1/"
   xmlns:cc="http://creativecommons.org/ns#"
   xmlns:rdf="http://www.w3.org/1999/02/22-rdf-syntax-ns#"
   xmlns:svg="http://www.w3.org/2000/svg"
   xmlns="http://www.w3.org/2000/svg"
   xmlns:sodipodi="http://sodipodi.sourceforge.net/DTD/sodipodi-0.dtd"
   xmlns:inkscape="http://www.inkscape.org/namespaces/inkscape"
   inkscape:version="0.48.4 r9939"
   version="1.1"
   id="svg2"
   viewBox="0 0 744.09448819 1052.3622047"
   height="297mm"
   width="210mm"
   sodipodi:docname="axis-interface.eps">
  <sodipodi:namedview
     inkscape:window-maximized="1"
     inkscape:window-y="24"
     inkscape:window-x="65"
     inkscape:window-height="1056"
     inkscape:window-width="1855"
     inkscape:snap-grids="false"
     showgrid="true"
     inkscape:current-layer="layer1"
     inkscape:document-units="px"
     inkscape:cy="515.76166"
     inkscape:cx="168.28955"
     inkscape:zoom="0.86377106"
     inkscape:pageshadow="2"
     inkscape:pageopacity="0.0"
     borderopacity="1.0"
     bordercolor="#666666"
     pagecolor="#ffffff"
     id="base">
    <inkscape:grid
       type="xygrid"
       id="grid2991" />
  </sodipodi:namedview>
  <defs
     id="defs4">
    <inkscape:path-effect
       effect="skeletal"
       id="path-effect4218"
       is_visible="true"
       pattern="M 0,0 0,10 10,5 z"
       copytype="single_stretched"
       prop_scale="1"
       scale_y_rel="false"
       spacing="0"
       normal_offset="0"
       tang_offset="0"
       prop_units="false"
       vertical_pattern="false"
       fuse_tolerance="0" />
    <inkscape:path-effect
       effect="spiro"
       id="path-effect4216"
       is_visible="true" />
    <inkscape:path-effect
       effect="skeletal"
       id="path-effect4212"
       is_visible="true"
       pattern="M 0,0 0,10 10,5 z"
       copytype="single_stretched"
       prop_scale="1"
       scale_y_rel="false"
       spacing="0"
       normal_offset="0"
       tang_offset="0"
       prop_units="false"
       vertical_pattern="false"
       fuse_tolerance="0" />
    <inkscape:path-effect
       effect="skeletal"
       id="path-effect4208"
       is_visible="true"
       pattern="M 0,0 0,10 10,5 z"
       copytype="single_stretched"
       prop_scale="1"
       scale_y_rel="false"
       spacing="0"
       normal_offset="0"
       tang_offset="0"
       prop_units="false"
       vertical_pattern="false"
       fuse_tolerance="0" />
    <inkscape:path-effect
       effect="skeletal"
       id="path-effect4204"
       is_visible="true"
       pattern="M 0,0 0,10 10,5 z"
       copytype="single_stretched"
       prop_scale="1"
       scale_y_rel="false"
       spacing="0"
       normal_offset="0"
       tang_offset="0"
       prop_units="false"
       vertical_pattern="false"
       fuse_tolerance="0" />
    <inkscape:path-effect
       effect="skeletal"
       id="path-effect3062"
       is_visible="true"
       pattern="m 231.54283,-128.50628 0,10 10,-5 z"
       copytype="single_stretched"
       prop_scale="1"
       scale_y_rel="false"
       spacing="0"
       normal_offset="0"
       tang_offset="0"
       prop_units="false"
       vertical_pattern="false"
       fuse_tolerance="0" />
    <marker
       inkscape:isstock="true"
       style="overflow:visible;"
       id="Arrow1Mend"
       refX="0.0"
       refY="0.0"
       orient="auto"
       inkscape:stockid="Arrow1Mend">
      <path
         transform="scale(0.4) rotate(180) translate(10,0)"
         style="fill-rule:evenodd;stroke:#000000;stroke-width:1pt;stroke-opacity:1;fill:#000000;fill-opacity:1"
         d="M 0.0,0.0 L 5.0,-5.0 L -12.5,0.0 L 5.0,5.0 L 0.0,0.0 z "
         id="path4153" />
    </marker>
  </defs>
  <metadata
     id="metadata7">
    <rdf:RDF>
      <cc:Work
         rdf:about="">
        <dc:format>image/svg+xml</dc:format>
        <dc:type
           rdf:resource="http://purl.org/dc/dcmitype/StillImage" />
        <dc:title></dc:title>
      </cc:Work>
    </rdf:RDF>
  </metadata>
  <g
     id="layer1"
     inkscape:groupmode="layer"
     inkscape:label="Layer 1">
    <path
       inkscape:connector-curvature="0"
       id="path3336"
       d="m 324.38574,386.1693 0,152.02959"
       style="fill:none;stroke:#000000;stroke-width:2;stroke-linecap:butt;stroke-linejoin:miter;stroke-miterlimit:4;stroke-opacity:1;stroke-dasharray:11.99999998, 11.99999998;stroke-dashoffset:0"
       sodipodi:nodetypes="cc" />
    <path
       inkscape:connector-curvature="0"
       id="path4138"
       d="m 211.85505,461.29943 230.60729,-1.92508"
       style="fill:none;stroke:#000000;stroke-width:2;stroke-linecap:butt;stroke-linejoin:miter;stroke-miterlimit:4;stroke-opacity:1;stroke-dasharray:none;marker-end:url(#Arrow1Mend)" />
  </g>
  <text
     xml:space="preserve"
     style="font-size:25px;font-style:normal;font-variant:normal;font-weight:normal;font-stretch:normal;text-align:start;line-height:125%;letter-spacing:0px;word-spacing:0px;writing-mode:lr-tb;text-anchor:start;fill:#000000;fill-opacity:1;stroke:none;font-family:sans-serif;-inkscape-font-specification:'sans-serif, Normal'"
     x="266.5224"
     y="516.76123"
     id="text4475"
     sodipodi:linespacing="125%"><tspan
       sodipodi:role="line"
       id="tspan4477"
       x="266.5224"
       y="516.76123">Intereface</tspan></text>
  <g
     transform="translate(123.87542,123.87542)"
     id="g3005">
    <g
       style="font-style:normal;font-variant:normal;font-weight:normal;font-stretch:normal;letter-spacing:normal;word-spacing:normal;text-anchor:start;fill:none;stroke:#000000;stroke-width:1;stroke-linecap:butt;stroke-linejoin:miter;stroke-miterlimit:10.43299961;stroke-opacity:1;stroke-dasharray:none;stroke-dashoffset:0"
       id="content"
       transform="matrix(1.0629921,0,0,-1.0629921,-186.02362,789.27165)"
       xml:space="preserve"
       stroke-miterlimit="10.433"
       font-style="normal"
       font-variant="normal"
       font-weight="normal"
       font-stretch="normal"
       font-size-adjust="none"
       letter-spacing="normal"
       word-spacing="normal"><path
         style="fill:#000000;stroke-width:0"
         inkscape:connector-curvature="0"
         d="m 470.99,415.96 -0.05,-0.01 -0.06,-0.02 -0.04,-0.02 -0.05,-0.02 -0.05,-0.02 -0.04,-0.02 -0.05,-0.02 -0.04,-0.03 -0.04,-0.02 -0.04,-0.03 -0.03,-0.02 -0.04,-0.03 -0.04,-0.02 -0.03,-0.03 -0.03,-0.03 -0.03,-0.03 -0.06,-0.06 -0.05,-0.05 -0.05,-0.07 -0.04,-0.06 -0.04,-0.06 -0.04,-0.06 -0.03,-0.06 -0.03,-0.06 -0.02,-0.06 -0.03,-0.06 -0.02,-0.06 -0.01,-0.05 -0.02,-0.06 -0.01,-0.05 -0.01,-0.04 0,-0.05 -0.01,-0.04 0,-0.03 -0.01,-0.03 0,-0.03 0,-0.02 0,-0.01 0,-0.01 0,0 0,-0.01 0,0 0,0 c 0,-0.43 0.29,-1.02 1.11,-1.02 0.7,0 1.54,0.59 1.54,1.69 0,1.47 -1.64,2.04 -2.95,2.04 -1.62,0 -2.67,-1.04 -3.17,-1.7 -0.83,1.42 -2.42,1.7 -3.31,1.7 -3.11,0 -4.88,-2.93 -4.88,-3.85 0,-0.36 0.39,-0.36 0.52,-0.36 0.22,0 0.42,0.03 0.53,0.29 0.73,2.46 2.78,3.07 3.73,3.07 0.82,0 1.77,-0.35 1.77,-1.66 0,-0.63 -0.45,-2.34 -1.3,-5.66 -0.37,-1.42 -1.51,-2.26 -2.59,-2.26 -0.17,0 -0.89,0 -1.49,0.39 1.11,0.4 1.11,1.34 1.11,1.45 0,0.72 -0.54,1.05 -1.09,1.05 -0.63,0 -1.55,-0.5 -1.55,-1.71 0,-1.51 1.71,-2.04 2.97,-2.04 1.38,0 2.49,0.79 3.09,1.7 0.99,-1.5 2.58,-1.7 3.36,-1.7 3.14,0 4.91,2.97 4.91,3.87 0,0.35 -0.42,0.35 -0.52,0.35 -0.43,0 -0.48,-0.16 -0.56,-0.38 -0.72,-2.25 -2.64,-2.98 -3.73,-2.98 -0.75,0 -1.77,0.26 -1.77,1.65 0,0.32 0,0.49 0.21,1.33 0.42,1.75 1.09,4.52 1.29,4.95 0.31,0.66 1.14,1.65 2.41,1.65 0.08,0 0.92,0 1.5,-0.4 z"
         id="path3008" /></g>  </g>
  <g
     id="g3038"
     transform="translate(-20.838856,65.989709)">
    <g
       word-spacing="normal"
       letter-spacing="normal"
       font-size-adjust="none"
       font-stretch="normal"
       font-weight="normal"
       font-variant="normal"
       font-style="normal"
       stroke-miterlimit="10.433"
       xml:space="preserve"
       transform="matrix(1.0629921,0,0,-1.0629921,-186.02362,789.27165)"
       id="g3040"
       style="font-style:normal;font-variant:normal;font-weight:normal;font-stretch:normal;letter-spacing:normal;word-spacing:normal;text-anchor:start;fill:none;stroke:#000000;stroke-width:1;stroke-linecap:butt;stroke-linejoin:miter;stroke-miterlimit:10.43299961;stroke-opacity:1;stroke-dasharray:none;stroke-dashoffset:0"><path
         id="path3042"
         d="m 460.38,408.64 -0.02,-0.06 -0.01,-0.07 -0.02,-0.06 -0.01,-0.07 -0.02,-0.06 -0.02,-0.07 -0.03,-0.15 -0.04,-0.14 -0.03,-0.15 -0.04,-0.14 -0.01,-0.07 -0.02,-0.07 -0.02,-0.07 -0.01,-0.07 -0.02,-0.06 -0.01,-0.06 -0.01,-0.06 -0.02,-0.06 -0.01,-0.05 -0.01,-0.05 -0.01,-0.05 -0.01,-0.04 0,-0.04 -0.01,-0.04 -0.01,-0.03 0,-0.02 0,-0.02 0,-0.01 0,-0.01 c 0,-0.54 0.43,-0.87 0.92,-0.87 0.37,0 0.92,0.2 1.19,0.83 0.03,0.12 0.32,1.29 0.48,1.93 0.84,3.38 0.84,3.43 0.89,3.52 0.33,0.67 2.11,4.16 5.16,4.16 1.22,0 1.75,-0.68 1.75,-1.79 0,-1.42 -1.05,-3.98 -1.63,-5.4 -0.12,-0.3 -0.25,-0.63 -0.25,-1.05 0,-1.3 1.25,-2.2 2.72,-2.2 2.66,0 4.03,3.25 4.03,3.87 0,0.35 -0.42,0.35 -0.51,0.35 -0.44,0 -0.46,-0.1 -0.61,-0.58 -0.47,-1.49 -1.61,-2.78 -2.81,-2.78 -0.57,0 -0.75,0.39 -0.75,0.93 0,0.54 0.1,0.79 0.32,1.33 0.43,1 1.58,3.83 1.58,5.21 0,1.84 -1.33,2.96 -3.69,2.96 -2.28,0 -3.84,-1.37 -4.71,-2.46 -0.13,2.04 -2.11,2.46 -3.04,2.46 -2.5,0 -3.21,-3.81 -3.21,-3.85 0,-0.36 0.4,-0.36 0.53,-0.36 0.42,0 0.47,0.15 0.56,0.48 0.37,1.44 0.95,2.88 2,2.88 0.84,0 1.01,-0.8 1.01,-1.32 0,-0.34 -0.25,-1.29 -0.39,-1.93 -0.18,-0.68 -0.42,-1.71 -0.54,-2.25 z"
         inkscape:connector-curvature="0"
         style="fill:#000000;stroke-width:0" /></g>  </g>
  <path
     style="fill:none;stroke:#000000;stroke-width:2;stroke-linecap:butt;stroke-linejoin:miter;stroke-miterlimit:4;stroke-opacity:1;stroke-dasharray:none;marker-end:url(#Arrow1Mend)"
     d="m 266.27426,434.14282 42.83542,0"
     id="path4220"
     inkscape:connector-curvature="0"
     sodipodi:nodetypes="cc" />
</svg>
