<?xml version="1.0" encoding="UTF-8" standalone="no"?>
<!-- Created with Inkscape (http://www.inkscape.org/) -->

<svg
   xmlns:dc="http://purl.org/dc/elements/1.1/"
   xmlns:cc="http://creativecommons.org/ns#"
   xmlns:rdf="http://www.w3.org/1999/02/22-rdf-syntax-ns#"
   xmlns:svg="http://www.w3.org/2000/svg"
   xmlns="http://www.w3.org/2000/svg"
   xmlns:sodipodi="http://sodipodi.sourceforge.net/DTD/sodipodi-0.dtd"
   xmlns:inkscape="http://www.inkscape.org/namespaces/inkscape"
   width="210mm"
   height="297mm"
   viewBox="0 0 744.09448819 1052.3622047"
   id="svg2"
   version="1.1"
   inkscape:version="0.92.1 r15371"
   sodipodi:docname="rotate.svg">
  <sodipodi:namedview
     id="base"
     pagecolor="#ffffff"
     bordercolor="#666666"
     borderopacity="1.0"
     inkscape:pageopacity="0.0"
     inkscape:pageshadow="2"
     inkscape:zoom="0.87327348"
     inkscape:cx="-6.9863676"
     inkscape:cy="546.7932"
     inkscape:document-units="px"
     inkscape:current-layer="layer1"
     showgrid="true"
     inkscape:window-width="1918"
     inkscape:window-height="1002"
     inkscape:window-x="0"
     inkscape:window-y="26"
     inkscape:window-maximized="1"
     showguides="false">
    <inkscape:grid
       id="grid3015"
       type="xygrid" />
  </sodipodi:namedview>
  <defs
     id="defs4">
    <marker
       inkscape:stockid="Arrow1Mend"
       orient="auto"
       refY="0.0"
       refX="0.0"
       id="marker4561"
       style="overflow:visible;"
       inkscape:isstock="true">
      <path
         id="path4559"
         d="M 0.0,0.0 L 5.0,-5.0 L -12.5,0.0 L 5.0,5.0 L 0.0,0.0 z "
         style="fill-rule:evenodd;stroke:#000000;stroke-width:1pt;stroke-opacity:1;fill:#000000;fill-opacity:1"
         transform="scale(0.4) rotate(180) translate(10,0)" />
    </marker>
    <marker
       inkscape:isstock="true"
       style="overflow:visible;"
       id="marker4901"
       refX="0.0"
       refY="0.0"
       orient="auto"
       inkscape:stockid="Arrow1Mend"
       inkscape:collect="always">
      <path
         transform="scale(0.4) rotate(180) translate(10,0)"
         style="fill-rule:evenodd;stroke:#000000;stroke-width:1pt;stroke-opacity:1;fill:#000000;fill-opacity:1"
         d="M 0.0,0.0 L 5.0,-5.0 L -12.5,0.0 L 5.0,5.0 L 0.0,0.0 z "
         id="path4903" />
    </marker>
    <marker
       inkscape:stockid="Arrow2Mstart"
       orient="auto"
       refY="0.0"
       refX="0.0"
       id="marker4534"
       style="overflow:visible"
       inkscape:isstock="true">
      <path
         id="path4536"
         style="fill-rule:evenodd;stroke-width:0.625;stroke-linejoin:round;stroke:#000000;stroke-opacity:1;fill:#000000;fill-opacity:1"
         d="M 8.7185878,4.0337352 L -2.2072895,0.016013256 L 8.7185884,-4.0017078 C 6.9730900,-1.6296469 6.9831476,1.6157441 8.7185878,4.0337352 z "
         transform="scale(0.6) translate(0,0)" />
    </marker>
    <marker
       inkscape:collect="always"
       inkscape:stockid="Arrow1Mend"
       orient="auto"
       refY="0.0"
       refX="0.0"
       id="marker4488"
       style="overflow:visible;"
       inkscape:isstock="true">
      <path
         id="path4490"
         d="M 0.0,0.0 L 5.0,-5.0 L -12.5,0.0 L 5.0,5.0 L 0.0,0.0 z "
         style="fill-rule:evenodd;stroke:#000000;stroke-width:1pt;stroke-opacity:1;fill:#000000;fill-opacity:1"
         transform="scale(0.4) rotate(180) translate(10,0)" />
    </marker>
    <marker
       inkscape:collect="always"
       inkscape:isstock="true"
       style="overflow:visible"
       id="Arrow2Mstart"
       refX="0.0"
       refY="0.0"
       orient="auto"
       inkscape:stockid="Arrow2Mstart">
      <path
         transform="scale(0.6) translate(0,0)"
         d="M 8.7185878,4.0337352 L -2.2072895,0.016013256 L 8.7185884,-4.0017078 C 6.9730900,-1.6296469 6.9831476,1.6157441 8.7185878,4.0337352 z "
         style="fill-rule:evenodd;stroke-width:0.625;stroke-linejoin:round;stroke:#000000;stroke-opacity:1;fill:#000000;fill-opacity:1"
         id="path4166" />
    </marker>
    <marker
       inkscape:collect="always"
       inkscape:isstock="true"
       style="overflow:visible;"
       id="Arrow1Mend"
       refX="0.0"
       refY="0.0"
       orient="auto"
       inkscape:stockid="Arrow1Mend">
      <path
         transform="scale(0.4) rotate(180) translate(10,0)"
         style="fill-rule:evenodd;stroke:#000000;stroke-width:1pt;stroke-opacity:1;fill:#000000;fill-opacity:1"
         d="M 0.0,0.0 L 5.0,-5.0 L -12.5,0.0 L 5.0,5.0 L 0.0,0.0 z "
         id="path4151" />
    </marker>
  </defs>
  <metadata
     id="metadata7">
    <rdf:RDF>
      <cc:Work
         rdf:about="">
        <dc:format>image/svg+xml</dc:format>
        <dc:type
           rdf:resource="http://purl.org/dc/dcmitype/StillImage" />
        <dc:title />
      </cc:Work>
    </rdf:RDF>
  </metadata>
  <g
     id="layer1"
     inkscape:groupmode="layer"
     inkscape:label="Layer 1">
    <path
       inkscape:connector-curvature="0"
       id="path4420"
       d="m 300.02056,215.28193 -2.29023,258.79636 297.73033,0"
       style="fill:none;fill-rule:evenodd;stroke:#000000;stroke-width:2;stroke-linecap:butt;stroke-linejoin:miter;stroke-opacity:1;stroke-miterlimit:4;stroke-dasharray:none;marker-end:url(#Arrow1Mend);marker-start:url(#Arrow2Mstart)" />
    <path
       inkscape:connector-curvature="0"
       id="path4478"
       d="m 393.92013,246.20008 123.6726,137.414"
       style="fill:none;fill-rule:evenodd;stroke:#000000;stroke-width:2;stroke-linecap:butt;stroke-linejoin:miter;stroke-opacity:1;stroke-miterlimit:4;stroke-dasharray:8,8;stroke-dashoffset:0" />
    <path
       inkscape:connector-curvature="0"
       id="path4480"
       d="M 516.44761,282.84381 297.73033,472.93318 141.99447,293.14986"
       style="fill:none;fill-rule:evenodd;stroke:#000000;stroke-width:2;stroke-linecap:butt;stroke-linejoin:miter;stroke-opacity:1;stroke-miterlimit:4;stroke-dasharray:none;marker-end:url(#marker4488);marker-start:url(#marker4534)" />
    <text
       id="text4889"
       y="371.9173"
       x="488.78363"
       style="font-style:normal;font-weight:normal;font-size:7.18472147px;line-height:0%;font-family:sans-serif;letter-spacing:0px;word-spacing:0px;fill:#000000;fill-opacity:1;stroke:none;stroke-width:0.59872681px;stroke-linecap:butt;stroke-linejoin:miter;stroke-opacity:1"
       xml:space="preserve"
       transform="scale(0.87037845,1.1489255)"><tspan
         y="371.9173"
         x="488.78363"
         id="tspan4891"
         sodipodi:role="line"
         style="font-size:23.94907188px;line-height:1.25;stroke-width:0.59872681px">interface</tspan></text>
    <path
       inkscape:connector-curvature="0"
       id="path4893"
       d="m 459.375,405.48721 23.86423,-44.77549"
       style="fill:none;fill-rule:evenodd;stroke:#000000;stroke-width:1.5;stroke-linecap:butt;stroke-linejoin:miter;stroke-miterlimit:4;stroke-dasharray:9.00000019, 1.50000003;stroke-dashoffset:0;stroke-opacity:1;marker-end:url(#marker4901)"
       sodipodi:nodetypes="cc" />
    <g
       id="g3056"
       transform="translate(69.852113,-62.981416)">
      <g
         word-spacing="normal"
         letter-spacing="normal"
         font-size-adjust="none"
         font-stretch="normal"
         font-weight="normal"
         font-variant="normal"
         font-style="normal"
         stroke-miterlimit="10.433"
         xml:space="preserve"
         transform="matrix(1.0629921,0,0,-1.0629921,-186.02362,789.27165)"
         id="g3058"
         style="font-style:normal;font-variant:normal;font-weight:normal;font-stretch:normal;letter-spacing:normal;word-spacing:normal;text-anchor:start;fill:none;stroke:#000000;stroke-width:1;stroke-linecap:butt;stroke-linejoin:miter;stroke-miterlimit:10.43299961;stroke-opacity:1;stroke-dasharray:none;stroke-dashoffset:0"><path
           id="path3060"
           d="m 460.38,408.64 -0.02,-0.06 -0.01,-0.07 -0.02,-0.06 -0.01,-0.07 -0.02,-0.06 -0.02,-0.07 -0.03,-0.15 -0.04,-0.14 -0.03,-0.15 -0.04,-0.14 -0.01,-0.07 -0.02,-0.07 -0.02,-0.07 -0.01,-0.07 -0.02,-0.06 -0.01,-0.06 -0.01,-0.06 -0.02,-0.06 -0.01,-0.05 -0.01,-0.05 -0.01,-0.05 -0.01,-0.04 0,-0.04 -0.01,-0.04 -0.01,-0.03 0,-0.02 0,-0.02 0,-0.01 0,-0.01 c 0,-0.54 0.43,-0.87 0.92,-0.87 0.37,0 0.92,0.2 1.19,0.83 0.03,0.12 0.32,1.29 0.48,1.93 0.84,3.38 0.84,3.43 0.89,3.52 0.33,0.67 2.11,4.16 5.16,4.16 1.22,0 1.75,-0.68 1.75,-1.79 0,-1.42 -1.05,-3.98 -1.63,-5.4 -0.12,-0.3 -0.25,-0.63 -0.25,-1.05 0,-1.3 1.25,-2.2 2.72,-2.2 2.66,0 4.03,3.25 4.03,3.87 0,0.35 -0.42,0.35 -0.51,0.35 -0.44,0 -0.46,-0.1 -0.61,-0.58 -0.47,-1.49 -1.61,-2.78 -2.81,-2.78 -0.57,0 -0.75,0.39 -0.75,0.93 0,0.54 0.1,0.79 0.32,1.33 0.43,1 1.58,3.83 1.58,5.21 0,1.84 -1.33,2.96 -3.69,2.96 -2.28,0 -3.84,-1.37 -4.71,-2.46 -0.13,2.04 -2.11,2.46 -3.04,2.46 -2.5,0 -3.21,-3.81 -3.21,-3.85 0,-0.36 0.4,-0.36 0.53,-0.36 0.42,0 0.47,0.15 0.56,0.48 0.37,1.44 0.95,2.88 2,2.88 0.84,0 1.01,-0.8 1.01,-1.32 0,-0.34 -0.25,-1.29 -0.39,-1.93 -0.18,-0.68 -0.42,-1.71 -0.54,-2.25 z"
           inkscape:connector-curvature="0"
           style="fill:#000000;stroke-width:0" /></g>    </g>
    <g
       transform="translate(-32.063267,-125.96283)"
       id="g3144">
      <g
         style="font-style:normal;font-variant:normal;font-weight:normal;font-stretch:normal;letter-spacing:normal;word-spacing:normal;text-anchor:start;fill:none;stroke:#000000;stroke-width:1;stroke-linecap:butt;stroke-linejoin:miter;stroke-miterlimit:10.43299961;stroke-opacity:1;stroke-dasharray:none;stroke-dashoffset:0"
         id="g3146"
         transform="matrix(1.0629921,0,0,-1.0629921,-186.02362,789.27165)"
         xml:space="preserve"
         stroke-miterlimit="10.433"
         font-style="normal"
         font-variant="normal"
         font-weight="normal"
         font-stretch="normal"
         font-size-adjust="none"
         letter-spacing="normal"
         word-spacing="normal"><path
           style="fill:#000000;stroke-width:0"
           inkscape:connector-curvature="0"
           d="m 472,415.5 0.01,0.03 0.01,0.03 0.01,0.04 0.01,0.03 0.01,0.03 0,0.03 0.01,0.02 0.01,0.03 0,0.03 0.01,0.02 0,0.02 0.01,0.02 0,0.03 0,0.02 0.01,0.01 0,0.02 0,0.02 0,0.01 0.01,0.02 0,0.01 0,0.02 0,0.01 0,0.01 0,0.01 0,0.01 0,0 0,0.01 0,0.01 0,0 0,0 0,0.01 0,0 c 0,0.55 -0.45,0.87 -0.92,0.87 -1,0 -1.2,-0.87 -1.37,-1.54 l -0.52,-2.07 -0.78,-3.11 c -0.09,-0.32 -0.22,-0.85 -0.25,-1 -0.02,-0.09 -1.36,-2.43 -3.48,-2.43 -1.15,0 -2.05,0.54 -2.05,2.14 0,1.36 0.75,3.19 1.47,4.98 0.12,0.3 0.31,0.69 0.31,1.11 0,1.22 -1.17,2.2 -2.72,2.2 -2.62,0 -4.01,-3.18 -4.01,-3.85 0,-0.36 0.4,-0.36 0.53,-0.36 0.42,0 0.43,0.12 0.56,0.5 0.53,1.71 1.7,2.86 2.81,2.86 0.49,0 0.75,-0.27 0.75,-0.94 0,-0.5 -0.14,-0.85 -0.33,-1.3 -1.22,-2.97 -1.43,-3.86 -1.43,-4.86 0,-2.76 2.31,-3.34 3.98,-3.34 1.42,0 2.47,0.7 3.09,1.23 -0.36,-1.4 -0.62,-2.5 -1.79,-3.69 -0.58,-0.57 -1.75,-1.53 -3.28,-1.53 -0.46,0 -1.38,0.08 -1.96,0.61 1.13,0.27 1.25,1.24 1.25,1.49 0,0.73 -0.58,1.03 -1.09,1.03 -0.72,0 -1.58,-0.61 -1.58,-1.75 0,-1.25 1.28,-2.22 3.38,-2.22 2.82,0 6.2,1.89 7,5.08 z"
           id="path3148" /></g>    </g>
    <g
       id="g3238"
       transform="translate(-136.26888,-65.27165)">
      <g
         word-spacing="normal"
         letter-spacing="normal"
         font-size-adjust="none"
         font-stretch="normal"
         font-weight="normal"
         font-variant="normal"
         font-style="normal"
         stroke-miterlimit="10.433"
         xml:space="preserve"
         transform="matrix(1.0629921,0,0,-1.0629921,-186.02362,789.27165)"
         id="g3240"
         style="font-style:normal;font-variant:normal;font-weight:normal;font-stretch:normal;letter-spacing:normal;word-spacing:normal;text-anchor:start;fill:none;stroke:#000000;stroke-width:1;stroke-linecap:butt;stroke-linejoin:miter;stroke-miterlimit:10.43299961;stroke-opacity:1;stroke-dasharray:none;stroke-dashoffset:0"><path
           id="path3242"
           d="m 472,415.5 0.01,0.03 0.01,0.03 0.01,0.04 0.01,0.03 0.01,0.03 0,0.03 0.01,0.02 0.01,0.03 0,0.03 0.01,0.02 0,0.02 0.01,0.02 0,0.03 0,0.02 0.01,0.01 0,0.02 0,0.02 0,0.01 0.01,0.02 0,0.01 0,0.02 0,0.01 0,0.01 0,0.01 0,0.01 0,0 0,0.01 0,0.01 0,0 0,0 0,0.01 0,0 c 0,0.55 -0.45,0.87 -0.92,0.87 -1,0 -1.2,-0.87 -1.37,-1.54 l -0.52,-2.07 -0.78,-3.11 c -0.09,-0.32 -0.22,-0.85 -0.25,-1 -0.02,-0.09 -1.36,-2.43 -3.48,-2.43 -1.15,0 -2.05,0.54 -2.05,2.14 0,1.36 0.75,3.19 1.47,4.98 0.12,0.3 0.31,0.69 0.31,1.11 0,1.22 -1.17,2.2 -2.72,2.2 -2.62,0 -4.01,-3.18 -4.01,-3.85 0,-0.36 0.4,-0.36 0.53,-0.36 0.42,0 0.43,0.12 0.56,0.5 0.53,1.71 1.7,2.86 2.81,2.86 0.49,0 0.75,-0.27 0.75,-0.94 0,-0.5 -0.14,-0.85 -0.33,-1.3 -1.22,-2.97 -1.43,-3.86 -1.43,-4.86 0,-2.76 2.31,-3.34 3.98,-3.34 1.42,0 2.47,0.7 3.09,1.23 -0.36,-1.4 -0.62,-2.5 -1.79,-3.69 -0.58,-0.57 -1.75,-1.53 -3.28,-1.53 -0.46,0 -1.38,0.08 -1.96,0.61 1.13,0.27 1.25,1.24 1.25,1.49 0,0.73 -0.58,1.03 -1.09,1.03 -0.72,0 -1.58,-0.61 -1.58,-1.75 0,-1.25 1.28,-2.22 3.38,-2.22 2.82,0 6.2,1.89 7,5.08 z"
           inkscape:connector-curvature="0"
           style="fill:#000000;stroke-width:0" /><path
           id="path3244"
           d="m 483.57,427.86 0,0 0,0 0.01,0.01 0,0.01 0.01,0.01 0.01,0.01 0,0.02 0.01,0.02 0.01,0.02 0.01,0.02 0.01,0.02 0.01,0.03 0.01,0.02 0.01,0.03 0.01,0.03 0.02,0.03 0.01,0.03 0.01,0.03 0.01,0.03 0.01,0.04 0.01,0.03 0.01,0.04 0.01,0.03 0.01,0.04 0.01,0.03 0,0.04 0.01,0.04 0.01,0.03 0,0.04 0,0.04 0.01,0.03 0,0.04 0,0.03 c 0,0.91 -0.8,1.47 -1.55,1.47 -1.01,0 -1.29,-0.76 -1.42,-1.14 l -3.83,-10.78 c -0.11,-0.31 -0.11,-0.37 -0.11,-0.4 0,-0.4 1.05,-0.65 1.08,-0.65 0.22,0 0.27,0.13 0.42,0.43 z"
           inkscape:connector-curvature="0"
           style="fill:#000000;stroke-width:0" /></g>    </g>
    <g
       transform="translate(172.91262,-69.852117)"
       id="g3342">
      <g
         style="font-style:normal;font-variant:normal;font-weight:normal;font-stretch:normal;letter-spacing:normal;word-spacing:normal;text-anchor:start;fill:none;stroke:#000000;stroke-width:1;stroke-linecap:butt;stroke-linejoin:miter;stroke-miterlimit:10.43299961;stroke-opacity:1;stroke-dasharray:none;stroke-dashoffset:0"
         id="g3344"
         transform="matrix(1.0629921,0,0,-1.0629921,-186.02362,789.27165)"
         xml:space="preserve"
         stroke-miterlimit="10.433"
         font-style="normal"
         font-variant="normal"
         font-weight="normal"
         font-stretch="normal"
         font-size-adjust="none"
         letter-spacing="normal"
         word-spacing="normal"><path
           style="fill:#000000;stroke-width:0"
           inkscape:connector-curvature="0"
           d="m 470.99,415.96 -0.05,-0.01 -0.06,-0.02 -0.04,-0.02 -0.05,-0.02 -0.05,-0.02 -0.04,-0.02 -0.05,-0.02 -0.04,-0.03 -0.04,-0.02 -0.04,-0.03 -0.03,-0.02 -0.04,-0.03 -0.04,-0.02 -0.03,-0.03 -0.03,-0.03 -0.03,-0.03 -0.06,-0.06 -0.05,-0.05 -0.05,-0.07 -0.04,-0.06 -0.04,-0.06 -0.04,-0.06 -0.03,-0.06 -0.03,-0.06 -0.02,-0.06 -0.03,-0.06 -0.02,-0.06 -0.01,-0.05 -0.02,-0.06 -0.01,-0.05 -0.01,-0.04 0,-0.05 -0.01,-0.04 0,-0.03 -0.01,-0.03 0,-0.03 0,-0.02 0,-0.01 0,-0.01 0,0 0,-0.01 0,0 0,0 c 0,-0.43 0.29,-1.02 1.11,-1.02 0.7,0 1.54,0.59 1.54,1.69 0,1.47 -1.64,2.04 -2.95,2.04 -1.62,0 -2.67,-1.04 -3.17,-1.7 -0.83,1.42 -2.42,1.7 -3.31,1.7 -3.11,0 -4.88,-2.93 -4.88,-3.85 0,-0.36 0.39,-0.36 0.52,-0.36 0.22,0 0.42,0.03 0.53,0.29 0.73,2.46 2.78,3.07 3.73,3.07 0.82,0 1.77,-0.35 1.77,-1.66 0,-0.63 -0.45,-2.34 -1.3,-5.66 -0.37,-1.42 -1.51,-2.26 -2.59,-2.26 -0.17,0 -0.89,0 -1.49,0.39 1.11,0.4 1.11,1.34 1.11,1.45 0,0.72 -0.54,1.05 -1.09,1.05 -0.63,0 -1.55,-0.5 -1.55,-1.71 0,-1.51 1.71,-2.04 2.97,-2.04 1.38,0 2.49,0.79 3.09,1.7 0.99,-1.5 2.58,-1.7 3.36,-1.7 3.14,0 4.91,2.97 4.91,3.87 0,0.35 -0.42,0.35 -0.52,0.35 -0.43,0 -0.48,-0.16 -0.56,-0.38 -0.72,-2.25 -2.64,-2.98 -3.73,-2.98 -0.75,0 -1.77,0.26 -1.77,1.65 0,0.32 0,0.49 0.21,1.33 0.42,1.75 1.09,4.52 1.29,4.95 0.31,0.66 1.14,1.65 2.41,1.65 0.08,0 0.92,0 1.5,-0.4 z"
           id="path3346" /><path
           style="fill:#000000;stroke-width:0"
           inkscape:connector-curvature="0"
           d="m 484.17,427.86 0,0 0,0 0.01,0.01 0,0.01 0.01,0.01 0,0.01 0.01,0.02 0.01,0.02 0.01,0.02 0.01,0.02 0.01,0.02 0.01,0.03 0.01,0.02 0.01,0.03 0.01,0.03 0.01,0.03 0.01,0.03 0.02,0.03 0.01,0.03 0.01,0.04 0.01,0.03 0.01,0.04 0.01,0.03 0.01,0.04 0,0.03 0.01,0.04 0.01,0.04 0,0.03 0.01,0.04 0,0.04 0.01,0.03 0,0.04 0,0.03 c 0,0.91 -0.8,1.47 -1.55,1.47 -1.01,0 -1.3,-0.76 -1.42,-1.14 l -3.83,-10.78 c -0.11,-0.31 -0.11,-0.37 -0.11,-0.4 0,-0.4 1.05,-0.65 1.08,-0.65 0.22,0 0.27,0.13 0.42,0.43 z"
           id="path3348" /></g>    </g>
    <g
       id="g3454"
       transform="translate(274.828,144.2847)">
      <g
         word-spacing="normal"
         letter-spacing="normal"
         font-size-adjust="none"
         font-stretch="normal"
         font-weight="normal"
         font-variant="normal"
         font-style="normal"
         stroke-miterlimit="10.433"
         xml:space="preserve"
         transform="matrix(1.0629921,0,0,-1.0629921,-186.02362,789.27165)"
         id="g3456"
         style="font-style:normal;font-variant:normal;font-weight:normal;font-stretch:normal;letter-spacing:normal;word-spacing:normal;text-anchor:start;fill:none;stroke:#000000;stroke-width:1;stroke-linecap:butt;stroke-linejoin:miter;stroke-miterlimit:10.43299961;stroke-opacity:1;stroke-dasharray:none;stroke-dashoffset:0"><path
           id="path3458"
           d="m 470.99,415.96 -0.05,-0.01 -0.06,-0.02 -0.04,-0.02 -0.05,-0.02 -0.05,-0.02 -0.04,-0.02 -0.05,-0.02 -0.04,-0.03 -0.04,-0.02 -0.04,-0.03 -0.03,-0.02 -0.04,-0.03 -0.04,-0.02 -0.03,-0.03 -0.03,-0.03 -0.03,-0.03 -0.06,-0.06 -0.05,-0.05 -0.05,-0.07 -0.04,-0.06 -0.04,-0.06 -0.04,-0.06 -0.03,-0.06 -0.03,-0.06 -0.02,-0.06 -0.03,-0.06 -0.02,-0.06 -0.01,-0.05 -0.02,-0.06 -0.01,-0.05 -0.01,-0.04 0,-0.05 -0.01,-0.04 0,-0.03 -0.01,-0.03 0,-0.03 0,-0.02 0,-0.01 0,-0.01 0,0 0,-0.01 0,0 0,0 c 0,-0.43 0.29,-1.02 1.11,-1.02 0.7,0 1.54,0.59 1.54,1.69 0,1.47 -1.64,2.04 -2.95,2.04 -1.62,0 -2.67,-1.04 -3.17,-1.7 -0.83,1.42 -2.42,1.7 -3.31,1.7 -3.11,0 -4.88,-2.93 -4.88,-3.85 0,-0.36 0.39,-0.36 0.52,-0.36 0.22,0 0.42,0.03 0.53,0.29 0.73,2.46 2.78,3.07 3.73,3.07 0.82,0 1.77,-0.35 1.77,-1.66 0,-0.63 -0.45,-2.34 -1.3,-5.66 -0.37,-1.42 -1.51,-2.26 -2.59,-2.26 -0.17,0 -0.89,0 -1.49,0.39 1.11,0.4 1.11,1.34 1.11,1.45 0,0.72 -0.54,1.05 -1.09,1.05 -0.63,0 -1.55,-0.5 -1.55,-1.71 0,-1.51 1.71,-2.04 2.97,-2.04 1.38,0 2.49,0.79 3.09,1.7 0.99,-1.5 2.58,-1.7 3.36,-1.7 3.14,0 4.91,2.97 4.91,3.87 0,0.35 -0.42,0.35 -0.52,0.35 -0.43,0 -0.48,-0.16 -0.56,-0.38 -0.72,-2.25 -2.64,-2.98 -3.73,-2.98 -0.75,0 -1.77,0.26 -1.77,1.65 0,0.32 0,0.49 0.21,1.33 0.42,1.75 1.09,4.52 1.29,4.95 0.31,0.66 1.14,1.65 2.41,1.65 0.08,0 0.92,0 1.5,-0.4 z"
           inkscape:connector-curvature="0"
           style="fill:#000000;stroke-width:0" /></g>    </g>
    <g
       transform="translate(-4.5804664,140.84935)"
       id="g3570">
      <g
         style="font-style:normal;font-variant:normal;font-weight:normal;font-stretch:normal;letter-spacing:normal;word-spacing:normal;text-anchor:start;fill:none;stroke:#000000;stroke-width:1;stroke-linecap:butt;stroke-linejoin:miter;stroke-miterlimit:10.43299961;stroke-opacity:1;stroke-dasharray:none;stroke-dashoffset:0"
         id="g3572"
         transform="matrix(1.0629921,0,0,-1.0629921,-186.02362,789.27165)"
         xml:space="preserve"
         stroke-miterlimit="10.433"
         font-style="normal"
         font-variant="normal"
         font-weight="normal"
         font-stretch="normal"
         font-size-adjust="none"
         letter-spacing="normal"
         word-spacing="normal"><path
           style="fill:#000000;stroke-width:0"
           inkscape:connector-curvature="0"
           d="m 479.61,416.59 -0.01,0.37 -0.02,0.37 -0.05,0.36 -0.07,0.36 -0.08,0.35 -0.1,0.34 -0.12,0.33 -0.14,0.33 -0.15,0.32 -0.17,0.31 -0.19,0.3 -0.2,0.29 -0.22,0.28 -0.23,0.27 -0.25,0.26 -0.26,0.25 -0.28,0.23 -0.3,0.23 -0.31,0.21 -0.32,0.2 -0.33,0.18 -0.35,0.17 -0.37,0.16 -0.37,0.14 -0.39,0.13 -0.4,0.11 -0.42,0.1 -0.42,0.08 -0.44,0.06 -0.45,0.05 -0.46,0.02 -0.47,0.01 -0.25,-0.92 c 3.16,0 5.89,-1.77 5.89,-5.53 0,-1.5 -0.59,-4.66 -2.86,-7.33 -1.72,-1.98 -4.41,-3.37 -7.08,-3.37 h 0 c -2.51,0 -5.78,1.31 -5.78,5.79 0,5.74 4.49,10.44 9.83,10.44 l 0.25,0.92 c -6.81,0 -12.91,-5.58 -12.91,-11.01 0,-4 3.28,-7.1 8.36,-7.1 6.71,0 12.89,5.38 12.89,10.94 z"
           id="path3574" /></g>    </g>
    <path
       style="fill:none;stroke:#000000;stroke-width:2.00000004000000020;stroke-linecap:butt;stroke-linejoin:miter;stroke-opacity:1;stroke-miterlimit:4;stroke-dasharray:none;marker-end:url(#Arrow1Mend)"
       d="M 390.00001,332.36219 430,302.36218"
       id="path3785"
       inkscape:connector-curvature="0"
       transform="translate(-4.9229925e-6,0)"
       sodipodi:nodetypes="cc" />
    <path
       style="fill:none;stroke:#000000;stroke-width:1.875;stroke-linecap:butt;stroke-linejoin:miter;stroke-miterlimit:4;stroke-dasharray:7.50000002,1.875;stroke-opacity:1;marker-end:url(#marker4561);stroke-dashoffset:0"
       d="m 403.125,461.73721 c 18.75,-28.125 -9.375,-56.25 -9.375,-56.25"
       id="path45"
       inkscape:connector-curvature="0"
       sodipodi:nodetypes="cc" />
    <g
       id="g4792"
       transform="matrix(0.8249041,0,0,0.60565157,105.77928,223.35942)">
      <g
         word-spacing="normal"
         letter-spacing="normal"
         font-size-adjust="none"
         font-stretch="normal"
         font-weight="normal"
         font-variant="normal"
         font-style="normal"
         stroke-miterlimit="10.433"
         xml:space="preserve"
         transform="matrix(1.1338583,0,0,-1.1338583,-198.4252,841.88976)"
         id="content"
         style="font-style:normal;font-variant:normal;font-weight:normal;font-stretch:normal;letter-spacing:normal;word-spacing:normal;text-anchor:start;fill:none;fill-opacity:1;fill-rule:evenodd;stroke:#000000;stroke-linecap:butt;stroke-linejoin:miter;stroke-miterlimit:10.43299961;stroke-dasharray:none;stroke-dashoffset:0;stroke-opacity:1"><path
           id="path4789"
           d="m 478.19,431.11 v 0.31 l -0.01,0.34 -0.02,0.36 -0.02,0.37 -0.03,0.39 -0.04,0.39 -0.04,0.41 -0.06,0.41 -0.07,0.42 -0.07,0.43 -0.09,0.42 -0.1,0.43 -0.12,0.42 -0.12,0.42 -0.14,0.41 -0.16,0.41 -0.17,0.4 -0.18,0.38 -0.2,0.37 -0.22,0.36 -0.23,0.34 -0.25,0.32 -0.28,0.3 -0.29,0.27 -0.31,0.25 -0.16,0.12 -0.17,0.1 -0.17,0.1 -0.18,0.1 -0.18,0.08 -0.19,0.08 -0.19,0.07 -0.2,0.06 -0.21,0.05 -0.21,0.05 -0.22,0.03 -0.22,0.02 -0.23,0.02 h -0.23 l -0.05,-1.09 c 2.44,0 2.73,-3.19 2.73,-6.03 0,-2.44 -0.39,-4.99 -1.59,-9.92 h -10.41 c 0.85,3.2 1.85,7.18 3.83,10.72 1.36,2.43 3.19,5.23 5.44,5.23 l 0.05,1.09 c -6.92,0 -14.6,-14.04 -14.6,-25.45 0,-4.69 1.44,-10.22 5.99,-10.22 v 1.1 c -1.66,0 -2.71,1.45 -2.71,6.07 0,2.1 0.3,4.99 1.6,9.86 h 10.37 c -0.54,-2.28 -1.59,-6.51 -3.5,-10.11 -1.73,-3.39 -3.62,-5.82 -5.76,-5.82 v -1.1 c 7.01,0 14.59,14.3 14.59,25.46 z"
           inkscape:connector-curvature="0"
           style="fill:#000000;stroke-width:0" /></g>    </g>
  </g>
</svg>
