<?xml version="1.0" encoding="UTF-8" standalone="no"?>
<!-- Created with Inkscape (http://www.inkscape.org/) -->

<svg
   xmlns:dc="http://purl.org/dc/elements/1.1/"
   xmlns:cc="http://creativecommons.org/ns#"
   xmlns:rdf="http://www.w3.org/1999/02/22-rdf-syntax-ns#"
   xmlns:svg="http://www.w3.org/2000/svg"
   xmlns="http://www.w3.org/2000/svg"
   xmlns:sodipodi="http://sodipodi.sourceforge.net/DTD/sodipodi-0.dtd"
   xmlns:inkscape="http://www.inkscape.org/namespaces/inkscape"
   width="744.09448819"
   height="1052.3622047"
   id="svg2"
   version="1.1"
   inkscape:version="0.48.4 r9939"
   sodipodi:docname="cv2.svg">
  <sodipodi:namedview
     id="base"
     pagecolor="#ffffff"
     bordercolor="#666666"
     borderopacity="1.0"
     inkscape:pageopacity="0.0"
     inkscape:pageshadow="2"
     inkscape:zoom="0.86377106"
     inkscape:cx="-35.468145"
     inkscape:cy="526.18109"
     inkscape:document-units="px"
     inkscape:current-layer="layer1"
     showgrid="true"
     inkscape:window-width="1855"
     inkscape:window-height="1056"
     inkscape:window-x="65"
     inkscape:window-y="24"
     inkscape:window-maximized="1">
    <inkscape:grid
       type="xygrid"
       id="grid2985" />
  </sodipodi:namedview>
  <defs
     id="defs4">
    <marker
       inkscape:stockid="Arrow1Mend"
       orient="auto"
       refY="0.0"
       refX="0.0"
       id="Arrow1Mend"
       style="overflow:visible;">
      <path
         id="path4454"
         d="M 0.0,0.0 L 5.0,-5.0 L -12.5,0.0 L 5.0,5.0 L 0.0,0.0 z "
         style="fill-rule:evenodd;stroke:#000000;stroke-width:1.0pt;"
         transform="scale(0.4) rotate(180) translate(10,0)" />
    </marker>
    <marker
       inkscape:stockid="Arrow1Mstart"
       orient="auto"
       refY="0.0"
       refX="0.0"
       id="Arrow1Mstart"
       style="overflow:visible">
      <path
         id="path4451"
         d="M 0.0,0.0 L 5.0,-5.0 L -12.5,0.0 L 5.0,5.0 L 0.0,0.0 z "
         style="fill-rule:evenodd;stroke:#000000;stroke-width:1.0pt"
         transform="scale(0.4) translate(10,0)" />
    </marker>
  </defs>
  <metadata
     id="metadata7">
    <rdf:RDF>
      <cc:Work
         rdf:about="">
        <dc:format>image/svg+xml</dc:format>
        <dc:type
           rdf:resource="http://purl.org/dc/dcmitype/StillImage" />
        <dc:title />
      </cc:Work>
    </rdf:RDF>
  </metadata>
  <g
     inkscape:label="Layer 1"
     inkscape:groupmode="layer"
     id="layer1">
    <path
       style="fill:none;stroke:#000000;stroke-width:2;stroke-linecap:butt;stroke-linejoin:miter;stroke-opacity:1;stroke-miterlimit:4;stroke-dasharray:none"
       d="m 140,572.36218 210,-40 230,40"
       id="path2987"
       inkscape:connector-curvature="0" />
    <path
       style="fill:none;stroke:#000000;stroke-width:2;stroke-linecap:butt;stroke-linejoin:miter;stroke-miterlimit:4;stroke-opacity:1;stroke-dasharray:none"
       d="m 190,562.36218 -20,-180 190,-80 180,80 -10,180"
       id="path3757"
       inkscape:connector-curvature="0"
       sodipodi:nodetypes="ccccc" />
    <path
       style="fill:none;stroke:#000000;stroke-width:2;stroke-linecap:butt;stroke-linejoin:miter;stroke-miterlimit:4;stroke-opacity:1;stroke-dasharray:none"
       d="m 360,302.36218 -10,230 -180,-150"
       id="path3759"
       inkscape:connector-curvature="0"
       sodipodi:nodetypes="ccc" />
    <path
       style="fill:none;stroke:#000000;stroke-width:2;stroke-linecap:butt;stroke-linejoin:miter;stroke-miterlimit:4;stroke-opacity:1;stroke-dasharray:none"
       d="m 540,382.36218 -190,150"
       id="path3761"
       inkscape:connector-curvature="0"
       sodipodi:nodetypes="cc" />
    <path
       style="fill:#828cc8;stroke:#000000;stroke-width:2;stroke-linecap:butt;stroke-linejoin:miter;stroke-opacity:1;stroke-miterlimit:4;stroke-dasharray:12, 2;stroke-dashoffset:0;fill-opacity:1;opacity:0.4"
       d="m 250,552.36218 -20,-70 70,-80 120,0 60,90 -10,60 z"
       id="path3767"
       inkscape:connector-curvature="0" />
    <g
       transform="translate(35.889139,201.44227)"
       id="g3767">
      <g
         style="font-style:normal;font-variant:normal;font-weight:normal;font-stretch:normal;letter-spacing:normal;word-spacing:normal;text-anchor:start;fill:none;stroke:#000000;stroke-linecap:butt;stroke-linejoin:miter;stroke-miterlimit:10.43299961;stroke-opacity:1;stroke-dasharray:none;stroke-dashoffset:0"
         id="content"
         transform="matrix(1.0629921,0,0,-1.0629921,-186.02362,789.27165)"
         xml:space="preserve"
         stroke-miterlimit="10.433"
         font-style="normal"
         font-variant="normal"
         font-weight="normal"
         font-stretch="normal"
         font-size-adjust="none"
         letter-spacing="normal"
         word-spacing="normal"><path
           style="fill:#000000;stroke-width:0"
           inkscape:connector-curvature="0"
           d="m 479.61,416.59 -0.01,0.37 -0.02,0.37 -0.05,0.36 -0.07,0.36 -0.08,0.35 -0.1,0.34 -0.12,0.33 -0.14,0.33 -0.15,0.32 -0.17,0.31 -0.19,0.3 -0.2,0.29 -0.22,0.28 -0.23,0.27 -0.25,0.26 -0.26,0.25 -0.28,0.23 -0.3,0.23 -0.31,0.21 -0.32,0.2 -0.33,0.18 -0.35,0.17 -0.37,0.16 -0.37,0.14 -0.39,0.13 -0.4,0.11 -0.42,0.1 -0.42,0.08 -0.44,0.06 -0.45,0.05 -0.46,0.02 -0.47,0.01 -0.25,-0.92 c 3.16,0 5.89,-1.77 5.89,-5.53 0,-1.5 -0.59,-4.66 -2.86,-7.33 -1.72,-1.98 -4.41,-3.37 -7.08,-3.37 h 0 c -2.51,0 -5.78,1.31 -5.78,5.79 0,5.74 4.49,10.44 9.83,10.44 l 0.25,0.92 c -6.81,0 -12.91,-5.58 -12.91,-11.01 0,-4 3.28,-7.1 8.36,-7.1 6.71,0 12.89,5.38 12.89,10.94 z"
           id="path3770" /></g>    </g>
    <g
       id="g3798"
       transform="translate(-147.0297,195.6537)">
      <g
         word-spacing="normal"
         letter-spacing="normal"
         font-size-adjust="none"
         font-stretch="normal"
         font-weight="normal"
         font-variant="normal"
         font-style="normal"
         stroke-miterlimit="10.433"
         xml:space="preserve"
         transform="matrix(1.0629921,0,0,-1.0629921,-186.02362,789.27165)"
         id="g3800"
         style="font-style:normal;font-variant:normal;font-weight:normal;font-stretch:normal;letter-spacing:normal;word-spacing:normal;text-anchor:start;fill:none;stroke:#000000;stroke-linecap:butt;stroke-linejoin:miter;stroke-miterlimit:10.43299961;stroke-opacity:1;stroke-dasharray:none;stroke-dashoffset:0"><path
           id="path3802"
           d="m 465.61,413.75 0.14,0.96 1.64,6.57 c 0.21,0.76 0.21,0.81 1.25,0.81 h 3.69 c 2.55,0 4.27,-0.67 4.27,-2.56 0,-0.72 -0.36,-2.67 -1.77,-3.69 -1.42,-1.02 -3.37,-1.13 -4.36,-1.13 h -4.72 l -0.14,-0.96 h 5.43 c 3.84,0 8.32,2.34 8.32,5.43 0,2.32 -2.59,4.03 -6.2,4.03 h -9.81 c -0.5,0 -0.88,0 -0.88,-0.7 0,-0.42 0.3,-0.42 0.92,-0.42 0.25,0 1.07,0 1.6,-0.14 0,-0.31 0,-0.36 -0.08,-0.63 l -3.27,-13.06 c -0.2,-0.75 -0.21,-0.94 -2.14,-0.94 -0.62,0 -1.01,0 -1.01,-0.7 0,-0.2 0.17,-0.42 0.44,-0.42 0.53,0 1.12,0.08 1.67,0.08 0.62,0 1.22,0.01 1.84,0.01 0.63,0 1.22,-0.01 1.85,-0.01 0.57,0 1.2,-0.08 1.75,-0.08 0.14,0 0.62,0 0.62,0.7 0,0.42 -0.36,0.42 -0.83,0.42 -0.04,0 -0.64,0 -1.08,0.05 -0.61,0.05 -0.64,0.08 -0.64,0.27 0,0.06 0,0.11 0.08,0.36 z"
           inkscape:connector-curvature="0"
           style="fill:#000000;stroke-width:0" /><path
           id="path3804"
           d="m 487.28,414.61 0,0.03 0,0.03 0,0.04 0,0.03 0,0.03 0,0.03 0,0.03 0,0.02 -0.01,0.03 0,0.02 0,0.03 0,0.02 0,0.03 -0.01,0.02 0,0.02 0,0.02 -0.01,0.02 0,0.02 -0.01,0.03 -0.01,0.03 -0.02,0.03 -0.01,0.03 -0.02,0.02 -0.02,0.02 -0.02,0.02 -0.03,0.02 -0.02,0.01 -0.03,0.01 -0.03,0.02 -0.04,0 -0.04,0.01 -0.04,0.01 -0.02,0 -0.02,0 -0.03,0.01 -0.02,0 -0.03,0 -0.02,0 -0.03,0 -0.03,0 -0.03,0 -0.03,0 -0.03,0 -0.03,0 -0.03,0 -0.04,0 -0.03,0 -0.04,0 -0.04,0.01 -0.03,0 c -1.77,-1.6 -4.54,-1.6 -5.04,-1.6 h -0.42 v -1.09 h 0.42 c 0.58,0 2.19,0.06 3.64,0.69 V 400.9 c 0,-0.76 0,-1.04 -2.64,-1.04 h -1.25 v -1.1 c 1.38,0.1 3.6,0.1 5.03,0.1 1.46,0 3.68,0 5.04,-0.1 v 1.1 h -1.24 c -2.64,0 -2.64,0.28 -2.64,1.04 z"
           inkscape:connector-curvature="0"
           style="fill:#000000;stroke-width:0" /></g>    </g>
    <g
       transform="translate(-155.13369,8.1039992)"
       id="g3840">
      <g
         style="font-style:normal;font-variant:normal;font-weight:normal;font-stretch:normal;letter-spacing:normal;word-spacing:normal;text-anchor:start;fill:none;stroke:#000000;stroke-linecap:butt;stroke-linejoin:miter;stroke-miterlimit:10.43299961;stroke-opacity:1;stroke-dasharray:none;stroke-dashoffset:0"
         id="g3842"
         transform="matrix(1.0629921,0,0,-1.0629921,-186.02362,789.27165)"
         xml:space="preserve"
         stroke-miterlimit="10.433"
         font-style="normal"
         font-variant="normal"
         font-weight="normal"
         font-stretch="normal"
         font-size-adjust="none"
         letter-spacing="normal"
         word-spacing="normal"><path
           style="fill:#000000;stroke-width:0"
           inkscape:connector-curvature="0"
           d="m 465.61,413.75 0.14,0.96 1.64,6.57 c 0.21,0.76 0.21,0.81 1.25,0.81 h 3.69 c 2.55,0 4.27,-0.67 4.27,-2.56 0,-0.72 -0.36,-2.67 -1.77,-3.69 -1.42,-1.02 -3.37,-1.13 -4.36,-1.13 h -4.72 l -0.14,-0.96 h 5.43 c 3.84,0 8.32,2.34 8.32,5.43 0,2.32 -2.59,4.03 -6.2,4.03 h -9.81 c -0.5,0 -0.88,0 -0.88,-0.7 0,-0.42 0.3,-0.42 0.92,-0.42 0.25,0 1.07,0 1.6,-0.14 0,-0.31 0,-0.36 -0.08,-0.63 l -3.27,-13.06 c -0.2,-0.75 -0.21,-0.94 -2.14,-0.94 -0.62,0 -1.01,0 -1.01,-0.7 0,-0.2 0.17,-0.42 0.44,-0.42 0.53,0 1.12,0.08 1.67,0.08 0.62,0 1.22,0.01 1.84,0.01 0.63,0 1.22,-0.01 1.85,-0.01 0.57,0 1.2,-0.08 1.75,-0.08 0.14,0 0.62,0 0.62,0.7 0,0.42 -0.36,0.42 -0.83,0.42 -0.04,0 -0.64,0 -1.08,0.05 -0.61,0.05 -0.64,0.08 -0.64,0.27 0,0.06 0,0.11 0.08,0.36 z"
           id="path3844" /><path
           style="fill:#000000;stroke-width:0"
           inkscape:connector-curvature="0"
           d="m 492.03,403.57 h -1.05 c -0.07,-0.48 -0.32,-2.01 -0.71,-2.26 -0.21,-0.16 -2.3,-0.16 -2.68,-0.16 h -4.87 c 1.64,1.22 3.48,2.61 4.98,3.61 2.24,1.55 4.33,3 4.33,5.64 0,3.19 -3.01,4.96 -6.58,4.96 -3.36,0 -5.83,-1.96 -5.83,-4.4 0,-1.29 1.1,-1.51 1.46,-1.51 0.67,0 1.47,0.45 1.47,1.47 0,0.89 -0.66,1.39 -1.43,1.47 0.69,1.12 2.15,1.87 3.82,1.87 2.4,0 4.42,-1.45 4.42,-3.89 0,-2.09 -1.44,-3.69 -3.36,-5.31 l -6.08,-5.16 c -0.25,-0.22 -0.26,-0.22 -0.3,-0.39 v -0.75 h 11.58 z"
           id="path3846" /></g>    </g>
    <g
       id="g3890"
       transform="translate(27.78514,-68.305136)">
      <g
         word-spacing="normal"
         letter-spacing="normal"
         font-size-adjust="none"
         font-stretch="normal"
         font-weight="normal"
         font-variant="normal"
         font-style="normal"
         stroke-miterlimit="10.433"
         xml:space="preserve"
         transform="matrix(1.0629921,0,0,-1.0629921,-186.02362,789.27165)"
         id="g3892"
         style="font-style:normal;font-variant:normal;font-weight:normal;font-stretch:normal;letter-spacing:normal;word-spacing:normal;text-anchor:start;fill:none;stroke:#000000;stroke-linecap:butt;stroke-linejoin:miter;stroke-miterlimit:10.43299961;stroke-opacity:1;stroke-dasharray:none;stroke-dashoffset:0"><path
           id="path3894"
           d="m 465.61,413.75 0.14,0.96 1.64,6.57 c 0.21,0.76 0.21,0.81 1.25,0.81 h 3.69 c 2.55,0 4.27,-0.67 4.27,-2.56 0,-0.72 -0.36,-2.67 -1.77,-3.69 -1.42,-1.02 -3.37,-1.13 -4.36,-1.13 h -4.72 l -0.14,-0.96 h 5.43 c 3.84,0 8.32,2.34 8.32,5.43 0,2.32 -2.59,4.03 -6.2,4.03 h -9.81 c -0.5,0 -0.88,0 -0.88,-0.7 0,-0.42 0.3,-0.42 0.92,-0.42 0.25,0 1.07,0 1.6,-0.14 0,-0.31 0,-0.36 -0.08,-0.63 l -3.27,-13.06 c -0.2,-0.75 -0.21,-0.94 -2.14,-0.94 -0.62,0 -1.01,0 -1.01,-0.7 0,-0.2 0.17,-0.42 0.44,-0.42 0.53,0 1.12,0.08 1.67,0.08 0.62,0 1.22,0.01 1.84,0.01 0.63,0 1.22,-0.01 1.85,-0.01 0.57,0 1.2,-0.08 1.75,-0.08 0.14,0 0.62,0 0.62,0.7 0,0.42 -0.36,0.42 -0.83,0.42 -0.04,0 -0.64,0 -1.08,0.05 -0.61,0.05 -0.64,0.08 -0.64,0.27 0,0.06 0,0.11 0.08,0.36 z"
           inkscape:connector-curvature="0"
           style="fill:#000000;stroke-width:0" /><path
           id="path3896"
           d="m 485.58,407.01 0.21,0 0.21,-0.01 0.2,-0.03 0.2,-0.02 0.19,-0.04 0.19,-0.05 0.19,-0.05 0.17,-0.06 0.17,-0.07 0.17,-0.07 0.16,-0.09 0.15,-0.09 0.15,-0.1 0.14,-0.1 0.14,-0.12 0.13,-0.12 0.12,-0.13 0.11,-0.13 0.11,-0.14 0.1,-0.15 0.09,-0.16 0.09,-0.16 0.08,-0.17 0.07,-0.18 0.06,-0.18 0.06,-0.19 0.04,-0.2 0.04,-0.2 0.03,-0.21 0.02,-0.22 0.02,-0.22 0,-0.23 c 0,-2.55 -1.56,-3.89 -3.78,-3.89 -0.28,0 -3.25,0 -4.52,1.3 1.03,0.15 1.33,0.92 1.33,1.51 0,0.92 -0.7,1.53 -1.53,1.53 -0.8,0 -1.53,-0.53 -1.53,-1.57 0,-2.6 2.94,-3.79 6.31,-3.79 4.1,0 6.64,2.47 6.64,4.88 0,2.05 -1.83,3.8 -4.67,4.44 3,0.97 3.8,2.87 3.8,4.26 0,2.05 -2.55,3.57 -5.69,3.57 -3.06,0 -5.53,-1.3 -5.53,-3.55 0,-1.17 0.95,-1.47 1.42,-1.47 0.72,0 1.42,0.53 1.42,1.42 0,0.58 -0.29,1.28 -1.18,1.42 1.06,1.14 3.28,1.22 3.79,1.22 1.83,0 3.13,-0.92 3.13,-2.61 0,-1.45 -0.96,-3.72 -3.57,-3.86 -0.7,-0.03 -0.79,-0.04 -1.45,-0.07 -0.26,-0.04 -0.55,-0.05 -0.55,-0.43 0,-0.42 0.25,-0.42 0.71,-0.42 z"
           inkscape:connector-curvature="0"
           style="fill:#000000;stroke-width:0" /></g>    </g>
    <g
       transform="translate(225.75427,13.89257)"
       id="g3948">
      <g
         style="font-style:normal;font-variant:normal;font-weight:normal;font-stretch:normal;letter-spacing:normal;word-spacing:normal;text-anchor:start;fill:none;stroke:#000000;stroke-linecap:butt;stroke-linejoin:miter;stroke-miterlimit:10.43299961;stroke-opacity:1;stroke-dasharray:none;stroke-dashoffset:0"
         id="g3950"
         transform="matrix(1.0629921,0,0,-1.0629921,-186.02362,789.27165)"
         xml:space="preserve"
         stroke-miterlimit="10.433"
         font-style="normal"
         font-variant="normal"
         font-weight="normal"
         font-stretch="normal"
         font-size-adjust="none"
         letter-spacing="normal"
         word-spacing="normal"><path
           style="fill:#000000;stroke-width:0"
           inkscape:connector-curvature="0"
           d="m 465.61,413.75 0.14,0.96 1.64,6.57 c 0.21,0.76 0.21,0.81 1.25,0.81 h 3.69 c 2.55,0 4.27,-0.67 4.27,-2.56 0,-0.72 -0.36,-2.67 -1.77,-3.69 -1.42,-1.02 -3.37,-1.13 -4.36,-1.13 h -4.72 l -0.14,-0.96 h 5.43 c 3.84,0 8.32,2.34 8.32,5.43 0,2.32 -2.59,4.03 -6.2,4.03 h -9.81 c -0.5,0 -0.88,0 -0.88,-0.7 0,-0.42 0.3,-0.42 0.92,-0.42 0.25,0 1.07,0 1.6,-0.14 0,-0.31 0,-0.36 -0.08,-0.63 l -3.27,-13.06 c -0.2,-0.75 -0.21,-0.94 -2.14,-0.94 -0.62,0 -1.01,0 -1.01,-0.7 0,-0.2 0.17,-0.42 0.44,-0.42 0.53,0 1.12,0.08 1.67,0.08 0.62,0 1.22,0.01 1.84,0.01 0.63,0 1.22,-0.01 1.85,-0.01 0.57,0 1.2,-0.08 1.75,-0.08 0.14,0 0.62,0 0.62,0.7 0,0.42 -0.36,0.42 -0.83,0.42 -0.04,0 -0.64,0 -1.08,0.05 -0.61,0.05 -0.64,0.08 -0.64,0.27 0,0.06 0,0.11 0.08,0.36 z"
           id="path3952" /><path
           style="fill:#000000;stroke-width:0"
           inkscape:connector-curvature="0"
           d="m 492.73,402.82 v 1.1 h -3.12 v 10.97 c 0,0.59 -0.02,0.73 -0.67,0.73 -0.5,0 -0.52,-0.01 -0.8,-0.37 l -9.22,-11.33 v -1.1 h 8.3 l 0.2,1.1 h -7.33 l 7.33,9.01 v -9.01 l -0.2,-1.1 v -1.93 c 0,-0.78 0,-1.03 -2.16,-1.03 h -0.87 v -1.1 c 1.17,0.05 2.78,0.1 4.23,0.1 1.44,0 3.03,-0.05 4.24,-0.1 v 1.1 h -0.88 c -2.17,0 -2.17,0.25 -2.17,1.03 v 1.93 z"
           id="path3954" /></g>    </g>
    <g
       id="g4014"
       transform="translate(231.54283,189.86512)">
      <g
         word-spacing="normal"
         letter-spacing="normal"
         font-size-adjust="none"
         font-stretch="normal"
         font-weight="normal"
         font-variant="normal"
         font-style="normal"
         stroke-miterlimit="10.433"
         xml:space="preserve"
         transform="matrix(1.0629921,0,0,-1.0629921,-186.02362,789.27165)"
         id="g4016"
         style="font-style:normal;font-variant:normal;font-weight:normal;font-stretch:normal;letter-spacing:normal;word-spacing:normal;text-anchor:start;fill:none;stroke:#000000;stroke-linecap:butt;stroke-linejoin:miter;stroke-miterlimit:10.43299961;stroke-opacity:1;stroke-dasharray:none;stroke-dashoffset:0"><path
           id="path4018"
           d="m 465.61,413.75 0.14,0.96 1.64,6.57 c 0.21,0.76 0.21,0.81 1.25,0.81 h 3.69 c 2.55,0 4.27,-0.67 4.27,-2.56 0,-0.72 -0.36,-2.67 -1.77,-3.69 -1.42,-1.02 -3.37,-1.13 -4.36,-1.13 h -4.72 l -0.14,-0.96 h 5.43 c 3.84,0 8.32,2.34 8.32,5.43 0,2.32 -2.59,4.03 -6.2,4.03 h -9.81 c -0.5,0 -0.88,0 -0.88,-0.7 0,-0.42 0.3,-0.42 0.92,-0.42 0.25,0 1.07,0 1.6,-0.14 0,-0.31 0,-0.36 -0.08,-0.63 l -3.27,-13.06 c -0.2,-0.75 -0.21,-0.94 -2.14,-0.94 -0.62,0 -1.01,0 -1.01,-0.7 0,-0.2 0.17,-0.42 0.44,-0.42 0.53,0 1.12,0.08 1.67,0.08 0.62,0 1.22,0.01 1.84,0.01 0.63,0 1.22,-0.01 1.85,-0.01 0.57,0 1.2,-0.08 1.75,-0.08 0.14,0 0.62,0 0.62,0.7 0,0.42 -0.36,0.42 -0.83,0.42 -0.04,0 -0.64,0 -1.08,0.05 -0.61,0.05 -0.64,0.08 -0.64,0.27 0,0.06 0,0.11 0.08,0.36 z"
           inkscape:connector-curvature="0"
           style="fill:#000000;stroke-width:0" /><path
           id="path4020"
           d="m 482.23,412.48 0.13,-0.03 0.12,-0.02 0.12,-0.03 0.12,-0.02 0.12,-0.02 0.12,-0.02 0.11,-0.02 0.11,-0.02 0.11,-0.02 0.11,-0.01 0.11,-0.01 0.1,-0.02 0.1,-0.01 0.1,-0.01 0.09,-0.01 0.09,0 0.09,-0.01 0.09,-0.01 0.08,0 0.08,-0.01 0.07,0 0.07,0 0.07,-0.01 0.06,0 0.06,0 0.06,0 0.05,0 0.04,0 0.05,0 0.03,0 0.04,0 0.02,0 c 1.71,0 2.94,0.5 3.6,0.84 0.59,0.3 2.29,1.38 2.29,1.92 0,0.38 -0.28,0.43 -0.36,0.43 -0.04,0 -0.09,0 -0.37,-0.13 -0.94,-0.33 -2.49,-0.67 -4.13,-0.67 -1.42,0 -2.79,0.25 -4.1,0.69 -0.29,0.11 -0.33,0.11 -0.38,0.11 -0.36,0 -0.36,-0.3 -0.36,-0.71 v -7.47 c 0,-0.42 0,-0.75 0.48,-0.75 0.27,0 0.3,0.05 0.52,0.33 0.95,1.1 2.27,1.64 3.97,1.64 1.44,0 2.23,-0.84 2.58,-1.37 0.58,-0.85 0.7,-1.97 0.7,-3.16 0,-1.05 -0.09,-2.44 -1.08,-3.42 -1.11,-1.14 -2.53,-1.22 -3.08,-1.22 -1.62,0 -3.43,0.7 -4.21,2.17 1.04,0.08 1.4,0.83 1.4,1.39 0,0.8 -0.61,1.41 -1.4,1.41 -0.55,0 -1.4,-0.33 -1.4,-1.49 0,-2.43 2.4,-4.5 5.66,-4.5 3.72,0 6.75,2.49 6.75,5.58 0,2.82 -2.42,5.44 -5.87,5.44 -1.58,0 -2.85,-0.41 -3.93,-1.23 z"
           inkscape:connector-curvature="0"
           style="fill:#000000;stroke-width:0" /></g>    </g>
    <g
       transform="translate(-89.143991,127.34856)"
       id="g4088">
      <g
         style="font-style:normal;font-variant:normal;font-weight:normal;font-stretch:normal;letter-spacing:normal;word-spacing:normal;text-anchor:start;fill:none;stroke:#000000;stroke-linecap:butt;stroke-linejoin:miter;stroke-miterlimit:10.43299961;stroke-opacity:1;stroke-dasharray:none;stroke-dashoffset:0"
         id="g4090"
         transform="matrix(1.0629921,0,0,-1.0629921,-186.02362,789.27165)"
         xml:space="preserve"
         stroke-miterlimit="10.433"
         font-style="normal"
         font-variant="normal"
         font-weight="normal"
         font-stretch="normal"
         font-size-adjust="none"
         letter-spacing="normal"
         word-spacing="normal"><path
           style="fill:#000000;stroke-width:0"
           inkscape:connector-curvature="0"
           d="m 479.8,423.42 0,0 0,0 0,0 0,0 0,0.01 0,0 0,0.01 0,0.01 0,0.01 0,0.01 -0.01,0.01 0,0.01 0,0.01 0,0.02 -0.01,0.01 -0.01,0.02 0,0.01 -0.01,0.02 -0.01,0.02 -0.01,0.01 -0.01,0.02 -0.01,0.01 -0.01,0.02 -0.01,0 -0.01,0.01 -0.01,0.01 -0.01,0.01 0,0 -0.01,0.01 -0.01,0 -0.01,0.01 -0.01,0.01 -0.02,0 -0.01,0.01 -0.01,0 -0.01,0.01 -0.01,0 -0.02,0 -0.01,0.01 -0.02,0 -0.01,0 -0.02,0.01 -0.01,0 -0.02,0 -0.01,0 -0.02,0 -0.02,0 c -0.16,0 -0.17,-0.03 -0.47,-0.3 l -1.72,-1.71 c -0.06,-0.05 -0.23,-0.24 -0.28,-0.24 -0.05,0 -0.09,0.08 -0.12,0.08 -0.5,0.55 -2.02,2.17 -5.28,2.17 -6.85,0 -13.16,-5.36 -13.16,-10.81 0,-4.06 3.5,-7.3 8.83,-7.3 2.51,0 4.73,0.85 6.25,1.81 3.18,2.08 3.56,4.74 3.56,4.77 0,0.34 -0.34,0.34 -0.53,0.34 -0.27,0 -0.42,-0.01 -0.52,-0.32 -1.2,-3.93 -5.33,-5.47 -8.14,-5.47 -2.92,0 -6.69,1.23 -6.69,5.59 0,2.8 1.47,5.69 3.05,7.19 2.89,2.73 6.17,3.08 7.72,3.08 3.19,0 5.2,-2.07 5.2,-4.93 0,-0.56 -0.04,-0.67 -0.04,-0.82 0,-0.38 0.34,-0.38 0.57,-0.38 0.47,0 0.47,0.08 0.6,0.55 z"
           id="path4092" /><path
           style="fill:#000000;stroke-width:0"
           inkscape:connector-curvature="0"
           d="m 490.28,414.61 0,0.03 0,0.03 0,0.04 0,0.03 0,0.03 0,0.03 0,0.03 0,0.02 -0.01,0.03 0,0.02 0,0.03 0,0.02 0,0.03 -0.01,0.02 0,0.02 0,0.02 -0.01,0.02 0,0.02 -0.01,0.03 -0.01,0.03 -0.02,0.03 -0.01,0.03 -0.02,0.02 -0.02,0.02 -0.02,0.02 -0.03,0.02 -0.02,0.01 -0.03,0.01 -0.03,0.02 -0.04,0 -0.04,0.01 -0.04,0.01 -0.02,0 -0.02,0 -0.03,0.01 -0.02,0 -0.03,0 -0.02,0 -0.03,0 -0.03,0 -0.03,0 -0.03,0 -0.03,0 -0.03,0 -0.03,0 -0.04,0 -0.03,0 -0.04,0 -0.04,0.01 -0.03,0 c -1.77,-1.6 -4.54,-1.6 -5.04,-1.6 h -0.42 v -1.09 h 0.42 c 0.58,0 2.19,0.06 3.64,0.69 V 400.9 c 0,-0.76 0,-1.04 -2.64,-1.04 h -1.25 v -1.1 c 1.38,0.1 3.6,0.1 5.03,0.1 1.46,0 3.68,0 5.04,-0.1 v 1.1 h -1.24 c -2.64,0 -2.64,0.28 -2.64,1.04 z"
           id="path4094" /></g>    </g>
    <g
       id="g4170"
       transform="translate(-21.996569,38.204568)">
      <g
         word-spacing="normal"
         letter-spacing="normal"
         font-size-adjust="none"
         font-stretch="normal"
         font-weight="normal"
         font-variant="normal"
         font-style="normal"
         stroke-miterlimit="10.433"
         xml:space="preserve"
         transform="matrix(1.0629921,0,0,-1.0629921,-186.02362,789.27165)"
         id="g4172"
         style="font-style:normal;font-variant:normal;font-weight:normal;font-stretch:normal;letter-spacing:normal;word-spacing:normal;text-anchor:start;fill:none;stroke:#000000;stroke-linecap:butt;stroke-linejoin:miter;stroke-miterlimit:10.43299961;stroke-opacity:1;stroke-dasharray:none;stroke-dashoffset:0"><path
           id="path4174"
           d="m 479.8,423.42 0,0 0,0 0,0 0,0 0,0.01 0,0 0,0.01 0,0.01 0,0.01 0,0.01 -0.01,0.01 0,0.01 0,0.01 0,0.02 -0.01,0.01 -0.01,0.02 0,0.01 -0.01,0.02 -0.01,0.02 -0.01,0.01 -0.01,0.02 -0.01,0.01 -0.01,0.02 -0.01,0 -0.01,0.01 -0.01,0.01 -0.01,0.01 0,0 -0.01,0.01 -0.01,0 -0.01,0.01 -0.01,0.01 -0.02,0 -0.01,0.01 -0.01,0 -0.01,0.01 -0.01,0 -0.02,0 -0.01,0.01 -0.02,0 -0.01,0 -0.02,0.01 -0.01,0 -0.02,0 -0.01,0 -0.02,0 -0.02,0 c -0.16,0 -0.17,-0.03 -0.47,-0.3 l -1.72,-1.71 c -0.06,-0.05 -0.23,-0.24 -0.28,-0.24 -0.05,0 -0.09,0.08 -0.12,0.08 -0.5,0.55 -2.02,2.17 -5.28,2.17 -6.85,0 -13.16,-5.36 -13.16,-10.81 0,-4.06 3.5,-7.3 8.83,-7.3 2.51,0 4.73,0.85 6.25,1.81 3.18,2.08 3.56,4.74 3.56,4.77 0,0.34 -0.34,0.34 -0.53,0.34 -0.27,0 -0.42,-0.01 -0.52,-0.32 -1.2,-3.93 -5.33,-5.47 -8.14,-5.47 -2.92,0 -6.69,1.23 -6.69,5.59 0,2.8 1.47,5.69 3.05,7.19 2.89,2.73 6.17,3.08 7.72,3.08 3.19,0 5.2,-2.07 5.2,-4.93 0,-0.56 -0.04,-0.67 -0.04,-0.82 0,-0.38 0.34,-0.38 0.57,-0.38 0.47,0 0.47,0.08 0.6,0.55 z"
           inkscape:connector-curvature="0"
           style="fill:#000000;stroke-width:0" /><path
           id="path4176"
           d="m 495.03,403.57 h -1.05 c -0.07,-0.48 -0.32,-2.01 -0.71,-2.26 -0.21,-0.16 -2.3,-0.16 -2.68,-0.16 h -4.87 c 1.64,1.22 3.48,2.61 4.98,3.61 2.24,1.55 4.33,3 4.33,5.64 0,3.19 -3.01,4.96 -6.58,4.96 -3.36,0 -5.83,-1.96 -5.83,-4.4 0,-1.29 1.1,-1.51 1.46,-1.51 0.67,0 1.47,0.45 1.47,1.47 0,0.89 -0.66,1.39 -1.43,1.47 0.69,1.12 2.15,1.87 3.82,1.87 2.4,0 4.42,-1.45 4.42,-3.89 0,-2.09 -1.44,-3.69 -3.36,-5.31 l -6.08,-5.16 c -0.25,-0.22 -0.26,-0.22 -0.3,-0.39 v -0.75 h 11.58 z"
           inkscape:connector-curvature="0"
           style="fill:#000000;stroke-width:0" /></g>    </g>
    <g
       transform="translate(106.5097,38.204568)"
       id="g4260">
      <g
         style="font-style:normal;font-variant:normal;font-weight:normal;font-stretch:normal;letter-spacing:normal;word-spacing:normal;text-anchor:start;fill:none;stroke:#000000;stroke-linecap:butt;stroke-linejoin:miter;stroke-miterlimit:10.43299961;stroke-opacity:1;stroke-dasharray:none;stroke-dashoffset:0"
         id="g4262"
         transform="matrix(1.0629921,0,0,-1.0629921,-186.02362,789.27165)"
         xml:space="preserve"
         stroke-miterlimit="10.433"
         font-style="normal"
         font-variant="normal"
         font-weight="normal"
         font-stretch="normal"
         font-size-adjust="none"
         letter-spacing="normal"
         word-spacing="normal"><path
           style="fill:#000000;stroke-width:0"
           inkscape:connector-curvature="0"
           d="m 479.8,423.42 0,0 0,0 0,0 0,0 0,0.01 0,0 0,0.01 0,0.01 0,0.01 0,0.01 -0.01,0.01 0,0.01 0,0.01 0,0.02 -0.01,0.01 -0.01,0.02 0,0.01 -0.01,0.02 -0.01,0.02 -0.01,0.01 -0.01,0.02 -0.01,0.01 -0.01,0.02 -0.01,0 -0.01,0.01 -0.01,0.01 -0.01,0.01 0,0 -0.01,0.01 -0.01,0 -0.01,0.01 -0.01,0.01 -0.02,0 -0.01,0.01 -0.01,0 -0.01,0.01 -0.01,0 -0.02,0 -0.01,0.01 -0.02,0 -0.01,0 -0.02,0.01 -0.01,0 -0.02,0 -0.01,0 -0.02,0 -0.02,0 c -0.16,0 -0.17,-0.03 -0.47,-0.3 l -1.72,-1.71 c -0.06,-0.05 -0.23,-0.24 -0.28,-0.24 -0.05,0 -0.09,0.08 -0.12,0.08 -0.5,0.55 -2.02,2.17 -5.28,2.17 -6.85,0 -13.16,-5.36 -13.16,-10.81 0,-4.06 3.5,-7.3 8.83,-7.3 2.51,0 4.73,0.85 6.25,1.81 3.18,2.08 3.56,4.74 3.56,4.77 0,0.34 -0.34,0.34 -0.53,0.34 -0.27,0 -0.42,-0.01 -0.52,-0.32 -1.2,-3.93 -5.33,-5.47 -8.14,-5.47 -2.92,0 -6.69,1.23 -6.69,5.59 0,2.8 1.47,5.69 3.05,7.19 2.89,2.73 6.17,3.08 7.72,3.08 3.19,0 5.2,-2.07 5.2,-4.93 0,-0.56 -0.04,-0.67 -0.04,-0.82 0,-0.38 0.34,-0.38 0.57,-0.38 0.47,0 0.47,0.08 0.6,0.55 z"
           id="path4264" /><path
           style="fill:#000000;stroke-width:0"
           inkscape:connector-curvature="0"
           d="m 488.58,407.01 0.21,0 0.21,-0.01 0.2,-0.03 0.2,-0.02 0.19,-0.04 0.19,-0.05 0.19,-0.05 0.17,-0.06 0.17,-0.07 0.17,-0.07 0.16,-0.09 0.15,-0.09 0.15,-0.1 0.14,-0.1 0.14,-0.12 0.13,-0.12 0.12,-0.13 0.11,-0.13 0.11,-0.14 0.1,-0.15 0.09,-0.16 0.09,-0.16 0.08,-0.17 0.07,-0.18 0.06,-0.18 0.06,-0.19 0.04,-0.2 0.04,-0.2 0.03,-0.21 0.02,-0.22 0.02,-0.22 0,-0.23 c 0,-2.55 -1.56,-3.89 -3.78,-3.89 -0.28,0 -3.25,0 -4.52,1.3 1.03,0.15 1.33,0.92 1.33,1.51 0,0.92 -0.7,1.53 -1.53,1.53 -0.8,0 -1.53,-0.53 -1.53,-1.57 0,-2.6 2.94,-3.79 6.31,-3.79 4.1,0 6.64,2.47 6.64,4.88 0,2.05 -1.83,3.8 -4.67,4.44 3,0.97 3.8,2.87 3.8,4.26 0,2.05 -2.55,3.57 -5.69,3.57 -3.06,0 -5.53,-1.3 -5.53,-3.55 0,-1.17 0.95,-1.47 1.42,-1.47 0.72,0 1.42,0.53 1.42,1.42 0,0.58 -0.29,1.28 -1.18,1.42 1.06,1.14 3.28,1.22 3.79,1.22 1.83,0 3.13,-0.92 3.13,-2.61 0,-1.45 -0.96,-3.72 -3.57,-3.86 -0.7,-0.03 -0.79,-0.04 -1.45,-0.07 -0.26,-0.04 -0.55,-0.05 -0.55,-0.43 0,-0.42 0.25,-0.42 0.71,-0.42 z"
           id="path4266" /></g>    </g>
    <g
       id="g4358"
       transform="translate(175.97255,136.61027)">
      <g
         word-spacing="normal"
         letter-spacing="normal"
         font-size-adjust="none"
         font-stretch="normal"
         font-weight="normal"
         font-variant="normal"
         font-style="normal"
         stroke-miterlimit="10.433"
         xml:space="preserve"
         transform="matrix(1.0629921,0,0,-1.0629921,-186.02362,789.27165)"
         id="g4360"
         style="font-style:normal;font-variant:normal;font-weight:normal;font-stretch:normal;letter-spacing:normal;word-spacing:normal;text-anchor:start;fill:none;stroke:#000000;stroke-linecap:butt;stroke-linejoin:miter;stroke-miterlimit:10.43299961;stroke-opacity:1;stroke-dasharray:none;stroke-dashoffset:0"><path
           id="path4362"
           d="m 479.8,423.42 0,0 0,0 0,0 0,0 0,0.01 0,0 0,0.01 0,0.01 0,0.01 0,0.01 -0.01,0.01 0,0.01 0,0.01 0,0.02 -0.01,0.01 -0.01,0.02 0,0.01 -0.01,0.02 -0.01,0.02 -0.01,0.01 -0.01,0.02 -0.01,0.01 -0.01,0.02 -0.01,0 -0.01,0.01 -0.01,0.01 -0.01,0.01 0,0 -0.01,0.01 -0.01,0 -0.01,0.01 -0.01,0.01 -0.02,0 -0.01,0.01 -0.01,0 -0.01,0.01 -0.01,0 -0.02,0 -0.01,0.01 -0.02,0 -0.01,0 -0.02,0.01 -0.01,0 -0.02,0 -0.01,0 -0.02,0 -0.02,0 c -0.16,0 -0.17,-0.03 -0.47,-0.3 l -1.72,-1.71 c -0.06,-0.05 -0.23,-0.24 -0.28,-0.24 -0.05,0 -0.09,0.08 -0.12,0.08 -0.5,0.55 -2.02,2.17 -5.28,2.17 -6.85,0 -13.16,-5.36 -13.16,-10.81 0,-4.06 3.5,-7.3 8.83,-7.3 2.51,0 4.73,0.85 6.25,1.81 3.18,2.08 3.56,4.74 3.56,4.77 0,0.34 -0.34,0.34 -0.53,0.34 -0.27,0 -0.42,-0.01 -0.52,-0.32 -1.2,-3.93 -5.33,-5.47 -8.14,-5.47 -2.92,0 -6.69,1.23 -6.69,5.59 0,2.8 1.47,5.69 3.05,7.19 2.89,2.73 6.17,3.08 7.72,3.08 3.19,0 5.2,-2.07 5.2,-4.93 0,-0.56 -0.04,-0.67 -0.04,-0.82 0,-0.38 0.34,-0.38 0.57,-0.38 0.47,0 0.47,0.08 0.6,0.55 z"
           inkscape:connector-curvature="0"
           style="fill:#000000;stroke-width:0" /><path
           id="path4364"
           d="m 495.73,402.82 v 1.1 h -3.12 v 10.97 c 0,0.59 -0.02,0.73 -0.67,0.73 -0.5,0 -0.52,-0.01 -0.8,-0.37 l -9.22,-11.33 v -1.1 h 8.3 l 0.2,1.1 h -7.33 l 7.33,9.01 v -9.01 l -0.2,-1.1 v -1.93 c 0,-0.78 0,-1.03 -2.16,-1.03 h -0.87 v -1.1 c 1.17,0.05 2.78,0.1 4.23,0.1 1.44,0 3.03,-0.05 4.24,-0.1 v 1.1 h -0.88 c -2.17,0 -2.17,0.25 -2.17,1.03 v 1.93 z"
           inkscape:connector-curvature="0"
           style="fill:#000000;stroke-width:0" /></g>    </g>
    <text
       xml:space="preserve"
       style="font-size:32.76464462px;font-style:normal;font-weight:normal;line-height:125%;letter-spacing:0px;word-spacing:0px;fill:#000000;fill-opacity:1;stroke:none;font-family:Sans"
       x="221.16135"
       y="723.17242"
       id="text4433"
       sodipodi:linespacing="125%"
       transform="scale(1.2208282,0.81911608)"><tspan
         sodipodi:role="line"
         id="tspan4435"
         x="221.16135"
         y="723.17242">boundary</tspan></text>
    <path
       style="fill:none;stroke:#000000;stroke-width:2;stroke-linecap:butt;stroke-linejoin:miter;stroke-miterlimit:4;stroke-opacity:1;stroke-dasharray:none;marker-start:none;marker-end:url(#Arrow1Mend)"
       d="m 260,582.36218 -40,-20"
       id="path4437"
       inkscape:connector-curvature="0"
       sodipodi:nodetypes="cc" />
    <path
       style="fill:none;stroke:#000000;stroke-width:2;stroke-linecap:butt;stroke-linejoin:miter;stroke-miterlimit:4;stroke-opacity:1;stroke-dasharray:none;marker-end:url(#Arrow1Mend)"
       d="m 470,582.36218 30,-20"
       id="path4439"
       inkscape:connector-curvature="0"
       sodipodi:nodetypes="cc" />
  </g>
</svg>
