<?xml version="1.0" encoding="UTF-8" standalone="no"?>
<!-- Created with Inkscape (http://www.inkscape.org/) -->

<svg
   xmlns:dc="http://purl.org/dc/elements/1.1/"
   xmlns:cc="http://creativecommons.org/ns#"
   xmlns:rdf="http://www.w3.org/1999/02/22-rdf-syntax-ns#"
   xmlns:svg="http://www.w3.org/2000/svg"
   xmlns="http://www.w3.org/2000/svg"
   xmlns:sodipodi="http://sodipodi.sourceforge.net/DTD/sodipodi-0.dtd"
   xmlns:inkscape="http://www.inkscape.org/namespaces/inkscape"
   width="210mm"
   height="297mm"
   viewBox="0 0 744.09448819 1052.3622047"
   id="svg2"
   version="1.1"
   inkscape:version="0.91 r13725"
   sodipodi:docname="fluxJac.svg">
  <sodipodi:namedview
     id="base"
     pagecolor="#ffffff"
     bordercolor="#666666"
     borderopacity="1.0"
     inkscape:pageopacity="0.0"
     inkscape:pageshadow="2"
     inkscape:zoom="0.81340816"
     inkscape:cx="372.04724"
     inkscape:cy="526.1811"
     inkscape:document-units="px"
     inkscape:current-layer="layer1"
     showgrid="true"
     inkscape:window-width="1920"
     inkscape:window-height="993"
     inkscape:window-x="0"
     inkscape:window-y="24"
     inkscape:window-maximized="1">
    <inkscape:grid
       id="grid4136"
       type="xygrid" />
  </sodipodi:namedview>
  <defs
     id="defs4">
    <marker
       inkscape:stockid="Arrow1Sstart"
       orient="auto"
       refY="0.0"
       refX="0.0"
       id="Arrow1Sstart"
       style="overflow:visible"
       inkscape:isstock="true">
      <path
         id="path4365"
         d="M 0.0,0.0 L 5.0,-5.0 L -12.5,0.0 L 5.0,5.0 L 0.0,0.0 z "
         style="fill-rule:evenodd;stroke:#000000;stroke-width:1pt;stroke-opacity:1;fill:#000000;fill-opacity:1"
         transform="scale(0.2) translate(6,0)" />
    </marker>
    <marker
       inkscape:stockid="Arrow1Mstart"
       orient="auto"
       refY="0.0"
       refX="0.0"
       id="marker4757"
       style="overflow:visible"
       inkscape:isstock="true">
      <path
         id="path4759"
         d="M 0.0,0.0 L 5.0,-5.0 L -12.5,0.0 L 5.0,5.0 L 0.0,0.0 z "
         style="fill-rule:evenodd;stroke:#000000;stroke-width:1pt;stroke-opacity:1;fill:#000000;fill-opacity:1"
         transform="scale(0.4) translate(10,0)" />
    </marker>
    <marker
       inkscape:stockid="Arrow2Mstart"
       orient="auto"
       refY="0.0"
       refX="0.0"
       id="Arrow2Mstart"
       style="overflow:visible"
       inkscape:isstock="true">
      <path
         id="path4377"
         style="fill-rule:evenodd;stroke-width:0.625;stroke-linejoin:round;stroke:#000000;stroke-opacity:1;fill:#000000;fill-opacity:1"
         d="M 8.7185878,4.0337352 L -2.2072895,0.016013256 L 8.7185884,-4.0017078 C 6.9730900,-1.6296469 6.9831476,1.6157441 8.7185878,4.0337352 z "
         transform="scale(0.6) translate(0,0)" />
    </marker>
    <marker
       inkscape:stockid="Arrow1Mstart"
       orient="auto"
       refY="0.0"
       refX="0.0"
       id="Arrow1Mstart"
       style="overflow:visible"
       inkscape:isstock="true">
      <path
         id="path4359"
         d="M 0.0,0.0 L 5.0,-5.0 L -12.5,0.0 L 5.0,5.0 L 0.0,0.0 z "
         style="fill-rule:evenodd;stroke:#000000;stroke-width:1pt;stroke-opacity:1;fill:#000000;fill-opacity:1"
         transform="scale(0.4) translate(10,0)" />
    </marker>
  </defs>
  <metadata
     id="metadata7">
    <rdf:RDF>
      <cc:Work
         rdf:about="">
        <dc:format>image/svg+xml</dc:format>
        <dc:type
           rdf:resource="http://purl.org/dc/dcmitype/StillImage" />
        <dc:title></dc:title>
      </cc:Work>
    </rdf:RDF>
  </metadata>
  <g
     id="layer1"
     inkscape:groupmode="layer"
     inkscape:label="Layer 1">
    <g
       id="g4147"
       transform="matrix(0.71076129,0,0,0.67068856,199.35918,366.51653)">
      <g
         word-spacing="normal"
         letter-spacing="normal"
         font-size-adjust="none"
         font-stretch="normal"
         font-weight="normal"
         font-variant="normal"
         font-style="normal"
         stroke-miterlimit="10.433"
         xml:space="preserve"
         transform="matrix(1.0629921,0,0,-1.0629921,-186.02362,789.27165)"
         id="content"
         style="font-style:normal;font-variant:normal;font-weight:normal;font-stretch:normal;letter-spacing:normal;word-spacing:normal;text-anchor:start;fill:none;fill-opacity:1;fill-rule:evenodd;stroke:#000000;stroke-linecap:butt;stroke-linejoin:miter;stroke-miterlimit:10.43299961;stroke-dasharray:none;stroke-dashoffset:0;stroke-opacity:1"><path
           id="path4150"
           d="m 482.95,436.39 0.04,0.15 0.03,0.14 0.04,0.14 0.03,0.13 0.04,0.12 0.03,0.12 0.04,0.11 0.04,0.11 0.04,0.1 0.04,0.09 0.05,0.09 0.06,0.08 0.05,0.08 0.07,0.07 0.06,0.07 0.08,0.06 0.08,0.06 0.09,0.05 0.1,0.05 0.1,0.04 0.12,0.04 0.12,0.03 0.14,0.03 0.07,0.02 0.07,0.01 0.08,0.01 0.08,0.02 0.08,0.01 0.08,0 0.09,0.01 0.09,0.01 0.1,0.01 0.1,0 0.1,0.01 0.1,0 0.11,0.01 0.11,0 0.12,0 0.12,0.01 0.12,0 0.13,0 c 0.79,0 1.34,0 1.34,0.95 0,0.44 -0.3,0.59 -0.69,0.59 l -12.86,0 c -0.44,0 -1.04,0 -1.04,-0.99 0,-0.55 0.4,-0.55 1.69,-0.55 1.15,0 1.64,0 2.89,-0.1 1.19,-0.15 1.54,-0.3 1.54,-1 0,-0.3 -0.1,-0.65 -0.2,-1.04 l -5.72,-22.87 c -1.2,-4.83 -4.59,-7.47 -7.18,-7.47 -1.29,0 -3.93,0.5 -4.73,3.09 0.15,-0.05 0.5,-0.05 0.6,-0.05 1.94,0 3.24,1.69 3.24,3.19 0,1.59 -1.35,2.09 -2.19,2.09 -0.9,0 -3.34,-0.6 -3.34,-3.99 0,-3.08 2.64,-5.43 6.57,-5.43 4.59,0 9.77,3.29 11.01,8.22 z"
           inkscape:connector-curvature="0"
           style="fill:#000000;stroke-width:0" /></g>    </g>
    <g
       id="g4170"
       transform="matrix(0.88104485,0,0,0.67033012,208.09494,350.66304)">
      <g
         id="g4172"
         transform="matrix(1.0629921,0,0,-1.0629921,-186.02362,789.27165)"
         xml:space="preserve"
         stroke-miterlimit="10.433"
         font-style="normal"
         font-variant="normal"
         font-weight="normal"
         font-stretch="normal"
         font-size-adjust="none"
         letter-spacing="normal"
         word-spacing="normal"
         style="font-style:normal;font-variant:normal;font-weight:normal;font-stretch:normal;letter-spacing:normal;word-spacing:normal;text-anchor:start;fill:none;fill-opacity:1;fill-rule:evenodd;stroke:#000000;stroke-linecap:butt;stroke-linejoin:miter;stroke-miterlimit:10.43299961;stroke-dasharray:none;stroke-dashoffset:0;stroke-opacity:1"><path
           d="m 482.95,436.39 0.04,0.15 0.03,0.14 0.04,0.14 0.03,0.13 0.04,0.12 0.03,0.12 0.04,0.11 0.04,0.11 0.04,0.1 0.04,0.09 0.05,0.09 0.06,0.08 0.05,0.08 0.07,0.07 0.06,0.07 0.08,0.06 0.08,0.06 0.09,0.05 0.1,0.05 0.1,0.04 0.12,0.04 0.12,0.03 0.14,0.03 0.07,0.02 0.07,0.01 0.08,0.01 0.08,0.02 0.08,0.01 0.08,0 0.09,0.01 0.09,0.01 0.1,0.01 0.1,0 0.1,0.01 0.1,0 0.11,0.01 0.11,0 0.12,0 0.12,0.01 0.12,0 0.13,0 c 0.79,0 1.34,0 1.34,0.95 0,0.44 -0.3,0.59 -0.69,0.59 l -12.86,0 c -0.44,0 -1.04,0 -1.04,-0.99 0,-0.55 0.4,-0.55 1.69,-0.55 1.15,0 1.64,0 2.89,-0.1 1.19,-0.15 1.54,-0.3 1.54,-1 0,-0.3 -0.1,-0.65 -0.2,-1.04 l -5.72,-22.87 c -1.2,-4.83 -4.59,-7.47 -7.18,-7.47 -1.29,0 -3.93,0.5 -4.73,3.09 0.15,-0.05 0.5,-0.05 0.6,-0.05 1.94,0 3.24,1.69 3.24,3.19 0,1.59 -1.35,2.09 -2.19,2.09 -0.9,0 -3.34,-0.6 -3.34,-3.99 0,-3.08 2.64,-5.43 6.57,-5.43 4.59,0 9.77,3.29 11.01,8.22 z"
           id="path4174"
           inkscape:connector-curvature="0"
           style="fill:#000000;stroke-width:0" /><path
           d="m 498.11,440.46 0.03,0.05 0.02,0.05 0.02,0.06 0.03,0.05 0.02,0.04 0.02,0.05 0.01,0.04 0.02,0.05 0.01,0.04 0.02,0.04 0.01,0.04 0.01,0.04 0.02,0.03 0.01,0.04 0.01,0.03 0,0.04 0.01,0.03 0.01,0.03 0,0.03 0.01,0.03 0.01,0.03 0,0.03 0,0.02 0.01,0.03 0,0.05 0,0.05 0.01,0.05 0,0.04 c 0,1.09 -0.98,1.92 -2.06,1.92 -1.33,0 -1.75,-1.08 -1.92,-1.64 l -4.6,-15.1 c -0.04,-0.07 -0.18,-0.52 -0.18,-0.55 0,-0.42 1.08,-0.77 1.37,-0.77 0.24,0 0.27,0.07 0.52,0.59 z"
           id="path4176"
           inkscape:connector-curvature="0"
           style="fill:#000000;stroke-width:0" /></g>    </g>
    <g
       id="g4204"
       transform="matrix(1.0000001,0,0,0.76202842,-100.81042,308.87158)">
      <g
         word-spacing="normal"
         letter-spacing="normal"
         font-size-adjust="none"
         font-stretch="normal"
         font-weight="normal"
         font-variant="normal"
         font-style="normal"
         stroke-miterlimit="10.433"
         xml:space="preserve"
         transform="matrix(1.0629921,0,0,-1.0629921,-186.02362,789.27165)"
         id="g4206"
         style="font-style:normal;font-variant:normal;font-weight:normal;font-stretch:normal;letter-spacing:normal;word-spacing:normal;text-anchor:start;fill:none;fill-opacity:1;fill-rule:evenodd;stroke:#000000;stroke-linecap:butt;stroke-linejoin:miter;stroke-miterlimit:10.43299961;stroke-dasharray:none;stroke-dashoffset:0;stroke-opacity:1"><path
           id="path4208"
           d="m 474.63,436.19 0.04,0.16 0.04,0.16 0.04,0.15 0.04,0.14 0.04,0.14 0.05,0.12 0.04,0.13 0.05,0.11 0.06,0.11 0.06,0.1 0.06,0.1 0.07,0.09 0.08,0.08 0.09,0.08 0.09,0.08 0.11,0.06 0.11,0.07 0.13,0.05 0.14,0.06 0.15,0.05 0.16,0.04 0.09,0.02 0.09,0.02 0.09,0.01 0.1,0.02 0.1,0.02 0.11,0.01 0.11,0.01 0.11,0.02 0.12,0.01 0.12,0.01 0.13,0.01 0.13,0.01 0.14,0.01 0.14,0 0.14,0.01 0.15,0 0.16,0.01 0.16,0 0.16,0 0.18,0.01 0.17,0 0.18,0 c 1.2,0 1.6,0 1.6,0.95 0,0.59 -0.55,0.59 -0.75,0.59 l -13.2,0 c -0.35,0 -1,0 -1,-0.99 0,-0.55 0.45,-0.55 1.4,-0.55 2.09,0 3.43,0 3.43,-0.95 0,-0.25 0,-0.35 -0.09,-0.8 l -6.73,-26.84 c -0.45,-1.85 -0.6,-2.35 -4.53,-2.35 -1.15,0 -1.59,0 -1.59,-0.99 0,-0.55 0.59,-0.55 0.74,-0.55 l 13.2,0 c 0.4,0 1,0 1,0.95 0,0.59 -0.4,0.59 -1.5,0.59 -0.89,0 -1.14,0 -2.14,0.1 -1.04,0.1 -1.24,0.3 -1.24,0.85 0,0.4 0.1,0.8 0.2,1.15 z"
           inkscape:connector-curvature="0"
           style="fill:#000000;stroke-width:0" /></g>    </g>
    <g
       id="g4242"
       transform="translate(-90.975233,94.663419)">
      <g
         id="g4244"
         transform="matrix(1.0629921,0,0,-1.0629921,-186.02362,789.27165)"
         xml:space="preserve"
         stroke-miterlimit="10.433"
         font-style="normal"
         font-variant="normal"
         font-weight="normal"
         font-stretch="normal"
         font-size-adjust="none"
         letter-spacing="normal"
         word-spacing="normal"
         style="font-style:normal;font-variant:normal;font-weight:normal;font-stretch:normal;letter-spacing:normal;word-spacing:normal;text-anchor:start;fill:none;fill-opacity:1;fill-rule:evenodd;stroke:#000000;stroke-linecap:butt;stroke-linejoin:miter;stroke-miterlimit:10.43299961;stroke-dasharray:none;stroke-dashoffset:0;stroke-opacity:1"><path
           d="m 479.02,422.89 0.02,0.1 0.02,0.11 0.03,0.11 0.03,0.12 0.03,0.12 0.03,0.12 0.06,0.24 0.06,0.25 0.06,0.25 0.06,0.25 0.06,0.24 0.03,0.12 0.03,0.12 0.02,0.11 0.03,0.11 0.03,0.1 0.02,0.1 0.02,0.1 0.02,0.09 0.02,0.08 0.01,0.08 0.02,0.07 0.01,0.06 0.01,0.06 0.01,0.05 0,0.04 0,0.03 c 0,0.9 -0.7,1.35 -1.44,1.35 -0.6,0 -1.5,-0.4 -1.85,-1.4 -0.15,-0.34 -2.49,-9.86 -2.84,-11.15 -0.34,-1.5 -0.45,-2.39 -0.45,-3.29 0,-0.55 0,-0.65 0.05,-0.9 -1.14,-2.64 -2.64,-4.18 -4.58,-4.18 -3.98,0 -3.98,3.68 -3.98,4.53 0,1.6 0.25,3.54 2.59,9.67 0.54,1.49 0.85,2.19 0.85,3.18 0,2.25 -1.65,4.09 -4.09,4.09 -4.73,0 -6.57,-7.23 -6.57,-7.67 0,-0.5 0.49,-0.5 0.59,-0.5 0.5,0 0.55,0.1 0.8,0.9 1.34,4.63 3.29,6.17 5.03,6.17 0.45,0 1.25,-0.05 1.25,-1.64 0,-1.25 -0.55,-2.64 -0.9,-3.49 -2.19,-5.88 -2.79,-8.17 -2.79,-10.06 0,-4.53 3.34,-6.28 7.07,-6.28 0.85,0 3.19,0 5.18,3.49 1.3,-3.19 4.73,-3.49 6.23,-3.49 3.73,0 5.93,3.14 7.22,6.13 1.7,3.88 3.29,10.56 3.29,12.95 0,2.74 -1.35,3.49 -2.19,3.49 -1.25,0 -2.49,-1.3 -2.49,-2.4 0,-0.64 0.3,-0.94 0.74,-1.34 0.56,-0.55 1.8,-1.84 1.8,-4.23 0,-1.69 -1.44,-6.58 -2.74,-9.12 -1.3,-2.64 -3.04,-4.38 -5.48,-4.38 -2.34,0 -3.68,1.49 -3.68,4.33 0,1.4 0.34,2.94 0.54,3.64 z"
           id="path4246"
           inkscape:connector-curvature="0"
           style="fill:#000000;stroke-width:0" /><path
           d="m 505.4,420.06 0.03,0.11 0.03,0.1 0.03,0.1 0.02,0.1 0.03,0.09 0.03,0.08 0.03,0.08 0.03,0.08 0.04,0.07 0.04,0.06 0.04,0.07 0.05,0.06 0.05,0.05 0.06,0.05 0.06,0.05 0.07,0.04 0.07,0.05 0.09,0.03 0.09,0.04 0.09,0.03 0.11,0.03 0.06,0.01 0.06,0.01 0.06,0.01 0.06,0.01 0.07,0.01 0.07,0.01 0.07,0.01 0.08,0.01 0.08,0.01 0.08,0 0.08,0.01 0.09,0 0.09,0.01 0.09,0 0.1,0.01 0.1,0 0.1,0 0.11,0.01 0.11,0 0.11,0 0.12,0 0.12,0 c 0.87,0 1.29,0 1.29,0.73 0,0.32 -0.24,0.53 -0.56,0.53 -0.73,0 -1.6,-0.11 -2.33,-0.11 l -4.78,0 c -0.77,0 -1.64,0.11 -2.41,0.11 -0.21,0 -0.73,0 -0.73,-0.77 0,-0.49 0.39,-0.49 1.15,-0.49 0.04,0 0.73,0 1.33,-0.07 0.69,-0.07 0.94,-0.1 0.94,-0.49 0,-0.21 -0.07,-0.45 -0.14,-0.73 l -4.64,-18.52 c -0.28,-1.14 -0.38,-1.5 -3,-1.5 -0.94,0 -1.29,0 -1.29,-0.76 0,-0.04 0,-0.49 0.56,-0.49 1.05,0 3.66,0.14 4.71,0.14 l 2.4,-0.03 c 0.77,0 1.64,-0.11 2.41,-0.11 0.21,0 0.73,0 0.73,0.77 0,0.48 -0.42,0.48 -1.11,0.48 -0.07,0 -0.81,0 -1.5,0.07 -0.81,0.07 -0.81,0.22 -0.81,0.53 0,0.03 0,0.24 0.14,0.76 z"
           id="path4248"
           inkscape:connector-curvature="0"
           style="fill:#000000;stroke-width:0" /></g>    </g>
    <g
       id="g4290"
       transform="translate(167.19773,109.41616)">
      <g
         word-spacing="normal"
         letter-spacing="normal"
         font-size-adjust="none"
         font-stretch="normal"
         font-weight="normal"
         font-variant="normal"
         font-style="normal"
         stroke-miterlimit="10.433"
         xml:space="preserve"
         transform="matrix(1.0629921,0,0,-1.0629921,-186.02362,789.27165)"
         id="g4292"
         style="font-style:normal;font-variant:normal;font-weight:normal;font-stretch:normal;letter-spacing:normal;word-spacing:normal;text-anchor:start;fill:none;fill-opacity:1;fill-rule:evenodd;stroke:#000000;stroke-linecap:butt;stroke-linejoin:miter;stroke-miterlimit:10.43299961;stroke-dasharray:none;stroke-dashoffset:0;stroke-opacity:1"><path
           id="path4294"
           d="m 479.02,422.89 0.02,0.1 0.02,0.11 0.03,0.11 0.03,0.12 0.03,0.12 0.03,0.12 0.06,0.24 0.06,0.25 0.06,0.25 0.06,0.25 0.06,0.24 0.03,0.12 0.03,0.12 0.02,0.11 0.03,0.11 0.03,0.1 0.02,0.1 0.02,0.1 0.02,0.09 0.02,0.08 0.01,0.08 0.02,0.07 0.01,0.06 0.01,0.06 0.01,0.05 0,0.04 0,0.03 c 0,0.9 -0.7,1.35 -1.44,1.35 -0.6,0 -1.5,-0.4 -1.85,-1.4 -0.15,-0.34 -2.49,-9.86 -2.84,-11.15 -0.34,-1.5 -0.45,-2.39 -0.45,-3.29 0,-0.55 0,-0.65 0.05,-0.9 -1.14,-2.64 -2.64,-4.18 -4.58,-4.18 -3.98,0 -3.98,3.68 -3.98,4.53 0,1.6 0.25,3.54 2.59,9.67 0.54,1.49 0.85,2.19 0.85,3.18 0,2.25 -1.65,4.09 -4.09,4.09 -4.73,0 -6.57,-7.23 -6.57,-7.67 0,-0.5 0.49,-0.5 0.59,-0.5 0.5,0 0.55,0.1 0.8,0.9 1.34,4.63 3.29,6.17 5.03,6.17 0.45,0 1.25,-0.05 1.25,-1.64 0,-1.25 -0.55,-2.64 -0.9,-3.49 -2.19,-5.88 -2.79,-8.17 -2.79,-10.06 0,-4.53 3.34,-6.28 7.07,-6.28 0.85,0 3.19,0 5.18,3.49 1.3,-3.19 4.73,-3.49 6.23,-3.49 3.73,0 5.93,3.14 7.22,6.13 1.7,3.88 3.29,10.56 3.29,12.95 0,2.74 -1.35,3.49 -2.19,3.49 -1.25,0 -2.49,-1.3 -2.49,-2.4 0,-0.64 0.3,-0.94 0.74,-1.34 0.56,-0.55 1.8,-1.84 1.8,-4.23 0,-1.69 -1.44,-6.58 -2.74,-9.12 -1.3,-2.64 -3.04,-4.38 -5.48,-4.38 -2.34,0 -3.68,1.49 -3.68,4.33 0,1.4 0.34,2.94 0.54,3.64 z"
           inkscape:connector-curvature="0"
           style="fill:#000000;stroke-width:0" /><path
           id="path4296"
           d="m 511.82,420.13 0.02,0.11 0.03,0.11 0.03,0.1 0.02,0.09 0.03,0.09 0.03,0.09 0.02,0.07 0.03,0.08 0.03,0.07 0.04,0.06 0.03,0.06 0.04,0.06 0.04,0.05 0.04,0.05 0.05,0.04 0.05,0.04 0.06,0.04 0.06,0.03 0.07,0.03 0.07,0.03 0.08,0.02 0.09,0.02 0.1,0.02 0.05,0.01 0.05,0.01 0.05,0 0.06,0.01 0.06,0.01 0.06,0 0.06,0.01 0.06,0 0.07,0 0.07,0.01 0.07,0 0.08,0 0.07,0 0.08,0.01 0.08,0 0.09,0 0.09,0 0.09,0 c 0.41,0 0.9,0 0.9,0.73 0,0.39 -0.27,0.53 -0.52,0.53 l -9.2,0 c -0.25,0 -0.77,0 -0.77,-0.74 0,-0.52 0.31,-0.52 1.36,-0.52 0.8,0 0.94,0 1.81,-0.07 1.01,-0.1 1.12,-0.21 1.12,-0.63 0,-0.24 0,-0.31 -0.14,-0.8 l -4.01,-15.97 c -0.66,-2.61 -2.9,-4.81 -5.16,-4.81 -0.49,0 -2.69,0.1 -3.49,1.81 2.02,0 2.48,1.64 2.48,2.27 0,0.98 -0.84,1.5 -1.61,1.5 -0.94,0 -2.33,-0.77 -2.33,-2.72 0,-2.27 2.12,-3.84 5.05,-3.84 3.42,0 7.29,2.2 8.16,5.68 z"
           inkscape:connector-curvature="0"
           style="fill:#000000;stroke-width:0" /><path
           id="path4298"
           d="m 524.97,420.58 0,0 0,0.01 0,0 0,0 0.01,0.01 0,0.01 0.01,0.01 0.01,0.02 0.01,0.02 0.01,0.02 0,0.02 0.01,0.02 0.02,0.02 0.01,0.03 0.01,0.03 0.01,0.02 0.01,0.03 0.01,0.04 0.01,0.03 0.01,0.03 0.01,0.03 0.01,0.04 0.01,0.03 0.01,0.04 0.01,0.04 0.01,0.03 0.01,0.04 0,0.04 0.01,0.03 0.01,0.04 0,0.04 0,0.03 0,0.04 0.01,0.03 c 0,0.9 -0.8,1.47 -1.55,1.47 -1.02,0 -1.29,-0.77 -1.42,-1.14 l -3.84,-10.79 c -0.09,-0.29 -0.09,-0.37 -0.09,-0.4 0,-0.39 1.04,-0.64 1.07,-0.64 0.22,0 0.27,0.12 0.42,0.42 z"
           inkscape:connector-curvature="0"
           style="fill:#000000;stroke-width:0" /></g>    </g>
    <circle
       style="fill:#000000;fill-opacity:1;stroke:#000000;stroke-width:4;stroke-miterlimit:4;stroke-dasharray:16, 4;stroke-dashoffset:0;stroke-opacity:1"
       id="path4324"
       cx="228.11127"
       cy="506.92249"
       r="10" />
    <circle
       style="fill:#000000;fill-opacity:1;stroke:#000000;stroke-width:4;stroke-miterlimit:4;stroke-dasharray:16, 4;stroke-dashoffset:0;stroke-opacity:1"
       id="path4324-3"
       cx="496.3735"
       cy="502.7674"
       r="10" />
    <path
       style="fill:none;fill-rule:evenodd;stroke:#000000;stroke-width:4;stroke-linecap:butt;stroke-linejoin:miter;stroke-miterlimit:4;stroke-dasharray:24, 4;stroke-dashoffset:0;stroke-opacity:1"
       d="m 153.94234,307.4446 208.68129,87.37637 0,230 -203.59887,104.91758"
       id="path4341"
       inkscape:connector-curvature="0"
       sodipodi:nodetypes="cccc" />
    <path
       style="fill:none;fill-rule:evenodd;stroke:#000000;stroke-width:4;stroke-linecap:butt;stroke-linejoin:miter;stroke-miterlimit:4;stroke-dasharray:24, 4;stroke-dashoffset:0;stroke-opacity:1"
       d="M 360,394.82097 564.9931,300.06823"
       id="path4343"
       inkscape:connector-curvature="0"
       sodipodi:nodetypes="cc" />
    <path
       style="fill:none;fill-rule:evenodd;stroke:#000000;stroke-width:4;stroke-linecap:butt;stroke-linejoin:miter;stroke-miterlimit:4;stroke-dasharray:24, 4;stroke-dashoffset:0;stroke-opacity:1"
       d="m 360,622.36218 195.15794,100"
       id="path4345"
       inkscape:connector-curvature="0"
       sodipodi:nodetypes="cc" />
    <path
       style="fill:none;fill-rule:evenodd;stroke:#000000;stroke-width:4;stroke-linecap:butt;stroke-linejoin:miter;stroke-miterlimit:4;stroke-dasharray:none;stroke-opacity:1;marker-start:url(#Arrow1Sstart)"
       d="m 370,582.36218 42.12911,11.22939"
       id="path4347"
       inkscape:connector-curvature="0"
       sodipodi:nodetypes="cc" />
  </g>
</svg>
