<?xml version="1.0" encoding="UTF-8" standalone="no"?>
<!-- Created with Inkscape (http://www.inkscape.org/) -->

<svg
   xmlns:dc="http://purl.org/dc/elements/1.1/"
   xmlns:cc="http://creativecommons.org/ns#"
   xmlns:rdf="http://www.w3.org/1999/02/22-rdf-syntax-ns#"
   xmlns:svg="http://www.w3.org/2000/svg"
   xmlns="http://www.w3.org/2000/svg"
   xmlns:sodipodi="http://sodipodi.sourceforge.net/DTD/sodipodi-0.dtd"
   xmlns:inkscape="http://www.inkscape.org/namespaces/inkscape"
   sodipodi:docname="GKS+SST.svg"
   inkscape:version="0.48.4 r9939"
   version="1.1"
   id="svg2"
   viewBox="0 0 744.09448819 1052.3622047"
   height="297mm"
   width="210mm"
   inkscape:export-filename="/home/leejearl/Desktop/GKSDia/GKS+SST.png"
   inkscape:export-xdpi="90"
   inkscape:export-ydpi="90">
  <sodipodi:namedview
     inkscape:window-maximized="1"
     inkscape:window-y="24"
     inkscape:window-x="65"
     inkscape:window-height="1056"
     inkscape:window-width="1855"
     showgrid="true"
     inkscape:current-layer="layer1"
     inkscape:document-units="px"
     inkscape:cy="526.1811"
     inkscape:cx="170.50671"
     inkscape:zoom="0.87327348"
     inkscape:pageshadow="2"
     inkscape:pageopacity="0.0"
     borderopacity="1.0"
     bordercolor="#666666"
     pagecolor="#ffffff"
     id="base">
    <inkscape:grid
       id="grid3259"
       type="xygrid" />
  </sodipodi:namedview>
  <defs
     id="defs4">
    <marker
       inkscape:isstock="true"
       style="overflow:visible;"
       id="marker26523"
       refX="0.0"
       refY="0.0"
       orient="auto"
       inkscape:stockid="Arrow1Lend">
      <path
         transform="scale(0.8) rotate(180) translate(12.5,0)"
         style="fill-rule:evenodd;stroke:#000000;stroke-width:1pt;stroke-opacity:1;fill:#000000;fill-opacity:1"
         d="M 0.0,0.0 L 5.0,-5.0 L -12.5,0.0 L 5.0,5.0 L 0.0,0.0 z "
         id="path26525" />
    </marker>
    <marker
       inkscape:stockid="Arrow1Lend"
       orient="auto"
       refY="0.0"
       refX="0.0"
       id="marker4991"
       style="overflow:visible;"
       inkscape:isstock="true">
      <path
         id="path4993"
         d="M 0.0,0.0 L 5.0,-5.0 L -12.5,0.0 L 5.0,5.0 L 0.0,0.0 z "
         style="fill-rule:evenodd;stroke:#000000;stroke-width:1pt;stroke-opacity:1;fill:#000000;fill-opacity:1"
         transform="scale(0.8) rotate(180) translate(12.5,0)" />
    </marker>
    <marker
       inkscape:isstock="true"
       style="overflow:visible;"
       id="marker4675"
       refX="0.0"
       refY="0.0"
       orient="auto"
       inkscape:stockid="Arrow1Lend"
       inkscape:collect="always">
      <path
         transform="scale(0.8) rotate(180) translate(12.5,0)"
         style="fill-rule:evenodd;stroke:#000000;stroke-width:1pt;stroke-opacity:1;fill:#000000;fill-opacity:1"
         d="M 0.0,0.0 L 5.0,-5.0 L -12.5,0.0 L 5.0,5.0 L 0.0,0.0 z "
         id="path4677" />
    </marker>
    <marker
       inkscape:stockid="Arrow1Lend"
       orient="auto"
       refY="0.0"
       refX="0.0"
       id="marker4629"
       style="overflow:visible;"
       inkscape:isstock="true"
       inkscape:collect="always">
      <path
         id="path4631"
         d="M 0.0,0.0 L 5.0,-5.0 L -12.5,0.0 L 5.0,5.0 L 0.0,0.0 z "
         style="fill-rule:evenodd;stroke:#000000;stroke-width:1pt;stroke-opacity:1;fill:#000000;fill-opacity:1"
         transform="scale(0.8) rotate(180) translate(12.5,0)" />
    </marker>
    <marker
       inkscape:isstock="true"
       style="overflow:visible;"
       id="marker4571"
       refX="0.0"
       refY="0.0"
       orient="auto"
       inkscape:stockid="Arrow1Lend"
       inkscape:collect="always">
      <path
         transform="scale(0.8) rotate(180) translate(12.5,0)"
         style="fill-rule:evenodd;stroke:#000000;stroke-width:1pt;stroke-opacity:1;fill:#000000;fill-opacity:1"
         d="M 0.0,0.0 L 5.0,-5.0 L -12.5,0.0 L 5.0,5.0 L 0.0,0.0 z "
         id="path4573" />
    </marker>
    <marker
       inkscape:stockid="Arrow1Mend"
       orient="auto"
       refY="0.0"
       refX="0.0"
       id="Arrow1Mend"
       style="overflow:visible;"
       inkscape:isstock="true">
      <path
         id="path4272"
         d="M 0.0,0.0 L 5.0,-5.0 L -12.5,0.0 L 5.0,5.0 L 0.0,0.0 z "
         style="fill-rule:evenodd;stroke:#000000;stroke-width:1pt;stroke-opacity:1;fill:#000000;fill-opacity:1"
         transform="scale(0.4) rotate(180) translate(10,0)" />
    </marker>
  </defs>
  <metadata
     id="metadata7">
    <rdf:RDF>
      <cc:Work
         rdf:about="">
        <dc:format>image/svg+xml</dc:format>
        <dc:type
           rdf:resource="http://purl.org/dc/dcmitype/StillImage" />
      </cc:Work>
    </rdf:RDF>
  </metadata>
  <g
     id="layer1"
     inkscape:groupmode="layer"
     inkscape:label="Layer 1">
    <rect
       ry="80.158165"
       rx="0"
       y="225.58798"
       x="148.4231"
       height="80.158165"
       width="140.84935"
       id="rect3336"
       style="opacity:0.5;fill:#b77a7a;fill-opacity:1;stroke:#97816a;stroke-width:2;stroke-miterlimit:4;stroke-dasharray:none;stroke-dashoffset:0;stroke-opacity:1" />
    <rect
       ry="80.158165"
       rx="0"
       y="410.79733"
       x="476.18188"
       height="80.158165"
       width="140.84935"
       id="rect3336-6"
       style="opacity:0.5;fill:#b77a7a;fill-opacity:1;stroke:#97816a;stroke-width:2;stroke-miterlimit:4;stroke-dasharray:none;stroke-dashoffset:0;stroke-opacity:1" />
    <rect
       ry="80.158165"
       rx="0"
       y="408.50711"
       x="148.4231"
       height="80.158165"
       width="140.84935"
       id="rect3336-7"
       style="opacity:0.5;fill:#b77a7a;fill-opacity:1;stroke:#97816a;stroke-width:2;stroke-miterlimit:4;stroke-dasharray:none;stroke-dashoffset:0;stroke-opacity:1"
       inkscape:connector-avoid="true" />
    <rect
       ry="80.158165"
       rx="0"
       y="598.29694"
       x="148.4231"
       height="80.158165"
       width="140.84935"
       id="rect3336-7-0"
       style="opacity:0.5;fill:#b77a7a;fill-opacity:1;stroke:#97816a;stroke-width:2;stroke-miterlimit:4;stroke-dasharray:none;stroke-dashoffset:0;stroke-opacity:1" />
    <path
       inkscape:connection-end-point="d4"
       inkscape:connection-start-point="d4"
       style="fill:none;stroke:#000000;stroke-width:2;stroke-linecap:butt;stroke-linejoin:miter;stroke-miterlimit:4;stroke-opacity:1;stroke-dasharray:none;marker-end:url(#marker4629)"
       d="m 218.84777,305.74615 0,102.76096"
       id="path3443"
       inkscape:connector-type="polyline"
       inkscape:connector-curvature="0"
       inkscape:connection-start="#rect3336"
       inkscape:connection-end="#rect3336-7" />
    <path
       inkscape:connection-end-point="d4"
       inkscape:connection-start-point="d4"
       style="fill:none;stroke:#000000;stroke-width:2;stroke-linecap:butt;stroke-linejoin:miter;stroke-miterlimit:4;stroke-opacity:1;stroke-dasharray:none;marker-end:url(#marker4675)"
       d="m 218.84777,488.66528 0,109.63166"
       id="path3445"
       inkscape:connector-type="orthogonal"
       inkscape:connector-curvature="0"
       inkscape:connection-start="#rect3336-7"
       inkscape:connection-end="#rect3336-7-0" />
    <path
       inkscape:connection-end-point="d4"
       inkscape:connection-start-point="d4"
       style="fill:none;stroke:#000000;stroke-width:2;stroke-linecap:butt;stroke-linejoin:miter;stroke-miterlimit:4;stroke-opacity:1;stroke-dasharray:none;marker-end:url(#marker4571)"
       d="M 476.18188,450.38432 289.27245,449.07829"
       id="path3449"
       inkscape:connector-type="polyline"
       inkscape:connector-curvature="0"
       inkscape:connection-start="#rect3336-6"
       inkscape:connection-end="#rect3336-7" />
    <rect
       style="opacity:0.5;fill:#8dd1d4;fill-opacity:1;stroke:#2ab6cf;stroke-width:3;stroke-miterlimit:4;stroke-dasharray:none;stroke-dashoffset:0;stroke-opacity:1"
       id="rect4723"
       width="286.27917"
       height="595.46063"
       x="72.142349"
       y="139.70422"
       ry="80.158203" />
    <rect
       style="opacity:0.5;fill:#b77a7a;fill-opacity:1;stroke:#97816a;stroke-width:2;stroke-miterlimit:4;stroke-dasharray:none;stroke-dashoffset:0;stroke-opacity:1"
       id="rect4725"
       width="280.55359"
       height="279.40848"
       x="400.79083"
       y="312.61682"
       ry="80.158203" />
    <text
       xml:space="preserve"
       style="font-style:normal;font-variant:normal;font-weight:normal;font-stretch:normal;font-size:30px;line-height:125%;font-family:sans-serif;-inkscape-font-specification:'sans-serif, Normal';text-align:start;letter-spacing:0px;word-spacing:0px;writing-mode:lr-tb;text-anchor:start;fill:#000000;fill-opacity:1;stroke:none;stroke-width:1px;stroke-linecap:butt;stroke-linejoin:miter;stroke-opacity:1"
       x="188.94426"
       y="199.25027"
       id="text26587"
       sodipodi:linespacing="125%"><tspan
         sodipodi:role="line"
         id="tspan26589"
         x="188.94426"
         y="199.25027">GKS</tspan></text>
    <text
       xml:space="preserve"
       style="font-size:30px;font-style:normal;font-variant:normal;font-weight:normal;font-stretch:normal;text-align:start;line-height:125%;letter-spacing:0px;word-spacing:0px;writing-mode:lr-tb;text-anchor:start;fill:#000000;fill-opacity:1;stroke:none;font-family:sans-serif;-inkscape-font-specification:'sans-serif, Normal'"
       x="487.8197"
       y="458.04663"
       id="text26591"
       sodipodi:linespacing="125%"><tspan
         sodipodi:role="line"
         id="tspan26593"
         x="487.8197"
         y="458.04663">SA/SST</tspan></text>
    <g
       transform="translate(62.981417,69.852117)"
       id="g3178">
      <g
         style="font-style:normal;font-variant:normal;font-weight:normal;font-stretch:normal;letter-spacing:normal;word-spacing:normal;text-anchor:start;fill:none;stroke:#000000;stroke-width:1;stroke-linecap:butt;stroke-linejoin:miter;stroke-miterlimit:10.43299961;stroke-opacity:1;stroke-dasharray:none;stroke-dashoffset:0"
         id="g3180"
         transform="matrix(1.0629921,0,0,-1.0629921,-186.02362,789.27165)"
         xml:space="preserve"
         stroke-miterlimit="10.433"
         font-style="normal"
         font-variant="normal"
         font-weight="normal"
         font-stretch="normal"
         font-size-adjust="none"
         letter-spacing="normal"
         word-spacing="normal"><path
           style="fill:#000000;stroke-width:0"
           inkscape:connector-curvature="0"
           d="m 457.99,402.29 -0.01,-0.03 -0.01,-0.04 -0.01,-0.03 -0.01,-0.04 -0.01,-0.03 0,-0.03 -0.01,-0.03 -0.01,-0.02 0,-0.03 -0.01,-0.02 0,-0.03 0,-0.02 -0.01,-0.02 0,-0.02 0,-0.02 -0.01,-0.01 0,-0.02 0,-0.02 0,-0.01 -0.01,-0.02 0,-0.01 0,-0.01 0,-0.01 0,-0.02 0,-0.01 0,-0.01 0,-0.01 0,0 0,-0.02 0,-0.02 c 0,-0.56 0.45,-0.86 0.92,-0.86 0.53,0 1.05,0.3 1.28,1.11 0.42,1.63 0.17,0.71 0.56,2.35 l 0.61,2.39 c 0.97,-0.6 2.14,-0.75 3.04,-0.75 1.59,0 2.92,0.75 4.01,1.84 0.45,-1.48 2.11,-1.84 2.94,-1.84 1,0 1.67,0.58 2.19,1.4 0.65,0.97 1,2.29 1,2.47 0,0.35 -0.43,0.35 -0.52,0.35 -0.45,0 -0.48,-0.16 -0.61,-0.55 -0.44,-1.84 -1.09,-2.81 -1.97,-2.81 -0.69,0 -0.98,0.54 -0.98,1.31 0,0.53 0.76,3.55 1.73,7.37 0.13,0.43 0.13,0.47 0.13,0.6 0,0.55 -0.46,0.87 -0.92,0.87 -1,0 -1.19,-0.84 -1.38,-1.56 -0.3,-1.08 -0.3,-1.12 -0.55,-2.14 -0.26,-1.08 -0.59,-2.37 -0.79,-3.25 -0.18,-0.62 -0.18,-0.67 -0.6,-1.19 -0.79,-1 -1.98,-2.01 -3.56,-2.01 -1.34,0 -2.41,0.51 -2.41,2.28 0,0.58 0.11,1.09 0.32,1.83 0.25,1.09 0.29,1.26 0.54,2.23 l 0.43,1.67 c 0.12,0.53 0.35,1.42 0.35,1.55 0,0.42 -0.32,0.87 -0.92,0.87 -1,0 -1.22,-0.92 -1.29,-1.21 z"
           id="path3182" /><path
           style="fill:#000000;stroke-width:0"
           inkscape:connector-curvature="0"
           d="m 484.47,409.09 h 2.94 c 0.51,0 0.54,0.03 0.67,0.12 0.12,0.11 0.2,0.43 0.2,0.58 0,0.42 -0.37,0.42 -0.8,0.42 h -2.75 l 0.54,2.07 c 0.14,0.65 0.43,1.78 0.43,1.92 0,0.42 -0.31,0.87 -0.92,0.87 -0.42,0 -1.01,-0.28 -1.22,-0.95 -0.12,-0.42 0.17,0.75 -1,-3.91 h -2.95 c -0.5,0 -0.88,0 -0.88,-0.7 0,-0.42 0.35,-0.42 0.8,-0.42 h 2.77 l -1.47,-5.84 c -0.13,-0.55 -0.33,-1.33 -0.33,-1.63 0,-1.42 1.33,-2.42 3.06,-2.42 3.02,0 4.86,3.37 4.86,3.87 0,0.35 -0.42,0.35 -0.51,0.35 -0.41,0 -0.46,-0.1 -0.58,-0.42 -0.83,-1.8 -2.38,-2.94 -3.66,-2.94 -0.79,0 -1.05,0.56 -1.05,1.31 0,0.41 0.02,0.47 0.07,0.7 z"
           id="path3184" /></g>    </g>
    <path
       sodipodi:nodetypes="ccc"
       transform="translate(-4.9229925e-6,0)"
       inkscape:connector-curvature="0"
       id="path3261"
       d="m 290,262.36218 250,0 10e-6,50.00001"
       style="fill:none;stroke:#000000;stroke-width:2.00000004000000020;stroke-linecap:butt;stroke-linejoin:miter;stroke-opacity:1;stroke-miterlimit:4;stroke-dasharray:none;marker-end:url(#Arrow1Mend)" />
    <path
       transform="translate(-4.9229925e-6,0)"
       inkscape:connector-curvature="0"
       id="path3263"
       d="m 150,632.36218 -40,0 0,-370 40,0"
       style="fill:none;stroke:#000000;stroke-width:2.00000004000000020;stroke-linecap:butt;stroke-linejoin:miter;stroke-opacity:1;stroke-miterlimit:4;stroke-dasharray:none;marker-end:url(#Arrow1Mend)" />
    <g
       id="g4490"
       transform="translate(-67.561884,-2.2902333)">
      <g
         word-spacing="normal"
         letter-spacing="normal"
         font-size-adjust="none"
         font-stretch="normal"
         font-weight="normal"
         font-variant="normal"
         font-style="normal"
         stroke-miterlimit="10.433"
         xml:space="preserve"
         transform="matrix(1.0629921,0,0,-1.0629921,-186.02362,789.27165)"
         id="content"
         style="font-style:normal;font-variant:normal;font-weight:normal;font-stretch:normal;letter-spacing:normal;word-spacing:normal;text-anchor:start;fill:none;stroke:#000000;stroke-width:1;stroke-linecap:butt;stroke-linejoin:miter;stroke-miterlimit:10.43299961;stroke-opacity:1;stroke-dasharray:none;stroke-dashoffset:0"><path
           id="path4493"
           d="m 457.99,402.29 -0.01,-0.03 -0.01,-0.04 -0.01,-0.03 -0.01,-0.04 -0.01,-0.03 0,-0.03 -0.01,-0.03 -0.01,-0.02 0,-0.03 -0.01,-0.02 0,-0.03 0,-0.02 -0.01,-0.02 0,-0.02 0,-0.02 -0.01,-0.01 0,-0.02 0,-0.02 0,-0.01 -0.01,-0.02 0,-0.01 0,-0.01 0,-0.01 0,-0.02 0,-0.01 0,-0.01 0,-0.01 0,0 0,-0.02 0,-0.02 c 0,-0.56 0.45,-0.86 0.92,-0.86 0.53,0 1.05,0.3 1.28,1.11 0.42,1.63 0.17,0.71 0.56,2.35 l 0.61,2.39 c 0.97,-0.6 2.14,-0.75 3.04,-0.75 1.59,0 2.92,0.75 4.01,1.84 0.45,-1.48 2.11,-1.84 2.94,-1.84 1,0 1.67,0.58 2.19,1.4 0.65,0.97 1,2.29 1,2.47 0,0.35 -0.43,0.35 -0.52,0.35 -0.45,0 -0.48,-0.16 -0.61,-0.55 -0.44,-1.84 -1.09,-2.81 -1.97,-2.81 -0.69,0 -0.98,0.54 -0.98,1.31 0,0.53 0.76,3.55 1.73,7.37 0.13,0.43 0.13,0.47 0.13,0.6 0,0.55 -0.46,0.87 -0.92,0.87 -1,0 -1.19,-0.84 -1.38,-1.56 -0.3,-1.08 -0.3,-1.12 -0.55,-2.14 -0.26,-1.08 -0.59,-2.37 -0.79,-3.25 -0.18,-0.62 -0.18,-0.67 -0.6,-1.19 -0.79,-1 -1.98,-2.01 -3.56,-2.01 -1.34,0 -2.41,0.51 -2.41,2.28 0,0.58 0.11,1.09 0.32,1.83 0.25,1.09 0.29,1.26 0.54,2.23 l 0.43,1.67 c 0.12,0.53 0.35,1.42 0.35,1.55 0,0.42 -0.32,0.87 -0.92,0.87 -1,0 -1.22,-0.92 -1.29,-1.21 z"
           inkscape:connector-curvature="0"
           style="fill:#000000;stroke-width:0" /><path
           id="path4495"
           d="m 484.94,413.79 0,0.01 0.01,0.02 0,0.01 0,0.02 0.01,0.01 0,0.01 0.01,0.02 0,0.01 0.01,0.03 0,0.02 0.01,0.02 0,0.02 0.01,0.02 0,0.02 0,0.02 0.01,0.02 0,0.01 0,0.02 0.01,0.01 0,0.02 0,0.01 0,0.01 0,0.01 0.01,0.01 0,0.01 0,0.02 0,0.02 0,0.02 0,0.02 0,0.02 0,0.01 0,0.01 c 0,0.42 -0.37,0.42 -0.76,0.41 l -3.07,-0.24 c -0.42,-0.01 -0.48,-0.04 -0.61,-0.14 -0.09,-0.12 -0.17,-0.42 -0.17,-0.58 0,-0.42 0.41,-0.42 0.75,-0.42 0.88,0 1.08,-0.08 1.35,-0.17 0,-0.2 -0.02,-0.47 -0.1,-0.77 l -3.01,-11.96 c -0.08,-0.27 -0.13,-0.5 -0.13,-0.85 0,-1.5 1.47,-2.42 3.02,-2.42 0.82,0 1.5,0.38 2.09,1.2 0.72,1.02 1.09,2.52 1.09,2.68 0,0.34 -0.42,0.34 -0.53,0.34 -0.43,0 -0.47,-0.16 -0.59,-0.55 -0.39,-1.62 -1,-2.81 -1.97,-2.81 -0.69,0 -0.98,0.55 -0.98,1.31 0,0.28 0.01,0.55 0.09,0.8 z"
           inkscape:connector-curvature="0"
           style="fill:#000000;stroke-width:0" /></g>    </g>
  </g>
  <g
     transform="translate(-91.609332,101.91538)"
     id="g27886">
    <g
       style="font-style:normal;font-variant:normal;font-weight:normal;font-stretch:normal;letter-spacing:normal;word-spacing:normal;text-anchor:start;fill:none;fill-opacity:1;fill-rule:evenodd;stroke:#000000;stroke-linecap:butt;stroke-linejoin:miter;stroke-miterlimit:10.43299961;stroke-dasharray:none;stroke-dashoffset:0;stroke-opacity:1"
       id="g3072"
       transform="matrix(1.0629921,0,0,-1.0629921,-186.02362,789.27165)"
       xml:space="preserve"
       stroke-miterlimit="10.433"
       font-style="normal"
       font-variant="normal"
       font-weight="normal"
       font-stretch="normal"
       font-size-adjust="none"
       letter-spacing="normal"
       word-spacing="normal"><path
         style="fill:#000000;stroke-width:0"
         inkscape:connector-curvature="0"
         d="m 470.16,424.78 8.38,0 c 0.65,0 2.43,0 2.43,1.7 0,1.19 -1.04,1.19 -1.98,1.19 l -13.95,0 c -1,0 -2.94,0 -5.13,-2.35 -1.66,-1.78 -3.05,-4.17 -3.05,-4.48 0,-0.05 0,-0.48 0.6,-0.48 0.4,0 0.5,0.18 0.79,0.59 2.46,3.83 5.29,3.83 6.33,3.83 l 4.14,0 -4.89,-15.99 c -0.19,-0.59 -0.48,-1.64 -0.48,-1.84 0,-0.55 0.34,-1.34 1.44,-1.34 1.64,0 1.89,1.39 2.04,2.14 z"
         id="path27889" /></g>  </g>
  <g
     transform="matrix(0.67165774,0,0,0.58500968,-4.1991001,67.045862)"
     id="g27971">
    <g
       style="font-style:normal;font-variant:normal;font-weight:normal;font-stretch:normal;letter-spacing:normal;word-spacing:normal;text-anchor:start;fill:none;fill-opacity:1;fill-rule:evenodd;stroke:#000000;stroke-linecap:butt;stroke-linejoin:miter;stroke-miterlimit:10.43299961;stroke-dasharray:none;stroke-dashoffset:0;stroke-opacity:1"
       word-spacing="normal"
       letter-spacing="normal"
       font-size-adjust="none"
       font-stretch="normal"
       font-weight="normal"
       font-variant="normal"
       font-style="normal"
       stroke-miterlimit="10.433"
       xml:space="preserve"
       transform="matrix(1.0629921,0,0,-1.0629921,-186.02362,789.27165)"
       id="g27973"><path
         style="fill:#000000;stroke-width:0"
         inkscape:connector-curvature="0"
         id="path27975"
         d="m 501.21,434.45 0.23,0.4 0.24,0.4 0.24,0.38 0.24,0.37 0.13,0.18 0.13,0.17 0.14,0.17 0.13,0.16 0.14,0.16 0.15,0.16 0.15,0.15 0.16,0.14 0.16,0.14 0.17,0.13 0.17,0.13 0.18,0.12 0.19,0.11 0.19,0.11 0.2,0.1 0.21,0.09 0.22,0.09 0.23,0.08 0.24,0.07 0.25,0.06 0.25,0.05 0.27,0.05 0.28,0.04 0.29,0.02 c 0.45,0.05 0.95,0.05 0.95,1 0,0.19 -0.2,0.55 -0.61,0.55 -1.19,0 -2.58,-0.16 -3.83,-0.16 -1.7,0 -3.55,0.16 -5.19,0.16 -0.29,0 -0.93,0 -0.93,-0.95 0,-0.55 0.43,-0.6 0.73,-0.6 1.2,-0.04 2.95,-0.45 2.95,-1.93 0,-0.55 -0.25,-0.96 -0.65,-1.66 l -13.46,-23.45 -1.84,24.7 c -0.05,1 -0.14,2.3 3.48,2.34 0.86,0 1.36,0 1.36,1 0,0.5 -0.56,0.55 -0.75,0.55 -2,0 -4.09,-0.16 -6.07,-0.16 -1.16,0 -4.1,0.16 -5.24,0.16 -0.3,0 -0.95,0 -0.95,-1 0,-0.55 0.5,-0.55 1.2,-0.55 2.19,0 2.53,-0.29 2.64,-1.25 l 0.3,-3.82 -12.61,-21.97 -1.89,25.25 c 0,0.59 0,1.75 3.78,1.79 0.5,0 1.05,0 1.05,1 0,0.55 -0.6,0.55 -0.69,0.55 -2,0 -4.09,-0.16 -6.13,-0.16 -1.75,0 -3.54,0.16 -5.23,0.16 -0.25,0 -0.91,0 -0.91,-0.95 0,-0.6 0.46,-0.6 1.25,-0.6 2.5,0 2.55,-0.45 2.64,-1.84 l 2.25,-30.44 c 0.05,-0.9 0.1,-1.29 0.8,-1.29 0.6,0 0.74,0.29 1.19,1.04 l 14.66,25.41 1.84,-25.16 c 0.09,-1.04 0.19,-1.29 0.8,-1.29 0.64,0 0.93,0.5 1.18,0.93 z" /><path
         style="fill:#000000;stroke-width:0"
         inkscape:connector-curvature="0"
         id="path27977"
         d="m 506.81,400.95 -0.01,-0.04 -0.02,-0.05 -0.01,-0.04 -0.02,-0.05 -0.01,-0.05 -0.02,-0.06 -0.01,-0.05 -0.01,-0.05 -0.03,-0.11 -0.03,-0.11 -0.03,-0.12 -0.03,-0.1 -0.01,-0.06 -0.01,-0.05 -0.01,-0.05 -0.01,-0.05 -0.01,-0.05 -0.01,-0.04 -0.01,-0.05 -0.01,-0.04 -0.01,-0.03 -0.01,-0.04 0,-0.03 -0.01,-0.03 0,-0.02 0,-0.02 0,-0.01 0,-0.01 0,-0.01 -0.01,0 c 0,-0.77 0.63,-1.11 1.19,-1.11 0.63,0 1.17,0.45 1.36,0.76 0.17,0.32 0.45,1.43 0.63,2.16 0.17,0.66 0.54,2.27 0.76,3.14 0.21,0.77 0.42,1.53 0.6,2.33 0.37,1.44 0.45,1.7 1.45,3.14 0.98,1.39 2.62,3.2 5.23,3.2 2.02,0 2.05,-1.78 2.05,-2.44 0,-2.09 -1.48,-5.95 -2.05,-7.42 -0.39,-0.98 -0.53,-1.29 -0.53,-1.89 0,-1.84 1.55,-2.98 3.32,-2.98 3.48,0 5.01,4.79 5.01,5.33 0,0.45 -0.45,0.45 -0.55,0.45 -0.5,0 -0.53,-0.2 -0.67,-0.59 -0.79,-2.79 -2.29,-4.22 -3.69,-4.22 -0.73,0 -0.87,0.48 -0.87,1.22 0,0.79 0.17,1.25 0.8,2.82 0.42,1.08 1.85,4.77 1.85,6.72 0,3.39 -2.68,3.97 -4.53,3.97 -2.89,0 -4.84,-1.76 -5.89,-3.16 -0.25,2.4 -2.29,3.16 -3.73,3.16 -1.5,0 -2.3,-1.08 -2.75,-1.87 -0.77,-1.29 -1.25,-3.29 -1.25,-3.46 0,-0.45 0.48,-0.45 0.59,-0.45 0.49,0 0.52,0.11 0.77,1.05 0.51,2.06 1.19,3.76 2.55,3.76 0.9,0 1.14,-0.76 1.14,-1.7 0,-0.67 -0.32,-1.95 -0.57,-2.89 -0.23,-0.95 -0.57,-2.38 -0.76,-3.14 z" /></g>  </g>
  <g
     transform="matrix(0.56773729,0,0,0.53662251,23.655213,451.89287)"
     id="g28067">
    <g
       style="font-style:normal;font-variant:normal;font-weight:normal;font-stretch:normal;letter-spacing:normal;word-spacing:normal;text-anchor:start;fill:none;fill-opacity:1;fill-rule:evenodd;stroke:#000000;stroke-linecap:butt;stroke-linejoin:miter;stroke-miterlimit:10.43299961;stroke-dasharray:none;stroke-dashoffset:0;stroke-opacity:1"
       id="g28069"
       transform="matrix(1.0629921,0,0,-1.0629921,-186.02362,789.27165)"
       xml:space="preserve"
       stroke-miterlimit="10.433"
       font-style="normal"
       font-variant="normal"
       font-weight="normal"
       font-stretch="normal"
       font-size-adjust="none"
       letter-spacing="normal"
       word-spacing="normal"><path
         style="fill:#000000;stroke-width:0"
         inkscape:connector-curvature="0"
         d="m 501.21,434.45 0.23,0.4 0.24,0.4 0.24,0.38 0.24,0.37 0.13,0.18 0.13,0.17 0.14,0.17 0.13,0.16 0.14,0.16 0.15,0.16 0.15,0.15 0.16,0.14 0.16,0.14 0.17,0.13 0.17,0.13 0.18,0.12 0.19,0.11 0.19,0.11 0.2,0.1 0.21,0.09 0.22,0.09 0.23,0.08 0.24,0.07 0.25,0.06 0.25,0.05 0.27,0.05 0.28,0.04 0.29,0.02 c 0.45,0.05 0.95,0.05 0.95,1 0,0.19 -0.2,0.55 -0.61,0.55 -1.19,0 -2.58,-0.16 -3.83,-0.16 -1.7,0 -3.55,0.16 -5.19,0.16 -0.29,0 -0.93,0 -0.93,-0.95 0,-0.55 0.43,-0.6 0.73,-0.6 1.2,-0.04 2.95,-0.45 2.95,-1.93 0,-0.55 -0.25,-0.96 -0.65,-1.66 l -13.46,-23.45 -1.84,24.7 c -0.05,1 -0.14,2.3 3.48,2.34 0.86,0 1.36,0 1.36,1 0,0.5 -0.56,0.55 -0.75,0.55 -2,0 -4.09,-0.16 -6.07,-0.16 -1.16,0 -4.1,0.16 -5.24,0.16 -0.3,0 -0.95,0 -0.95,-1 0,-0.55 0.5,-0.55 1.2,-0.55 2.19,0 2.53,-0.29 2.64,-1.25 l 0.3,-3.82 -12.61,-21.97 -1.89,25.25 c 0,0.59 0,1.75 3.78,1.79 0.5,0 1.05,0 1.05,1 0,0.55 -0.6,0.55 -0.69,0.55 -2,0 -4.09,-0.16 -6.13,-0.16 -1.75,0 -3.54,0.16 -5.23,0.16 -0.25,0 -0.91,0 -0.91,-0.95 0,-0.6 0.46,-0.6 1.25,-0.6 2.5,0 2.55,-0.45 2.64,-1.84 l 2.25,-30.44 c 0.05,-0.9 0.1,-1.29 0.8,-1.29 0.6,0 0.74,0.29 1.19,1.04 l 14.66,25.41 1.84,-25.16 c 0.09,-1.04 0.19,-1.29 0.8,-1.29 0.64,0 0.93,0.5 1.18,0.93 z"
         id="path28071" /><path
         style="fill:#000000;stroke-width:0"
         inkscape:connector-curvature="0"
         d="m 506.81,400.95 -0.01,-0.04 -0.02,-0.05 -0.01,-0.04 -0.02,-0.05 -0.01,-0.05 -0.02,-0.06 -0.01,-0.05 -0.01,-0.05 -0.03,-0.11 -0.03,-0.11 -0.03,-0.12 -0.03,-0.1 -0.01,-0.06 -0.01,-0.05 -0.01,-0.05 -0.01,-0.05 -0.01,-0.05 -0.01,-0.04 -0.01,-0.05 -0.01,-0.04 -0.01,-0.03 -0.01,-0.04 0,-0.03 -0.01,-0.03 0,-0.02 0,-0.02 0,-0.01 0,-0.01 0,-0.01 -0.01,0 c 0,-0.77 0.63,-1.11 1.19,-1.11 0.63,0 1.17,0.45 1.36,0.76 0.17,0.32 0.45,1.43 0.63,2.16 0.17,0.66 0.54,2.27 0.76,3.14 0.21,0.77 0.42,1.53 0.6,2.33 0.37,1.44 0.45,1.7 1.45,3.14 0.98,1.39 2.62,3.2 5.23,3.2 2.02,0 2.05,-1.78 2.05,-2.44 0,-2.09 -1.48,-5.95 -2.05,-7.42 -0.39,-0.98 -0.53,-1.29 -0.53,-1.89 0,-1.84 1.55,-2.98 3.32,-2.98 3.48,0 5.01,4.79 5.01,5.33 0,0.45 -0.45,0.45 -0.55,0.45 -0.5,0 -0.53,-0.2 -0.67,-0.59 -0.79,-2.79 -2.29,-4.22 -3.69,-4.22 -0.73,0 -0.87,0.48 -0.87,1.22 0,0.79 0.17,1.25 0.8,2.82 0.42,1.08 1.85,4.77 1.85,6.72 0,3.39 -2.68,3.97 -4.53,3.97 -2.89,0 -4.84,-1.76 -5.89,-3.16 -0.25,2.4 -2.29,3.16 -3.73,3.16 -1.5,0 -2.3,-1.08 -2.75,-1.87 -0.77,-1.29 -1.25,-3.29 -1.25,-3.46 0,-0.45 0.48,-0.45 0.59,-0.45 0.49,0 0.52,0.11 0.77,1.05 0.51,2.06 1.19,3.76 2.55,3.76 0.9,0 1.14,-0.76 1.14,-1.7 0,-0.67 -0.32,-1.95 -0.57,-2.89 -0.23,-0.95 -0.57,-2.38 -0.76,-3.14 z"
         id="path28073" /><path
         style="fill:#000000;stroke-width:0"
         inkscape:connector-curvature="0"
         d="m 543.3,406.64 10.65,0 c 0.46,0 1.28,0 1.28,0.84 0,0.86 -0.79,0.86 -1.28,0.86 l -10.65,0 0,10.7 c 0,0.46 0,1.28 -0.85,1.28 -0.87,0 -0.87,-0.79 -0.87,-1.28 l 0,-10.7 -10.69,0 c -0.45,0 -1.3,0 -1.3,-0.83 0,-0.87 0.8,-0.87 1.3,-0.87 l 10.69,0 0,-10.71 c 0,-0.45 0,-1.28 0.84,-1.28 0.88,0 0.88,0.8 0.88,1.28 z"
         id="path28075" /><path
         style="fill:#000000;stroke-width:0"
         inkscape:connector-curvature="0"
         d="m 569.43,420.92 0,0.04 0,0.04 0,0.05 0,0.04 -0.01,0.03 0,0.04 0,0.04 0,0.03 0,0.04 0,0.03 0,0.03 -0.01,0.03 0,0.03 0,0.03 -0.01,0.03 0,0.02 0,0.03 -0.01,0.02 0,0.03 -0.01,0.02 -0.01,0.04 -0.02,0.04 -0.01,0.03 -0.02,0.03 -0.02,0.03 -0.03,0.03 -0.03,0.02 -0.03,0.02 -0.03,0.02 -0.04,0.01 -0.04,0.01 -0.04,0.02 -0.03,0 -0.02,0 -0.03,0.01 -0.02,0 -0.03,0.01 -0.03,0 -0.03,0 -0.03,0 -0.03,0 -0.03,0.01 -0.04,0 -0.03,0 -0.04,0 -0.04,0 -0.04,0 -0.04,0 -0.04,0 -0.04,0 -0.05,0 -0.04,0 c -2.23,-2.2 -5.39,-2.23 -6.83,-2.23 l 0,-1.25 c 0.85,0 3.14,0 5.05,0.97 l 0,-17.77 c 0,-1.16 0,-1.61 -3.49,-1.61 l -1.31,0 0,-1.25 c 0.63,0.03 4.91,0.14 6.2,0.14 1.08,0 5.47,-0.11 6.24,-0.14 l 0,1.25 -1.33,0 c -3.48,0 -3.48,0.45 -3.48,1.61 z"
         id="path28077" /></g>  </g>
</svg>
