<?xml version="1.0" encoding="UTF-8" standalone="no"?>
<!-- Created with Inkscape (http://www.inkscape.org/) -->

<svg
   xmlns:dc="http://purl.org/dc/elements/1.1/"
   xmlns:cc="http://creativecommons.org/ns#"
   xmlns:rdf="http://www.w3.org/1999/02/22-rdf-syntax-ns#"
   xmlns:svg="http://www.w3.org/2000/svg"
   xmlns="http://www.w3.org/2000/svg"
   xmlns:sodipodi="http://sodipodi.sourceforge.net/DTD/sodipodi-0.dtd"
   xmlns:inkscape="http://www.inkscape.org/namespaces/inkscape"
   width="210mm"
   height="297mm"
   viewBox="0 0 744.09448819 1052.3622047"
   id="svg3574"
   version="1.1"
   inkscape:version="0.48.4 r9939"
   sodipodi:docname="reconstruction.svg">
  <sodipodi:namedview
     id="base"
     pagecolor="#ffffff"
     bordercolor="#666666"
     borderopacity="1.0"
     inkscape:pageopacity="0.0"
     inkscape:pageshadow="2"
     inkscape:zoom="0.87327348"
     inkscape:cx="339.98398"
     inkscape:cy="526.1811"
     inkscape:document-units="px"
     inkscape:current-layer="layer1"
     showgrid="false"
     inkscape:window-width="1855"
     inkscape:window-height="1056"
     inkscape:window-x="65"
     inkscape:window-y="24"
     inkscape:window-maximized="1" />
  <defs
     id="defs3576">
    <marker
       inkscape:stockid="Arrow1Mstart"
       orient="auto"
       refY="0.0"
       refX="0.0"
       id="Arrow1Mstart"
       style="overflow:visible">
      <path
         id="path4613"
         d="M 0.0,0.0 L 5.0,-5.0 L -12.5,0.0 L 5.0,5.0 L 0.0,0.0 z "
         style="fill-rule:evenodd;stroke:#000000;stroke-width:1.0pt"
         transform="scale(0.4) translate(10,0)" />
    </marker>
    <marker
       inkscape:isstock="true"
       style="overflow:visible;"
       id="Arrow2Mend"
       refX="0.0"
       refY="0.0"
       orient="auto"
       inkscape:stockid="Arrow2Mend">
      <path
         transform="scale(0.6) rotate(180) translate(0,0)"
         d="M 8.7185878,4.0337352 L -2.2072895,0.016013256 L 8.7185884,-4.0017078 C 6.9730900,-1.6296469 6.9831476,1.6157441 8.7185878,4.0337352 z "
         style="fill-rule:evenodd;stroke-width:0.625;stroke-linejoin:round;stroke:#000000;stroke-opacity:1;fill:#000000;fill-opacity:1"
         id="path4419" />
    </marker>
    <marker
       inkscape:isstock="true"
       style="overflow:visible"
       id="marker5053"
       refX="0.0"
       refY="0.0"
       orient="auto"
       inkscape:stockid="DotM">
      <path
         transform="scale(0.4) translate(7.4, 1)"
         style="fill-rule:evenodd;stroke:#000000;stroke-width:1pt;stroke-opacity:1;fill:#000000;fill-opacity:1"
         d="M -2.5,-1.0 C -2.5,1.7600000 -4.7400000,4.0 -7.5,4.0 C -10.260000,4.0 -12.5,1.7600000 -12.5,-1.0 C -12.5,-3.7600000 -10.260000,-6.0 -7.5,-6.0 C -4.7400000,-6.0 -2.5,-3.7600000 -2.5,-1.0 z "
         id="path5055" />
    </marker>
    <marker
       inkscape:stockid="RazorWire"
       id="RazorWire"
       refX="0"
       refY="0"
       orient="auto"
       style="overflow:visible"
       inkscape:isstock="true">
      <path
         id="path4624"
         transform="scale(0.8,0.8)"
         style="fill:#000000;fill-opacity:1;fill-rule:evenodd;stroke:#000000;stroke-width:0.1pt;stroke-opacity:1"
         d="M 0.022727273,-0.74009011 L 0.022727273,0.69740989 L -7.7585227,3.0099099 L 10.678977,3.0099099 L 3.4914773,0.69740989 L 3.4914773,-0.74009011 L 10.741477,-2.8963401 L -7.7272727,-2.8963401 L 0.022727273,-0.74009011 z " />
    </marker>
    <marker
       inkscape:stockid="DotM"
       orient="auto"
       refY="0.0"
       refX="0.0"
       id="DotM"
       style="overflow:visible"
       inkscape:isstock="true">
      <path
         id="path4456"
         d="M -2.5,-1.0 C -2.5,1.7600000 -4.7400000,4.0 -7.5,4.0 C -10.260000,4.0 -12.5,1.7600000 -12.5,-1.0 C -12.5,-3.7600000 -10.260000,-6.0 -7.5,-6.0 C -4.7400000,-6.0 -2.5,-3.7600000 -2.5,-1.0 z "
         style="fill-rule:evenodd;stroke:#000000;stroke-width:1pt;stroke-opacity:1;fill:#000000;fill-opacity:1"
         transform="scale(0.4) translate(7.4, 1)" />
    </marker>
    <marker
       inkscape:stockid="DiamondS"
       orient="auto"
       refY="0.0"
       refX="0.0"
       id="DiamondS"
       style="overflow:visible"
       inkscape:isstock="true">
      <path
         id="path4477"
         d="M 0,-7.0710768 L -7.0710894,0 L 0,7.0710589 L 7.0710462,0 L 0,-7.0710768 z "
         style="fill-rule:evenodd;stroke:#000000;stroke-width:1pt;stroke-opacity:1;fill:#000000;fill-opacity:1"
         transform="scale(0.2)" />
    </marker>
  </defs>
  <metadata
     id="metadata3579">
    <rdf:RDF>
      <cc:Work
         rdf:about="">
        <dc:format>image/svg+xml</dc:format>
        <dc:type
           rdf:resource="http://purl.org/dc/dcmitype/StillImage" />
        <dc:title />
      </cc:Work>
    </rdf:RDF>
  </metadata>
  <g
     inkscape:label="Layer 1"
     inkscape:groupmode="layer"
     id="layer1">
    <path
       style="fill:none;fill-rule:evenodd;stroke:#000000;stroke-width:2;stroke-linecap:butt;stroke-linejoin:miter;stroke-miterlimit:4;stroke-dasharray:none;stroke-opacity:1"
       d="M 297.73033,350.40567 511.86714,311.47171 570.26809,521.02806 444.30526,634.3946 255.36101,635.53972 179.78331,492.40014 Z"
       id="path3584"
       inkscape:connector-curvature="0"
       sodipodi:nodetypes="ccccccc" />
    <circle
       r="4.5804667"
       style="stroke-width:2;stroke-linejoin:miter;stroke-miterlimit:4;stroke-dasharray:none;stroke-dashoffset:0"
       id="path4882"
       cx="366.43732"
       cy="492.40012" />
    <circle
       style="stroke-width:2;stroke-linejoin:miter;stroke-miterlimit:4;stroke-dasharray:none;stroke-dashoffset:0"
       id="path4882-1"
       cx="452.32108"
       cy="408.80664"
       r="4.5804667" />
    <g
       transform="translate(-4.5804666,151.1554)"
       id="g4925">
      <g
         style="font-style:normal;font-variant:normal;font-weight:normal;font-stretch:normal;letter-spacing:normal;word-spacing:normal;text-anchor:start;fill:none;fill-opacity:1;fill-rule:evenodd;stroke:#000000;stroke-linecap:butt;stroke-linejoin:miter;stroke-miterlimit:10.43299961;stroke-dasharray:none;stroke-dashoffset:0;stroke-opacity:1"
         id="content"
         transform="matrix(1.0629921,0,0,-1.0629921,-186.02362,789.27165)"
         xml:space="preserve"
         stroke-miterlimit="10.433"
         font-style="normal"
         font-variant="normal"
         font-weight="normal"
         font-stretch="normal"
         font-size-adjust="none"
         letter-spacing="normal"
         word-spacing="normal" />    </g>
    <path
       inkscape:connector-curvature="0"
       id="path5149"
       d="m 365.30574,494.67669 87.002,-85.84009"
       style="fill:none;stroke:#000000;stroke-width:2.01297927;stroke-linecap:butt;stroke-linejoin:miter;stroke-miterlimit:4;stroke-opacity:1;stroke-dasharray:none;marker-end:url(#Arrow2Mend)" />
    <g
       id="g3270"
       transform="translate(14.886517,120.23725)">
      <g
         word-spacing="normal"
         letter-spacing="normal"
         font-size-adjust="none"
         font-stretch="normal"
         font-weight="normal"
         font-variant="normal"
         font-style="normal"
         stroke-miterlimit="10.433"
         xml:space="preserve"
         transform="matrix(1.0629921,0,0,-1.0629921,-186.02362,789.27165)"
         id="g3272"
         style="font-style:normal;font-variant:normal;font-weight:normal;font-stretch:normal;letter-spacing:normal;word-spacing:normal;text-anchor:start;fill:none;stroke:#000000;stroke-linecap:butt;stroke-linejoin:miter;stroke-miterlimit:10.43299961;stroke-opacity:1;stroke-dasharray:none;stroke-dashoffset:0"><path
           id="path3274"
           d="m 468.39,407.71 0.04,-0.06 0.04,-0.06 0.04,-0.07 0.05,-0.07 0.06,-0.07 0.06,-0.07 0.06,-0.07 0.07,-0.08 0.07,-0.07 0.08,-0.08 0.08,-0.07 0.09,-0.08 0.1,-0.07 0.1,-0.07 0.11,-0.07 0.11,-0.07 0.13,-0.07 0.12,-0.07 0.14,-0.06 0.14,-0.06 0.15,-0.06 0.15,-0.05 0.17,-0.05 0.17,-0.05 0.18,-0.04 0.18,-0.04 0.2,-0.03 0.2,-0.03 0.21,-0.02 0.22,-0.02 0.23,-0.01 0.24,0 c 4.73,0 6.01,7.98 6.01,9.17 0,1.72 -1,2.14 -1.42,2.14 -0.78,0 -1.47,-0.8 -1.47,-1.44 0,-0.47 0.32,-0.72 0.47,-0.84 0.71,-0.53 0.97,-1.17 0.97,-1.91 0,-0.64 -1.25,-6.26 -4.44,-6.26 -0.93,0 -2.39,0.29 -2.39,2.26 0,0.05 0,0.52 0.18,1.27 0.23,1 0.95,3.86 1.29,5.19 0.11,0.39 0.11,0.43 0.11,0.56 0,0.55 -0.45,0.87 -0.92,0.87 -0.41,0 -0.86,-0.22 -1.09,-0.64 -0.11,-0.17 -0.33,-1.09 -0.49,-1.65 -0.34,-1.41 -0.34,-1.47 -0.72,-2.86 -0.2,-0.8 -0.42,-1.74 -0.45,-2.42 0.08,-0.4 0,-0.52 -0.22,-0.94 -0.95,-1.64 -2,-1.64 -2.39,-1.64 -0.37,0 -1.33,0.04 -1.97,0.59 -0.64,0.58 -0.64,1.5 -0.64,1.77 0,1.01 0.31,2.04 1.36,4.57 0.2,0.5 0.36,0.88 0.36,1.3 0,1.22 -1.17,2.2 -2.72,2.2 -2.62,0 -4.01,-3.18 -4.01,-3.85 0,-0.36 0.4,-0.36 0.53,-0.36 0.42,0 0.43,0.12 0.56,0.5 0.53,1.71 1.7,2.86 2.81,2.86 0.49,0 0.75,-0.27 0.75,-0.94 0,-0.5 -0.09,-0.78 -0.42,-1.5 -1.31,-3.24 -1.31,-3.88 -1.31,-4.49 0,-2.86 2.56,-3.51 4.58,-3.51 0.5,0 1.89,0 3.1,1.79 z"
           inkscape:connector-curvature="0"
           style="fill:#000000;stroke-width:0" /><path
           id="path3276"
           d="m 492.48,412.55 0.02,0.08 0.02,0.08 0.02,0.06 0.02,0.07 0.02,0.06 0.02,0.06 0.02,0.06 0.03,0.05 0.02,0.05 0.03,0.04 0.03,0.05 0.04,0.04 0.03,0.03 0.05,0.04 0.04,0.03 0.06,0.03 0.05,0.03 0.07,0.02 0.06,0.02 0.08,0.02 0.04,0.01 0.04,0.01 0.05,0.01 0.04,0 0.05,0.01 0.05,0.01 0.05,0 0.05,0.01 0.06,0.01 0.06,0 0.06,0 0.06,0.01 0.07,0 0.06,0.01 0.07,0 0.08,0 0.07,0 0.08,0.01 0.08,0 0.08,0 0.09,0 0.09,0 0.09,0 0.09,0 c 0.68,0 1.03,0 1.03,0.7 0,0.21 -0.15,0.43 -0.45,0.43 -0.55,0 -1.17,-0.08 -1.72,-0.08 -0.65,0 -1.26,-0.02 -1.92,-0.02 -0.64,0 -1.26,0.02 -1.92,0.02 -0.56,0 -1.22,0.08 -1.78,0.08 -0.16,0 -0.66,0 -0.66,-0.71 0,-0.42 0.38,-0.42 0.89,-0.42 0.11,0 0.58,0 1.08,-0.05 0.67,-0.04 0.7,-0.07 0.7,-0.29 0,-0.13 0,-0.18 -0.06,-0.41 l -3.25,-13 c -0.23,-0.84 -0.25,-1.02 -2.3,-1.02 -0.67,0 -1.01,0 -1.01,-0.7 0,-0.26 0.19,-0.42 0.44,-0.42 0.54,0 1.17,0.08 1.71,0.08 0.66,0 1.29,0.01 1.93,0.01 0.64,0 1.26,-0.01 1.92,-0.01 0.56,0 1.22,-0.08 1.8,-0.08 0.14,0 0.6,0 0.6,0.7 0,0.42 -0.35,0.42 -0.85,0.42 -0.41,0 -0.66,0 -1.08,0.05 -0.71,0.05 -0.72,0.08 -0.72,0.3 0,0.12 0.05,0.33 0.09,0.47 z"
           inkscape:connector-curvature="0"
           style="fill:#000000;stroke-width:0" /></g>    </g>
    <g
       transform="translate(92.754447,24.04745)"
       id="g3331">
      <g
         style="font-style:normal;font-variant:normal;font-weight:normal;font-stretch:normal;letter-spacing:normal;word-spacing:normal;text-anchor:start;fill:none;stroke:#000000;stroke-linecap:butt;stroke-linejoin:miter;stroke-miterlimit:10.43299961;stroke-opacity:1;stroke-dasharray:none;stroke-dashoffset:0"
         id="g3333"
         transform="matrix(1.0629921,0,0,-1.0629921,-186.02362,789.27165)"
         xml:space="preserve"
         stroke-miterlimit="10.433"
         font-style="normal"
         font-variant="normal"
         font-weight="normal"
         font-stretch="normal"
         font-size-adjust="none"
         letter-spacing="normal"
         word-spacing="normal"><path
           style="fill:#000000;stroke-width:0"
           inkscape:connector-curvature="0"
           d="m 468.39,407.71 0.04,-0.06 0.04,-0.06 0.04,-0.07 0.05,-0.07 0.06,-0.07 0.06,-0.07 0.06,-0.07 0.07,-0.08 0.07,-0.07 0.08,-0.08 0.08,-0.07 0.09,-0.08 0.1,-0.07 0.1,-0.07 0.11,-0.07 0.11,-0.07 0.13,-0.07 0.12,-0.07 0.14,-0.06 0.14,-0.06 0.15,-0.06 0.15,-0.05 0.17,-0.05 0.17,-0.05 0.18,-0.04 0.18,-0.04 0.2,-0.03 0.2,-0.03 0.21,-0.02 0.22,-0.02 0.23,-0.01 0.24,0 c 4.73,0 6.01,7.98 6.01,9.17 0,1.72 -1,2.14 -1.42,2.14 -0.78,0 -1.47,-0.8 -1.47,-1.44 0,-0.47 0.32,-0.72 0.47,-0.84 0.71,-0.53 0.97,-1.17 0.97,-1.91 0,-0.64 -1.25,-6.26 -4.44,-6.26 -0.93,0 -2.39,0.29 -2.39,2.26 0,0.05 0,0.52 0.18,1.27 0.23,1 0.95,3.86 1.29,5.19 0.11,0.39 0.11,0.43 0.11,0.56 0,0.55 -0.45,0.87 -0.92,0.87 -0.41,0 -0.86,-0.22 -1.09,-0.64 -0.11,-0.17 -0.33,-1.09 -0.49,-1.65 -0.34,-1.41 -0.34,-1.47 -0.72,-2.86 -0.2,-0.8 -0.42,-1.74 -0.45,-2.42 0.08,-0.4 0,-0.52 -0.22,-0.94 -0.95,-1.64 -2,-1.64 -2.39,-1.64 -0.37,0 -1.33,0.04 -1.97,0.59 -0.64,0.58 -0.64,1.5 -0.64,1.77 0,1.01 0.31,2.04 1.36,4.57 0.2,0.5 0.36,0.88 0.36,1.3 0,1.22 -1.17,2.2 -2.72,2.2 -2.62,0 -4.01,-3.18 -4.01,-3.85 0,-0.36 0.4,-0.36 0.53,-0.36 0.42,0 0.43,0.12 0.56,0.5 0.53,1.71 1.7,2.86 2.81,2.86 0.49,0 0.75,-0.27 0.75,-0.94 0,-0.5 -0.09,-0.78 -0.42,-1.5 -1.31,-3.24 -1.31,-3.88 -1.31,-4.49 0,-2.86 2.56,-3.51 4.58,-3.51 0.5,0 1.89,0 3.1,1.79 z"
           id="path3335" /><path
           style="fill:#000000;stroke-width:0"
           inkscape:connector-curvature="0"
           d="m 492.3,424.28 0,0 0,0 0,0.01 0,0 0.01,0.01 0,0 0,0.01 0,0 0.01,0.01 0,0 0,0.01 0.01,0.01 0,0 0,0.01 0.01,0.01 0,0.01 0,0.01 0.01,0 0,0.01 0,0.01 0.01,0.01 0,0.01 0,0.01 0.01,0.01 0,0.01 0,0.01 0,0.01 0.01,0.01 0,0.01 0,0.01 0,0.02 0,0.01 c 0,0.11 -0.05,0.36 -0.42,0.36 -0.5,0 -6.91,-3.99 -6.91,-12.46 0,-8.45 6.41,-12.47 6.91,-12.47 0.37,0 0.42,0.25 0.42,0.36 0,0.18 -0.11,0.25 -0.2,0.32 -4.41,3.51 -5.21,8.57 -5.21,11.79 0,6.1 2.82,10.11 5.33,11.85 z"
           id="path3337" /><path
           style="fill:#000000;stroke-width:0"
           inkscape:connector-curvature="0"
           d="m 510.22,415.96 -0.05,-0.01 -0.05,-0.02 -0.05,-0.02 -0.05,-0.02 -0.04,-0.02 -0.05,-0.02 -0.04,-0.02 -0.04,-0.03 -0.04,-0.02 -0.04,-0.03 -0.04,-0.02 -0.04,-0.03 -0.03,-0.02 -0.03,-0.03 -0.04,-0.03 -0.03,-0.03 -0.05,-0.06 -0.06,-0.05 -0.05,-0.07 -0.04,-0.06 -0.04,-0.06 -0.03,-0.06 -0.04,-0.06 -0.03,-0.06 -0.02,-0.06 -0.02,-0.06 -0.02,-0.06 -0.02,-0.05 -0.01,-0.06 -0.01,-0.05 -0.01,-0.04 -0.01,-0.05 -0.01,-0.04 0,-0.03 0,-0.03 -0.01,-0.03 0,-0.02 0,-0.01 0,-0.01 0,0 0,-0.01 0,0 0,0 c 0,-0.43 0.3,-1.02 1.11,-1.02 0.7,0 1.55,0.59 1.55,1.69 0,1.47 -1.64,2.04 -2.95,2.04 -1.63,0 -2.68,-1.04 -3.18,-1.7 -0.82,1.42 -2.42,1.7 -3.31,1.7 -3.11,0 -4.87,-2.93 -4.87,-3.85 0,-0.36 0.39,-0.36 0.51,-0.36 0.22,0 0.42,0.03 0.53,0.29 0.74,2.46 2.78,3.07 3.74,3.07 0.81,0 1.76,-0.35 1.76,-1.66 0,-0.63 -0.45,-2.34 -1.29,-5.66 -0.38,-1.42 -1.52,-2.26 -2.6,-2.26 -0.17,0 -0.89,0 -1.48,0.39 1.11,0.4 1.11,1.34 1.11,1.45 0,0.72 -0.55,1.05 -1.1,1.05 -0.62,0 -1.54,-0.5 -1.54,-1.71 0,-1.51 1.7,-2.04 2.97,-2.04 1.37,0 2.48,0.79 3.09,1.7 0.98,-1.5 2.58,-1.7 3.36,-1.7 3.14,0 4.9,2.97 4.9,3.87 0,0.35 -0.42,0.35 -0.51,0.35 -0.44,0 -0.49,-0.16 -0.56,-0.38 -0.72,-2.25 -2.64,-2.98 -3.74,-2.98 -0.75,0 -1.76,0.26 -1.76,1.65 0,0.32 0,0.49 0.2,1.33 0.42,1.75 1.09,4.52 1.3,4.95 0.31,0.66 1.14,1.65 2.4,1.65 0.08,0 0.92,0 1.5,-0.4 z"
           id="path3339" /><path
           style="fill:#000000;stroke-width:0"
           inkscape:connector-curvature="0"
           d="m 524.17,412.43 -0.01,0.4 -0.01,0.38 -0.02,0.38 -0.03,0.37 -0.09,0.73 -0.12,0.7 -0.14,0.68 -0.18,0.65 -0.19,0.62 -0.22,0.6 -0.24,0.57 -0.25,0.55 -0.27,0.52 -0.28,0.5 -0.29,0.47 -0.3,0.45 -0.31,0.43 -0.31,0.39 -0.31,0.38 -0.31,0.35 -0.31,0.32 -0.3,0.3 -0.3,0.28 -0.28,0.25 -0.28,0.22 -0.26,0.21 -0.24,0.18 -0.22,0.15 -0.2,0.13 -0.18,0.11 -0.16,0.08 -0.12,0.06 -0.1,0.04 -0.06,0.01 c -0.41,0 -0.41,-0.3 -0.41,-0.36 0,-0.02 0,-0.17 0.16,-0.32 3.73,-2.96 5.23,-7.29 5.23,-11.78 0,-2.25 -0.42,-4.59 -1.28,-6.64 -1.19,-2.83 -2.76,-4.2 -3.98,-5.2 -0.08,-0.05 -0.13,-0.17 -0.13,-0.27 0,-0.04 0,-0.36 0.41,-0.36 0.5,0 6.89,4 6.89,12.47 z"
           id="path3341" /></g>    </g>
    <g
       id="g3403"
       transform="translate(37.78885,162.60657)">
      <g
         word-spacing="normal"
         letter-spacing="normal"
         font-size-adjust="none"
         font-stretch="normal"
         font-weight="normal"
         font-variant="normal"
         font-style="normal"
         stroke-miterlimit="10.433"
         xml:space="preserve"
         transform="matrix(1.0629921,0,0,-1.0629921,-186.02362,789.27165)"
         id="g3405"
         style="font-style:normal;font-variant:normal;font-weight:normal;font-stretch:normal;letter-spacing:normal;word-spacing:normal;text-anchor:start;fill:none;stroke:#000000;stroke-linecap:butt;stroke-linejoin:miter;stroke-miterlimit:10.43299961;stroke-opacity:1;stroke-dasharray:none;stroke-dashoffset:0"><path
           id="path3407"
           d="m 470.99,415.96 -0.05,-0.01 -0.06,-0.02 -0.04,-0.02 -0.05,-0.02 -0.05,-0.02 -0.04,-0.02 -0.05,-0.02 -0.04,-0.03 -0.04,-0.02 -0.04,-0.03 -0.03,-0.02 -0.04,-0.03 -0.04,-0.02 -0.03,-0.03 -0.03,-0.03 -0.03,-0.03 -0.06,-0.06 -0.05,-0.05 -0.05,-0.07 -0.04,-0.06 -0.04,-0.06 -0.04,-0.06 -0.03,-0.06 -0.03,-0.06 -0.02,-0.06 -0.03,-0.06 -0.02,-0.06 -0.01,-0.05 -0.02,-0.06 -0.01,-0.05 -0.01,-0.04 0,-0.05 -0.01,-0.04 0,-0.03 -0.01,-0.03 0,-0.03 0,-0.02 0,-0.01 0,-0.01 0,0 0,-0.01 0,0 0,0 c 0,-0.43 0.29,-1.02 1.11,-1.02 0.7,0 1.54,0.59 1.54,1.69 0,1.47 -1.64,2.04 -2.95,2.04 -1.62,0 -2.67,-1.04 -3.17,-1.7 -0.83,1.42 -2.42,1.7 -3.31,1.7 -3.11,0 -4.88,-2.93 -4.88,-3.85 0,-0.36 0.39,-0.36 0.52,-0.36 0.22,0 0.42,0.03 0.53,0.29 0.73,2.46 2.78,3.07 3.73,3.07 0.82,0 1.77,-0.35 1.77,-1.66 0,-0.63 -0.45,-2.34 -1.3,-5.66 -0.37,-1.42 -1.51,-2.26 -2.59,-2.26 -0.17,0 -0.89,0 -1.49,0.39 1.11,0.4 1.11,1.34 1.11,1.45 0,0.72 -0.54,1.05 -1.09,1.05 -0.63,0 -1.55,-0.5 -1.55,-1.71 0,-1.51 1.71,-2.04 2.97,-2.04 1.38,0 2.49,0.79 3.09,1.7 0.99,-1.5 2.58,-1.7 3.36,-1.7 3.14,0 4.91,2.97 4.91,3.87 0,0.35 -0.42,0.35 -0.52,0.35 -0.43,0 -0.48,-0.16 -0.56,-0.38 -0.72,-2.25 -2.64,-2.98 -3.73,-2.98 -0.75,0 -1.77,0.26 -1.77,1.65 0,0.32 0,0.49 0.21,1.33 0.42,1.75 1.09,4.52 1.29,4.95 0.31,0.66 1.14,1.65 2.41,1.65 0.08,0 0.92,0 1.5,-0.4 z"
           inkscape:connector-curvature="0"
           style="fill:#000000;stroke-width:0" /><path
           id="path3409"
           d="m 487.07,412.55 0.03,0.08 0.02,0.08 0.02,0.06 0.02,0.07 0.02,0.06 0.02,0.06 0.02,0.06 0.02,0.05 0.03,0.05 0.03,0.04 0.03,0.05 0.03,0.04 0.04,0.03 0.04,0.04 0.05,0.03 0.05,0.03 0.06,0.03 0.06,0.02 0.07,0.02 0.08,0.02 0.04,0.01 0.04,0.01 0.04,0.01 0.05,0 0.05,0.01 0.05,0.01 0.05,0 0.05,0.01 0.06,0.01 0.06,0 0.06,0 0.06,0.01 0.06,0 0.07,0.01 0.07,0 0.07,0 0.08,0 0.08,0.01 0.08,0 0.08,0 0.09,0 0.08,0 0.1,0 0.09,0 c 0.67,0 1.03,0 1.03,0.7 0,0.21 -0.15,0.43 -0.45,0.43 -0.55,0 -1.17,-0.08 -1.72,-0.08 -0.66,0 -1.27,-0.02 -1.92,-0.02 -0.64,0 -1.27,0.02 -1.92,0.02 -0.57,0 -1.22,0.08 -1.78,0.08 -0.16,0 -0.66,0 -0.66,-0.71 0,-0.42 0.37,-0.42 0.89,-0.42 0.11,0 0.58,0 1.08,-0.05 0.67,-0.04 0.7,-0.07 0.7,-0.29 0,-0.13 0,-0.18 -0.06,-0.41 l -3.25,-13 c -0.24,-0.84 -0.25,-1.02 -2.3,-1.02 -0.67,0 -1.01,0 -1.01,-0.7 0,-0.26 0.18,-0.42 0.43,-0.42 0.55,0 1.18,0.08 1.72,0.08 0.66,0 1.28,0.01 1.92,0.01 0.64,0 1.27,-0.01 1.93,-0.01 0.56,0 1.21,-0.08 1.79,-0.08 0.14,0 0.61,0 0.61,0.7 0,0.42 -0.36,0.42 -0.86,0.42 -0.4,0 -0.65,0 -1.08,0.05 -0.7,0.05 -0.71,0.08 -0.71,0.3 0,0.12 0.04,0.33 0.09,0.47 z"
           inkscape:connector-curvature="0"
           style="fill:#000000;stroke-width:0" /></g>    </g>
    <g
       transform="translate(174.05773,59.546067)"
       id="g3479">
      <g
         style="font-style:normal;font-variant:normal;font-weight:normal;font-stretch:normal;letter-spacing:normal;word-spacing:normal;text-anchor:start;fill:none;stroke:#000000;stroke-linecap:butt;stroke-linejoin:miter;stroke-miterlimit:10.43299961;stroke-opacity:1;stroke-dasharray:none;stroke-dashoffset:0"
         id="g3481"
         transform="matrix(1.0629921,0,0,-1.0629921,-186.02362,789.27165)"
         xml:space="preserve"
         stroke-miterlimit="10.433"
         font-style="normal"
         font-variant="normal"
         font-weight="normal"
         font-stretch="normal"
         font-size-adjust="none"
         letter-spacing="normal"
         word-spacing="normal"><path
           style="fill:#000000;stroke-width:0"
           inkscape:connector-curvature="0"
           d="m 470.99,415.96 -0.05,-0.01 -0.06,-0.02 -0.04,-0.02 -0.05,-0.02 -0.05,-0.02 -0.04,-0.02 -0.05,-0.02 -0.04,-0.03 -0.04,-0.02 -0.04,-0.03 -0.03,-0.02 -0.04,-0.03 -0.04,-0.02 -0.03,-0.03 -0.03,-0.03 -0.03,-0.03 -0.06,-0.06 -0.05,-0.05 -0.05,-0.07 -0.04,-0.06 -0.04,-0.06 -0.04,-0.06 -0.03,-0.06 -0.03,-0.06 -0.02,-0.06 -0.03,-0.06 -0.02,-0.06 -0.01,-0.05 -0.02,-0.06 -0.01,-0.05 -0.01,-0.04 0,-0.05 -0.01,-0.04 0,-0.03 -0.01,-0.03 0,-0.03 0,-0.02 0,-0.01 0,-0.01 0,0 0,-0.01 0,0 0,0 c 0,-0.43 0.29,-1.02 1.11,-1.02 0.7,0 1.54,0.59 1.54,1.69 0,1.47 -1.64,2.04 -2.95,2.04 -1.62,0 -2.67,-1.04 -3.17,-1.7 -0.83,1.42 -2.42,1.7 -3.31,1.7 -3.11,0 -4.88,-2.93 -4.88,-3.85 0,-0.36 0.39,-0.36 0.52,-0.36 0.22,0 0.42,0.03 0.53,0.29 0.73,2.46 2.78,3.07 3.73,3.07 0.82,0 1.77,-0.35 1.77,-1.66 0,-0.63 -0.45,-2.34 -1.3,-5.66 -0.37,-1.42 -1.51,-2.26 -2.59,-2.26 -0.17,0 -0.89,0 -1.49,0.39 1.11,0.4 1.11,1.34 1.11,1.45 0,0.72 -0.54,1.05 -1.09,1.05 -0.63,0 -1.55,-0.5 -1.55,-1.71 0,-1.51 1.71,-2.04 2.97,-2.04 1.38,0 2.49,0.79 3.09,1.7 0.99,-1.5 2.58,-1.7 3.36,-1.7 3.14,0 4.91,2.97 4.91,3.87 0,0.35 -0.42,0.35 -0.52,0.35 -0.43,0 -0.48,-0.16 -0.56,-0.38 -0.72,-2.25 -2.64,-2.98 -3.73,-2.98 -0.75,0 -1.77,0.26 -1.77,1.65 0,0.32 0,0.49 0.21,1.33 0.42,1.75 1.09,4.52 1.29,4.95 0.31,0.66 1.14,1.65 2.41,1.65 0.08,0 0.92,0 1.5,-0.4 z"
           id="path3483" /></g>    </g>
    <g
       id="g3559"
       transform="translate(111.07631,162.60657)">
      <g
         word-spacing="normal"
         letter-spacing="normal"
         font-size-adjust="none"
         font-stretch="normal"
         font-weight="normal"
         font-variant="normal"
         font-style="normal"
         stroke-miterlimit="10.433"
         xml:space="preserve"
         transform="matrix(1.0629921,0,0,-1.0629921,-186.02362,789.27165)"
         id="g3561"
         style="font-style:normal;font-variant:normal;font-weight:normal;font-stretch:normal;letter-spacing:normal;word-spacing:normal;text-anchor:start;fill:none;stroke:#000000;stroke-linecap:butt;stroke-linejoin:miter;stroke-miterlimit:10.43299961;stroke-opacity:1;stroke-dasharray:none;stroke-dashoffset:0"><path
           id="path3563"
           d="m 470.99,415.96 -0.05,-0.01 -0.06,-0.02 -0.04,-0.02 -0.05,-0.02 -0.05,-0.02 -0.04,-0.02 -0.05,-0.02 -0.04,-0.03 -0.04,-0.02 -0.04,-0.03 -0.03,-0.02 -0.04,-0.03 -0.04,-0.02 -0.03,-0.03 -0.03,-0.03 -0.03,-0.03 -0.06,-0.06 -0.05,-0.05 -0.05,-0.07 -0.04,-0.06 -0.04,-0.06 -0.04,-0.06 -0.03,-0.06 -0.03,-0.06 -0.02,-0.06 -0.03,-0.06 -0.02,-0.06 -0.01,-0.05 -0.02,-0.06 -0.01,-0.05 -0.01,-0.04 0,-0.05 -0.01,-0.04 0,-0.03 -0.01,-0.03 0,-0.03 0,-0.02 0,-0.01 0,-0.01 0,0 0,-0.01 0,0 0,0 c 0,-0.43 0.29,-1.02 1.11,-1.02 0.7,0 1.54,0.59 1.54,1.69 0,1.47 -1.64,2.04 -2.95,2.04 -1.62,0 -2.67,-1.04 -3.17,-1.7 -0.83,1.42 -2.42,1.7 -3.31,1.7 -3.11,0 -4.88,-2.93 -4.88,-3.85 0,-0.36 0.39,-0.36 0.52,-0.36 0.22,0 0.42,0.03 0.53,0.29 0.73,2.46 2.78,3.07 3.73,3.07 0.82,0 1.77,-0.35 1.77,-1.66 0,-0.63 -0.45,-2.34 -1.3,-5.66 -0.37,-1.42 -1.51,-2.26 -2.59,-2.26 -0.17,0 -0.89,0 -1.49,0.39 1.11,0.4 1.11,1.34 1.11,1.45 0,0.72 -0.54,1.05 -1.09,1.05 -0.63,0 -1.55,-0.5 -1.55,-1.71 0,-1.51 1.71,-2.04 2.97,-2.04 1.38,0 2.49,0.79 3.09,1.7 0.99,-1.5 2.58,-1.7 3.36,-1.7 3.14,0 4.91,2.97 4.91,3.87 0,0.35 -0.42,0.35 -0.52,0.35 -0.43,0 -0.48,-0.16 -0.56,-0.38 -0.72,-2.25 -2.64,-2.98 -3.73,-2.98 -0.75,0 -1.77,0.26 -1.77,1.65 0,0.32 0,0.49 0.21,1.33 0.42,1.75 1.09,4.52 1.29,4.95 0.31,0.66 1.14,1.65 2.41,1.65 0.08,0 0.92,0 1.5,-0.4 z"
           inkscape:connector-curvature="0"
           style="fill:#000000;stroke-width:0" /><path
           id="path3565"
           d="m 505.4,411.73 0.04,0 0.04,0 0.04,0 0.04,0 0.04,0 0.05,0 0.04,0.01 0.05,0 0.04,0.01 0.05,0 0.04,0.01 0.04,0.01 0.05,0.01 0.04,0.01 0.05,0.01 0.04,0.02 0.04,0.02 0.04,0.02 0.04,0.02 0.03,0.02 0.04,0.03 0.03,0.03 0.03,0.03 0.01,0.02 0.02,0.02 0.01,0.02 0.01,0.02 0.01,0.02 0.01,0.02 0.01,0.02 0.01,0.02 0.01,0.03 0.01,0.02 0.01,0.03 0,0.02 0.01,0.03 0,0.03 0.01,0.03 0,0.03 0,0.03 0,0.03 c 0,0.69 -0.69,0.69 -1.08,0.69 h -16.86 c -0.4,0 -1.08,0 -1.08,-0.69 0,-0.7 0.68,-0.7 1.08,-0.7 z"
           inkscape:connector-curvature="0"
           style="fill:#000000;stroke-width:0" /><path
           id="path3567"
           d="m 533.98,415.96 -0.05,-0.01 -0.05,-0.02 -0.05,-0.02 -0.05,-0.02 -0.04,-0.02 -0.05,-0.02 -0.04,-0.02 -0.04,-0.03 -0.04,-0.02 -0.04,-0.03 -0.04,-0.02 -0.03,-0.03 -0.04,-0.02 -0.03,-0.03 -0.03,-0.03 -0.04,-0.03 -0.05,-0.06 -0.06,-0.05 -0.04,-0.07 -0.05,-0.06 -0.04,-0.06 -0.03,-0.06 -0.04,-0.06 -0.02,-0.06 -0.03,-0.06 -0.02,-0.06 -0.02,-0.06 -0.02,-0.05 -0.01,-0.06 -0.01,-0.05 -0.01,-0.04 -0.01,-0.05 0,-0.04 -0.01,-0.03 0,-0.03 0,-0.03 -0.01,-0.02 0,-0.01 0,-0.01 0,0 0,-0.01 0,0 0,0 c 0,-0.43 0.3,-1.02 1.11,-1.02 0.71,0 1.55,0.59 1.55,1.69 0,1.47 -1.64,2.04 -2.95,2.04 -1.63,0 -2.67,-1.04 -3.17,-1.7 -0.83,1.42 -2.43,1.7 -3.32,1.7 -3.11,0 -4.87,-2.93 -4.87,-3.85 0,-0.36 0.39,-0.36 0.51,-0.36 0.22,0 0.42,0.03 0.53,0.29 0.74,2.46 2.79,3.07 3.74,3.07 0.81,0 1.76,-0.35 1.76,-1.66 0,-0.63 -0.45,-2.34 -1.29,-5.66 -0.38,-1.42 -1.52,-2.26 -2.6,-2.26 -0.17,0 -0.89,0 -1.48,0.39 1.11,0.4 1.11,1.34 1.11,1.45 0,0.72 -0.55,1.05 -1.09,1.05 -0.63,0 -1.55,-0.5 -1.55,-1.71 0,-1.51 1.7,-2.04 2.97,-2.04 1.37,0 2.48,0.79 3.09,1.7 0.99,-1.5 2.58,-1.7 3.36,-1.7 3.14,0 4.91,2.97 4.91,3.87 0,0.35 -0.43,0.35 -0.52,0.35 -0.44,0 -0.48,-0.16 -0.56,-0.38 -0.72,-2.25 -2.64,-2.98 -3.74,-2.98 -0.75,0 -1.76,0.26 -1.76,1.65 0,0.32 0,0.49 0.2,1.33 0.42,1.75 1.1,4.52 1.3,4.95 0.31,0.66 1.14,1.65 2.4,1.65 0.08,0 0.93,0 1.5,-0.4 z"
           inkscape:connector-curvature="0"
           style="fill:#000000;stroke-width:0" /><path
           id="path3569"
           d="m 550.07,412.55 0.03,0.08 0.02,0.08 0.02,0.06 0.02,0.07 0.02,0.06 0.02,0.06 0.02,0.06 0.02,0.05 0.03,0.05 0.03,0.04 0.03,0.05 0.03,0.04 0.04,0.03 0.04,0.04 0.05,0.03 0.05,0.03 0.06,0.03 0.06,0.02 0.07,0.02 0.08,0.02 0.04,0.01 0.04,0.01 0.04,0.01 0.05,0 0.05,0.01 0.05,0.01 0.05,0 0.05,0.01 0.06,0.01 0.06,0 0.06,0 0.06,0.01 0.06,0 0.07,0.01 0.07,0 0.07,0 0.08,0 0.08,0.01 0.08,0 0.08,0 0.09,0 0.08,0 0.1,0 0.09,0 c 0.67,0 1.03,0 1.03,0.7 0,0.21 -0.15,0.43 -0.45,0.43 -0.55,0 -1.17,-0.08 -1.72,-0.08 -0.66,0 -1.26,-0.02 -1.92,-0.02 -0.64,0 -1.27,0.02 -1.92,0.02 -0.57,0 -1.22,0.08 -1.79,0.08 -0.15,0 -0.65,0 -0.65,-0.71 0,-0.42 0.37,-0.42 0.89,-0.42 0.11,0 0.58,0 1.08,-0.05 0.67,-0.04 0.7,-0.07 0.7,-0.29 0,-0.13 0,-0.18 -0.06,-0.41 l -3.25,-13 c -0.24,-0.84 -0.25,-1.02 -2.3,-1.02 -0.67,0 -1.01,0 -1.01,-0.7 0,-0.26 0.18,-0.42 0.43,-0.42 0.55,0 1.17,0.08 1.72,0.08 0.66,0 1.28,0.01 1.92,0.01 0.65,0 1.27,-0.01 1.93,-0.01 0.56,0 1.22,-0.08 1.79,-0.08 0.14,0 0.61,0 0.61,0.7 0,0.42 -0.36,0.42 -0.86,0.42 -0.4,0 -0.65,0 -1.07,0.05 -0.71,0.05 -0.72,0.08 -0.72,0.3 0,0.12 0.04,0.33 0.09,0.47 z"
           inkscape:connector-curvature="0"
           style="fill:#000000;stroke-width:0" /></g>    </g>
    <path
       style="fill:none;stroke:#000000;stroke-width:2.00000004;stroke-linecap:butt;stroke-linejoin:miter;stroke-opacity:1;stroke-miterlimit:4;stroke-dasharray:12.00000025,2.00000004;marker-mid:none;marker-start:url(#Arrow1Mstart);stroke-dashoffset:0"
       d="m 423.69316,459.19176 20.6121,44.65955"
       id="path3613"
       inkscape:connector-curvature="0"
       transform="translate(-4.9229925e-6,0)" />
  </g>
</svg>
