<?xml version="1.0" encoding="UTF-8" standalone="no"?>
<!-- Created with Inkscape (http://www.inkscape.org/) -->

<svg
   xmlns:dc="http://purl.org/dc/elements/1.1/"
   xmlns:cc="http://creativecommons.org/ns#"
   xmlns:rdf="http://www.w3.org/1999/02/22-rdf-syntax-ns#"
   xmlns:svg="http://www.w3.org/2000/svg"
   xmlns="http://www.w3.org/2000/svg"
   xmlns:sodipodi="http://sodipodi.sourceforge.net/DTD/sodipodi-0.dtd"
   xmlns:inkscape="http://www.inkscape.org/namespaces/inkscape"
   width="210mm"
   height="297mm"
   viewBox="0 0 744.09448819 1052.3622047"
   id="svg2"
   version="1.1"
   inkscape:version="0.91 r13725"
   sodipodi:docname="Reconstruction.svg">
  <sodipodi:namedview
     id="base"
     pagecolor="#ffffff"
     bordercolor="#666666"
     borderopacity="1.0"
     inkscape:pageopacity="0.0"
     inkscape:pageshadow="2"
     inkscape:zoom="0.8276618"
     inkscape:cx="193.23024"
     inkscape:cy="574.51002"
     inkscape:document-units="px"
     inkscape:current-layer="layer1"
     showgrid="true"
     inkscape:window-width="1920"
     inkscape:window-height="993"
     inkscape:window-x="0"
     inkscape:window-y="24"
     inkscape:window-maximized="1">
    <inkscape:grid
       type="xygrid"
       id="grid3336" />
  </sodipodi:namedview>
  <defs
     id="defs4">
    <marker
       inkscape:isstock="true"
       style="overflow:visible"
       id="marker4571"
       refX="0.0"
       refY="0.0"
       orient="auto"
       inkscape:stockid="DotM">
      <path
         transform="scale(0.4) translate(7.4, 1)"
         style="fill-rule:evenodd;stroke:#000000;stroke-width:1pt;stroke-opacity:1;fill:#000000;fill-opacity:1"
         d="M -2.5,-1.0 C -2.5,1.7600000 -4.7400000,4.0 -7.5,4.0 C -10.260000,4.0 -12.5,1.7600000 -12.5,-1.0 C -12.5,-3.7600000 -10.260000,-6.0 -7.5,-6.0 C -4.7400000,-6.0 -2.5,-3.7600000 -2.5,-1.0 z "
         id="path4573" />
    </marker>
    <marker
       inkscape:isstock="true"
       style="overflow:visible"
       id="marker4525"
       refX="0.0"
       refY="0.0"
       orient="auto"
       inkscape:stockid="DotM">
      <path
         transform="scale(0.4) translate(7.4, 1)"
         style="fill-rule:evenodd;stroke:#000000;stroke-width:1pt;stroke-opacity:1;fill:#000000;fill-opacity:1"
         d="M -2.5,-1.0 C -2.5,1.7600000 -4.7400000,4.0 -7.5,4.0 C -10.260000,4.0 -12.5,1.7600000 -12.5,-1.0 C -12.5,-3.7600000 -10.260000,-6.0 -7.5,-6.0 C -4.7400000,-6.0 -2.5,-3.7600000 -2.5,-1.0 z "
         id="path4527" />
    </marker>
    <marker
       inkscape:stockid="DotM"
       orient="auto"
       refY="0.0"
       refX="0.0"
       id="marker4473"
       style="overflow:visible"
       inkscape:isstock="true"
       inkscape:collect="always">
      <path
         id="path4475"
         d="M -2.5,-1.0 C -2.5,1.7600000 -4.7400000,4.0 -7.5,4.0 C -10.260000,4.0 -12.5,1.7600000 -12.5,-1.0 C -12.5,-3.7600000 -10.260000,-6.0 -7.5,-6.0 C -4.7400000,-6.0 -2.5,-3.7600000 -2.5,-1.0 z "
         style="fill-rule:evenodd;stroke:#000000;stroke-width:1pt;stroke-opacity:1;fill:#000000;fill-opacity:1"
         transform="scale(0.4) translate(7.4, 1)" />
    </marker>
    <marker
       inkscape:stockid="DotM"
       orient="auto"
       refY="0.0"
       refX="0.0"
       id="DotM"
       style="overflow:visible"
       inkscape:isstock="true">
      <path
         id="path4261"
         d="M -2.5,-1.0 C -2.5,1.7600000 -4.7400000,4.0 -7.5,4.0 C -10.260000,4.0 -12.5,1.7600000 -12.5,-1.0 C -12.5,-3.7600000 -10.260000,-6.0 -7.5,-6.0 C -4.7400000,-6.0 -2.5,-3.7600000 -2.5,-1.0 z "
         style="fill-rule:evenodd;stroke:#000000;stroke-width:1pt;stroke-opacity:1;fill:#000000;fill-opacity:1"
         transform="scale(0.4) translate(7.4, 1)" />
    </marker>
    <inkscape:path-effect
       effect="spiro"
       id="path-effect4191"
       is_visible="true" />
    <inkscape:path-effect
       effect="spiro"
       id="path-effect4187"
       is_visible="true" />
    <inkscape:path-effect
       effect="spiro"
       id="path-effect4183"
       is_visible="true" />
    <inkscape:path-effect
       effect="spiro"
       id="path-effect3348"
       is_visible="true" />
    <inkscape:path-effect
       effect="spiro"
       id="path-effect3344"
       is_visible="true" />
    <inkscape:path-effect
       effect="spiro"
       id="path-effect3340"
       is_visible="true" />
  </defs>
  <metadata
     id="metadata7">
    <rdf:RDF>
      <cc:Work
         rdf:about="">
        <dc:format>image/svg+xml</dc:format>
        <dc:type
           rdf:resource="http://purl.org/dc/dcmitype/StillImage" />
        <dc:title />
      </cc:Work>
    </rdf:RDF>
  </metadata>
  <g
     inkscape:label="Layer 1"
     inkscape:groupmode="layer"
     id="layer1">
    <path
       style="fill:none;fill-rule:evenodd;stroke:#000000;stroke-width:4;stroke-linecap:butt;stroke-linejoin:miter;stroke-opacity:1;stroke-miterlimit:4;stroke-dasharray:none"
       d="m 370,202.3622 0,420"
       id="path4181"
       inkscape:path-effect="#path-effect4183"
       inkscape:original-d="m 370,202.3622 0,420"
       inkscape:connector-curvature="0" />
    <path
       style="fill:none;fill-rule:evenodd;stroke:#000000;stroke-width:4;stroke-linecap:butt;stroke-linejoin:miter;stroke-opacity:1;stroke-miterlimit:4;stroke-dasharray:none;marker-start:url(#marker4525);marker-end:url(#marker4571)"
       d="m 70,432.3622 300,-160"
       id="path4185"
       inkscape:path-effect="#path-effect4187"
       inkscape:original-d="m 70,432.3622 300,-160"
       inkscape:connector-curvature="0" />
    <path
       style="fill:none;fill-rule:evenodd;stroke:#000000;stroke-width:4;stroke-linecap:butt;stroke-linejoin:miter;stroke-miterlimit:4;stroke-dasharray:none;stroke-opacity:1;marker-start:url(#marker4473);marker-end:url(#DotM)"
       d="M 370,492.3622 651.74801,344.11021"
       id="path4189"
       inkscape:path-effect="#path-effect4191"
       inkscape:original-d="M 370,492.3622 651.74801,344.11021"
       inkscape:connector-curvature="0"
       sodipodi:nodetypes="cc" />
    <g
       id="g4887"
       transform="translate(-256.14327,122.03052)">
      <g
         id="content"
         transform="matrix(1.0629921,0,0,-1.0629921,-186.02362,789.27165)"
         xml:space="preserve"
         stroke-miterlimit="10.433"
         font-style="normal"
         font-variant="normal"
         font-weight="normal"
         font-stretch="normal"
         font-size-adjust="none"
         letter-spacing="normal"
         word-spacing="normal"
         style="font-style:normal;font-variant:normal;font-weight:normal;font-stretch:normal;letter-spacing:normal;word-spacing:normal;text-anchor:start;fill:none;fill-opacity:1;fill-rule:evenodd;stroke:#000000;stroke-linecap:butt;stroke-linejoin:miter;stroke-miterlimit:10.43299961;stroke-dasharray:none;stroke-dashoffset:0;stroke-opacity:1"><path
           d="m 479.02,422.89 0.02,0.1 0.02,0.11 0.03,0.11 0.03,0.12 0.03,0.12 0.03,0.12 0.06,0.24 0.06,0.25 0.06,0.25 0.06,0.25 0.06,0.24 0.03,0.12 0.03,0.12 0.02,0.11 0.03,0.11 0.03,0.1 0.02,0.1 0.02,0.1 0.02,0.09 0.02,0.08 0.01,0.08 0.02,0.07 0.01,0.06 0.01,0.06 0.01,0.05 0,0.04 0,0.03 c 0,0.9 -0.7,1.35 -1.44,1.35 -0.6,0 -1.5,-0.4 -1.85,-1.4 -0.15,-0.34 -2.49,-9.86 -2.84,-11.15 -0.34,-1.5 -0.45,-2.39 -0.45,-3.29 0,-0.55 0,-0.65 0.05,-0.9 -1.14,-2.64 -2.64,-4.18 -4.58,-4.18 -3.98,0 -3.98,3.68 -3.98,4.53 0,1.6 0.25,3.54 2.59,9.67 0.54,1.49 0.85,2.19 0.85,3.18 0,2.25 -1.65,4.09 -4.09,4.09 -4.73,0 -6.57,-7.23 -6.57,-7.67 0,-0.5 0.49,-0.5 0.59,-0.5 0.5,0 0.55,0.1 0.8,0.9 1.34,4.63 3.29,6.17 5.03,6.17 0.45,0 1.25,-0.05 1.25,-1.64 0,-1.25 -0.55,-2.64 -0.9,-3.49 -2.19,-5.88 -2.79,-8.17 -2.79,-10.06 0,-4.53 3.34,-6.28 7.07,-6.28 0.85,0 3.19,0 5.18,3.49 1.3,-3.19 4.73,-3.49 6.23,-3.49 3.73,0 5.93,3.14 7.22,6.13 1.7,3.88 3.29,10.56 3.29,12.95 0,2.74 -1.35,3.49 -2.19,3.49 -1.25,0 -2.49,-1.3 -2.49,-2.4 0,-0.64 0.3,-0.94 0.74,-1.34 0.56,-0.55 1.8,-1.84 1.8,-4.23 0,-1.69 -1.44,-6.58 -2.74,-9.12 -1.3,-2.64 -3.04,-4.38 -5.48,-4.38 -2.34,0 -3.68,1.49 -3.68,4.33 0,1.4 0.34,2.94 0.54,3.64 z"
           id="path4890"
           inkscape:connector-curvature="0"
           style="fill:#000000;stroke-width:0" /><path
           d="m 500.83,422.15 0,0.01 0.01,0 0,0 0,0.01 0,0.01 0,0 0.01,0.01 0,0 0,0.02 0.01,0.02 0,0.02 0.01,0.01 0,0.02 0.01,0.03 0.01,0.02 0,0.02 0.01,0.02 0,0.03 0.02,0.04 0.01,0.05 0,0.03 0.01,0.02 0,0.02 0.01,0.02 0,0.02 0.01,0.02 0,0.02 0,0.01 0,0.01 0.01,0.01 0,0 0,0.01 0,0.01 0,0 0,0.01 0,0 0,0 0,0.01 0,0 0,0 c 0,0.18 -0.14,0.49 -0.56,0.49 -0.69,0 -3.59,-0.28 -4.46,-0.35 -0.24,-0.03 -0.73,-0.07 -0.73,-0.8 0,-0.49 0.49,-0.49 0.87,-0.49 1.68,0 1.68,-0.24 1.68,-0.52 0,-0.25 -0.07,-0.46 -0.15,-0.77 l -4.32,-17.23 c -0.1,-0.34 -0.14,-0.73 -0.14,-1.08 0,-2.23 1.99,-3.31 3.66,-3.31 0.84,0 1.89,0.28 2.79,1.85 0.73,1.29 1.22,3.35 1.22,3.48 0,0.46 -0.45,0.46 -0.56,0.46 -0.48,0 -0.55,-0.21 -0.69,-0.84 -0.46,-1.74 -1.12,-3.97 -2.62,-3.97 -0.94,0 -1.18,0.87 -1.18,1.71 0,0.38 0.1,1.04 0.2,1.43 z"
           id="path4892"
           inkscape:connector-curvature="0"
           style="fill:#000000;stroke-width:0" /></g>    </g>
    <g
       id="g4946"
       transform="translate(343.13533,38.663132)">
      <g
         word-spacing="normal"
         letter-spacing="normal"
         font-size-adjust="none"
         font-stretch="normal"
         font-weight="normal"
         font-variant="normal"
         font-style="normal"
         stroke-miterlimit="10.433"
         xml:space="preserve"
         transform="matrix(1.0629921,0,0,-1.0629921,-186.02362,789.27165)"
         id="g4948"
         style="font-style:normal;font-variant:normal;font-weight:normal;font-stretch:normal;letter-spacing:normal;word-spacing:normal;text-anchor:start;fill:none;fill-opacity:1;fill-rule:evenodd;stroke:#000000;stroke-linecap:butt;stroke-linejoin:miter;stroke-miterlimit:10.43299961;stroke-dasharray:none;stroke-dashoffset:0;stroke-opacity:1"><path
           id="path4950"
           d="m 479.02,422.89 0.02,0.1 0.02,0.11 0.03,0.11 0.03,0.12 0.03,0.12 0.03,0.12 0.06,0.24 0.06,0.25 0.06,0.25 0.06,0.25 0.06,0.24 0.03,0.12 0.03,0.12 0.02,0.11 0.03,0.11 0.03,0.1 0.02,0.1 0.02,0.1 0.02,0.09 0.02,0.08 0.01,0.08 0.02,0.07 0.01,0.06 0.01,0.06 0.01,0.05 0,0.04 0,0.03 c 0,0.9 -0.7,1.35 -1.44,1.35 -0.6,0 -1.5,-0.4 -1.85,-1.4 -0.15,-0.34 -2.49,-9.86 -2.84,-11.15 -0.34,-1.5 -0.45,-2.39 -0.45,-3.29 0,-0.55 0,-0.65 0.05,-0.9 -1.14,-2.64 -2.64,-4.18 -4.58,-4.18 -3.98,0 -3.98,3.68 -3.98,4.53 0,1.6 0.25,3.54 2.59,9.67 0.54,1.49 0.85,2.19 0.85,3.18 0,2.25 -1.65,4.09 -4.09,4.09 -4.73,0 -6.57,-7.23 -6.57,-7.67 0,-0.5 0.49,-0.5 0.59,-0.5 0.5,0 0.55,0.1 0.8,0.9 1.34,4.63 3.29,6.17 5.03,6.17 0.45,0 1.25,-0.05 1.25,-1.64 0,-1.25 -0.55,-2.64 -0.9,-3.49 -2.19,-5.88 -2.79,-8.17 -2.79,-10.06 0,-4.53 3.34,-6.28 7.07,-6.28 0.85,0 3.19,0 5.18,3.49 1.3,-3.19 4.73,-3.49 6.23,-3.49 3.73,0 5.93,3.14 7.22,6.13 1.7,3.88 3.29,10.56 3.29,12.95 0,2.74 -1.35,3.49 -2.19,3.49 -1.25,0 -2.49,-1.3 -2.49,-2.4 0,-0.64 0.3,-0.94 0.74,-1.34 0.56,-0.55 1.8,-1.84 1.8,-4.23 0,-1.69 -1.44,-6.58 -2.74,-9.12 -1.3,-2.64 -3.04,-4.38 -5.48,-4.38 -2.34,0 -3.68,1.49 -3.68,4.33 0,1.4 0.34,2.94 0.54,3.64 z"
           inkscape:connector-curvature="0"
           style="fill:#000000;stroke-width:0" /><path
           id="path4952"
           d="m 499.2,406.04 0,0.02 0,0.01 0,0.02 0.01,0.03 0.01,0.02 0,0.03 0.01,0.04 0.01,0.04 0.01,0.04 0.01,0.04 0.01,0.05 0.02,0.05 0.01,0.05 0.01,0.06 0.03,0.12 0.03,0.12 0.04,0.14 0.03,0.14 0.04,0.14 0.04,0.15 0.04,0.16 0.08,0.31 0.07,0.31 0.04,0.15 0.04,0.15 0.04,0.14 0.04,0.14 0.03,0.14 0.04,0.12 0.03,0.12 0.01,0.05 0.01,0.05 0.02,0.05 0.01,0.05 0.01,0.04 0.01,0.04 0.01,0.04 0.01,0.03 0.01,0.03 0.01,0.03 0.01,0.02 0,0.02 0.01,0.02 0,0.01 c 0.07,0.27 1.08,2.02 2.2,2.86 0.38,0.27 1.32,0.97 2.82,0.97 0.35,0 1.22,-0.03 1.92,-0.49 -1.11,-0.31 -1.54,-1.29 -1.54,-1.91 0,-0.77 0.6,-1.3 1.4,-1.3 0.8,0 1.95,0.67 1.95,2.13 0,1.81 -1.92,2.55 -3.69,2.55 -1.82,0 -3.39,-0.74 -4.92,-2.48 -0.63,2.13 -2.76,2.48 -3.59,2.48 -1.29,0 -2.16,-0.81 -2.72,-1.78 -0.8,-1.36 -1.29,-3.39 -1.29,-3.56 0,-0.45 0.49,-0.45 0.59,-0.45 0.49,0 0.52,0.11 0.77,1.05 0.52,2.12 1.18,3.76 2.54,3.76 0.91,0 1.16,-0.77 1.16,-1.71 0,-0.66 -0.32,-1.95 -0.56,-2.89 -0.25,-0.94 -0.6,-2.37 -0.77,-3.14 l -1.12,-4.46 c -0.14,-0.46 -0.34,-1.33 -0.34,-1.43 0,-0.77 0.62,-1.12 1.18,-1.12 0.52,0 1.22,0.31 1.5,1.01 0.07,0.21 0.45,1.75 0.66,2.62 z"
           inkscape:connector-curvature="0"
           style="fill:#000000;stroke-width:0" /></g>    </g>
    <g
       id="g5311"
       transform="translate(-59.202925,-95.449614)">
      <g
         id="g5174">
        <g
           word-spacing="normal"
           letter-spacing="normal"
           font-size-adjust="none"
           font-stretch="normal"
           font-weight="normal"
           font-variant="normal"
           font-style="normal"
           stroke-miterlimit="10.433"
           xml:space="preserve"
           transform="matrix(1.0629921,0,0,-1.0629921,-186.02362,789.27165)"
           id="g5176"
           style="font-style:normal;font-variant:normal;font-weight:normal;font-stretch:normal;letter-spacing:normal;word-spacing:normal;text-anchor:start;fill:none;fill-opacity:1;fill-rule:evenodd;stroke:#000000;stroke-linecap:butt;stroke-linejoin:miter;stroke-miterlimit:10.43299961;stroke-dasharray:none;stroke-dashoffset:0;stroke-opacity:1"><path
             id="path5178"
             d="m 479.02,422.89 0.02,0.1 0.02,0.11 0.03,0.11 0.03,0.12 0.03,0.12 0.03,0.12 0.06,0.24 0.06,0.25 0.06,0.25 0.06,0.25 0.06,0.24 0.03,0.12 0.03,0.12 0.02,0.11 0.03,0.11 0.03,0.1 0.02,0.1 0.02,0.1 0.02,0.09 0.02,0.08 0.01,0.08 0.02,0.07 0.01,0.06 0.01,0.06 0.01,0.05 0,0.04 0,0.03 c 0,0.9 -0.7,1.35 -1.44,1.35 -0.6,0 -1.5,-0.4 -1.85,-1.4 -0.15,-0.34 -2.49,-9.86 -2.84,-11.15 -0.34,-1.5 -0.45,-2.39 -0.45,-3.29 0,-0.55 0,-0.65 0.05,-0.9 -1.14,-2.64 -2.64,-4.18 -4.58,-4.18 -3.98,0 -3.98,3.68 -3.98,4.53 0,1.6 0.25,3.54 2.59,9.67 0.54,1.49 0.85,2.19 0.85,3.18 0,2.25 -1.65,4.09 -4.09,4.09 -4.73,0 -6.57,-7.23 -6.57,-7.67 0,-0.5 0.49,-0.5 0.59,-0.5 0.5,0 0.55,0.1 0.8,0.9 1.34,4.63 3.29,6.17 5.03,6.17 0.45,0 1.25,-0.05 1.25,-1.64 0,-1.25 -0.55,-2.64 -0.9,-3.49 -2.19,-5.88 -2.79,-8.17 -2.79,-10.06 0,-4.53 3.34,-6.28 7.07,-6.28 0.85,0 3.19,0 5.18,3.49 1.3,-3.19 4.73,-3.49 6.23,-3.49 3.73,0 5.93,3.14 7.22,6.13 1.7,3.88 3.29,10.56 3.29,12.95 0,2.74 -1.35,3.49 -2.19,3.49 -1.25,0 -2.49,-1.3 -2.49,-2.4 0,-0.64 0.3,-0.94 0.74,-1.34 0.56,-0.55 1.8,-1.84 1.8,-4.23 0,-1.69 -1.44,-6.58 -2.74,-9.12 -1.3,-2.64 -3.04,-4.38 -5.48,-4.38 -2.34,0 -3.68,1.49 -3.68,4.33 0,1.4 0.34,2.94 0.54,3.64 z"
             inkscape:connector-curvature="0"
             style="fill:#000000;stroke-width:0" /><path
             id="path5180"
             d="m 508.99,410.12 0,0.71 -0.02,0.68 -0.03,0.66 -0.04,0.64 -0.06,0.62 -0.08,0.59 -0.09,0.58 -0.11,0.56 -0.12,0.55 -0.15,0.53 -0.17,0.51 -0.19,0.5 -0.21,0.49 -0.24,0.48 -0.26,0.47 -0.14,0.24 -0.15,0.23 c -1.07,1.6 -3.24,2.99 -6.03,2.99 l 0,-0.97 c 1.89,0 3.7,-1.15 4.33,-3.18 0.56,-1.88 0.59,-4.39 0.59,-7.42 0,-2.58 0,-5.17 -0.45,-7.36 -0.7,-3.17 -3.07,-3.94 -4.47,-3.94 l 0,0 c -1.6,0 -3.73,0.94 -4.43,3.8 -0.49,2.06 -0.49,4.92 -0.49,7.5 0,2.54 0,5.19 0.53,7.11 0.73,2.76 2.96,3.49 4.39,3.49 l 0,0.97 c -8.09,0 -8.09,-9.52 -8.09,-12.03 0,-2.51 0,-11.82 8.09,-11.82 8.09,0 8.09,9.31 8.09,11.82 z"
             inkscape:connector-curvature="0"
             style="fill:#000000;stroke-width:0" /><path
             id="path5182"
             d="m 518.35,399.56 0,-0.36 -0.01,-0.37 -0.03,-0.38 -0.05,-0.38 -0.02,-0.2 -0.04,-0.19 -0.04,-0.2 -0.04,-0.19 -0.05,-0.2 -0.05,-0.2 -0.07,-0.2 -0.06,-0.2 -0.08,-0.21 -0.08,-0.2 -0.09,-0.2 -0.1,-0.21 -0.11,-0.2 -0.11,-0.21 -0.13,-0.21 -0.13,-0.2 -0.14,-0.21 -0.15,-0.21 -0.16,-0.21 -0.18,-0.21 -0.18,-0.21 -0.19,-0.21 -0.21,-0.2 -0.21,-0.21 c -0.14,-0.14 -0.24,-0.25 -0.24,-0.42 0,-0.24 0.27,-0.49 0.48,-0.49 0.49,0 3.45,2.79 3.45,6.94 0,2.16 -0.83,3.8 -2.43,3.8 -1.16,0 -1.99,-0.91 -1.99,-1.99 0,-1.11 0.8,-2.02 2.02,-2.02 0.84,0 1.39,0.56 1.42,0.56 z"
             inkscape:connector-curvature="0"
             style="fill:#000000;stroke-width:0" /><path
             id="path5184"
             d="m 532.83,422.15 0,0.01 0.01,0 0,0 0,0.01 0,0.01 0,0 0.01,0.01 0,0 0,0.02 0.01,0.02 0,0.02 0.01,0.01 0,0.02 0.01,0.03 0.01,0.02 0,0.02 0.01,0.02 0,0.03 0.02,0.04 0.01,0.05 0,0.03 0.01,0.02 0,0.02 0.01,0.02 0,0.02 0.01,0.02 0,0.02 0,0.01 0,0.01 0.01,0.01 0,0 0,0.01 0,0.01 0,0 0,0.01 0,0 0,0 0,0.01 0,0 0,0 c 0,0.18 -0.14,0.49 -0.56,0.49 -0.69,0 -3.59,-0.28 -4.46,-0.35 -0.24,-0.03 -0.73,-0.07 -0.73,-0.8 0,-0.49 0.49,-0.49 0.87,-0.49 1.68,0 1.68,-0.24 1.68,-0.52 0,-0.25 -0.07,-0.46 -0.15,-0.77 l -4.32,-17.23 c -0.1,-0.34 -0.14,-0.73 -0.14,-1.08 0,-2.23 1.99,-3.31 3.66,-3.31 0.84,0 1.89,0.28 2.79,1.85 0.73,1.29 1.22,3.35 1.22,3.48 0,0.46 -0.45,0.46 -0.56,0.46 -0.49,0 -0.55,-0.21 -0.69,-0.84 -0.46,-1.74 -1.12,-3.97 -2.62,-3.97 -0.94,0 -1.18,0.87 -1.18,1.71 0,0.38 0.1,1.04 0.2,1.43 z"
             inkscape:connector-curvature="0"
             style="fill:#000000;stroke-width:0" /></g>      </g>
    </g>
    <g
       id="g5258"
       transform="translate(93.033169,165.52655)">
      <g
         word-spacing="normal"
         letter-spacing="normal"
         font-size-adjust="none"
         font-stretch="normal"
         font-weight="normal"
         font-variant="normal"
         font-style="normal"
         stroke-miterlimit="10.433"
         xml:space="preserve"
         transform="matrix(1.0629921,0,0,-1.0629921,-186.02362,789.27165)"
         id="g5260"
         style="font-style:normal;font-variant:normal;font-weight:normal;font-stretch:normal;letter-spacing:normal;word-spacing:normal;text-anchor:start;fill:none;fill-opacity:1;fill-rule:evenodd;stroke:#000000;stroke-linecap:butt;stroke-linejoin:miter;stroke-miterlimit:10.43299961;stroke-dasharray:none;stroke-dashoffset:0;stroke-opacity:1"><path
           id="path5262"
           d="m 479.02,422.89 0.02,0.1 0.02,0.11 0.03,0.11 0.03,0.12 0.03,0.12 0.03,0.12 0.06,0.24 0.06,0.25 0.06,0.25 0.06,0.25 0.06,0.24 0.03,0.12 0.03,0.12 0.02,0.11 0.03,0.11 0.03,0.1 0.02,0.1 0.02,0.1 0.02,0.09 0.02,0.08 0.01,0.08 0.02,0.07 0.01,0.06 0.01,0.06 0.01,0.05 0,0.04 0,0.03 c 0,0.9 -0.7,1.35 -1.44,1.35 -0.6,0 -1.5,-0.4 -1.85,-1.4 -0.15,-0.34 -2.49,-9.86 -2.84,-11.15 -0.34,-1.5 -0.45,-2.39 -0.45,-3.29 0,-0.55 0,-0.65 0.05,-0.9 -1.14,-2.64 -2.64,-4.18 -4.58,-4.18 -3.98,0 -3.98,3.68 -3.98,4.53 0,1.6 0.25,3.54 2.59,9.67 0.54,1.49 0.85,2.19 0.85,3.18 0,2.25 -1.65,4.09 -4.09,4.09 -4.73,0 -6.57,-7.23 -6.57,-7.67 0,-0.5 0.49,-0.5 0.59,-0.5 0.5,0 0.55,0.1 0.8,0.9 1.34,4.63 3.29,6.17 5.03,6.17 0.45,0 1.25,-0.05 1.25,-1.64 0,-1.25 -0.55,-2.64 -0.9,-3.49 -2.19,-5.88 -2.79,-8.17 -2.79,-10.06 0,-4.53 3.34,-6.28 7.07,-6.28 0.85,0 3.19,0 5.18,3.49 1.3,-3.19 4.73,-3.49 6.23,-3.49 3.73,0 5.93,3.14 7.22,6.13 1.7,3.88 3.29,10.56 3.29,12.95 0,2.74 -1.35,3.49 -2.19,3.49 -1.25,0 -2.49,-1.3 -2.49,-2.4 0,-0.64 0.3,-0.94 0.74,-1.34 0.56,-0.55 1.8,-1.84 1.8,-4.23 0,-1.69 -1.44,-6.58 -2.74,-9.12 -1.3,-2.64 -3.04,-4.38 -5.48,-4.38 -2.34,0 -3.68,1.49 -3.68,4.33 0,1.4 0.34,2.94 0.54,3.64 z"
           inkscape:connector-curvature="0"
           style="fill:#000000;stroke-width:0" /><path
           id="path5264"
           d="m 508.99,410.12 0,0.71 -0.02,0.68 -0.03,0.66 -0.04,0.64 -0.06,0.62 -0.08,0.59 -0.09,0.58 -0.11,0.56 -0.12,0.55 -0.15,0.53 -0.17,0.51 -0.19,0.5 -0.21,0.49 -0.24,0.48 -0.26,0.47 -0.14,0.24 -0.15,0.23 c -1.07,1.6 -3.24,2.99 -6.03,2.99 l 0,-0.97 c 1.89,0 3.7,-1.15 4.33,-3.18 0.56,-1.88 0.59,-4.39 0.59,-7.42 0,-2.58 0,-5.17 -0.45,-7.36 -0.7,-3.17 -3.07,-3.94 -4.47,-3.94 l 0,0 c -1.6,0 -3.73,0.94 -4.43,3.8 -0.49,2.06 -0.49,4.92 -0.49,7.5 0,2.54 0,5.19 0.53,7.11 0.73,2.76 2.96,3.49 4.39,3.49 l 0,0.97 c -8.09,0 -8.09,-9.52 -8.09,-12.03 0,-2.51 0,-11.82 8.09,-11.82 8.09,0 8.09,9.31 8.09,11.82 z"
           inkscape:connector-curvature="0"
           style="fill:#000000;stroke-width:0" /><path
           id="path5266"
           d="m 518.35,399.56 0,-0.36 -0.01,-0.37 -0.03,-0.38 -0.05,-0.38 -0.02,-0.2 -0.04,-0.19 -0.04,-0.2 -0.04,-0.19 -0.05,-0.2 -0.05,-0.2 -0.07,-0.2 -0.06,-0.2 -0.08,-0.21 -0.08,-0.2 -0.09,-0.2 -0.1,-0.21 -0.11,-0.2 -0.11,-0.21 -0.13,-0.21 -0.13,-0.2 -0.14,-0.21 -0.15,-0.21 -0.16,-0.21 -0.18,-0.21 -0.18,-0.21 -0.19,-0.21 -0.21,-0.2 -0.21,-0.21 c -0.14,-0.14 -0.24,-0.25 -0.24,-0.42 0,-0.24 0.27,-0.49 0.48,-0.49 0.49,0 3.45,2.79 3.45,6.94 0,2.16 -0.83,3.8 -2.43,3.8 -1.16,0 -1.99,-0.91 -1.99,-1.99 0,-1.11 0.8,-2.02 2.02,-2.02 0.84,0 1.39,0.56 1.42,0.56 z"
           inkscape:connector-curvature="0"
           style="fill:#000000;stroke-width:0" /><path
           id="path5268"
           d="m 531.2,406.04 0,0.02 0,0.01 0,0.02 0.01,0.03 0.01,0.02 0,0.03 0.01,0.04 0.01,0.04 0.01,0.04 0.01,0.04 0.01,0.05 0.02,0.05 0.01,0.05 0.01,0.06 0.03,0.12 0.03,0.12 0.04,0.14 0.03,0.14 0.04,0.14 0.04,0.15 0.04,0.16 0.07,0.31 0.08,0.31 0.04,0.15 0.04,0.15 0.04,0.14 0.04,0.14 0.03,0.14 0.04,0.12 0.03,0.12 0.01,0.05 0.01,0.05 0.02,0.05 0.01,0.05 0.01,0.04 0.01,0.04 0.01,0.04 0.01,0.03 0.01,0.03 0.01,0.03 0.01,0.02 0,0.02 0.01,0.02 0,0.01 c 0.07,0.27 1.08,2.02 2.2,2.86 0.38,0.27 1.32,0.97 2.82,0.97 0.35,0 1.22,-0.03 1.92,-0.49 -1.11,-0.31 -1.54,-1.29 -1.54,-1.91 0,-0.77 0.6,-1.3 1.4,-1.3 0.8,0 1.95,0.67 1.95,2.13 0,1.81 -1.92,2.55 -3.69,2.55 -1.82,0 -3.39,-0.74 -4.92,-2.48 -0.63,2.13 -2.76,2.48 -3.59,2.48 -1.29,0 -2.16,-0.81 -2.72,-1.78 -0.8,-1.36 -1.29,-3.39 -1.29,-3.56 0,-0.45 0.49,-0.45 0.59,-0.45 0.49,0 0.52,0.11 0.77,1.05 0.52,2.12 1.18,3.76 2.54,3.76 0.91,0 1.16,-0.77 1.16,-1.71 0,-0.66 -0.32,-1.95 -0.56,-2.89 -0.24,-0.94 -0.6,-2.37 -0.77,-3.14 l -1.12,-4.46 c -0.14,-0.46 -0.34,-1.33 -0.34,-1.43 0,-0.77 0.62,-1.12 1.18,-1.12 0.52,0 1.22,0.31 1.5,1.01 0.07,0.21 0.45,1.75 0.66,2.62 z"
           inkscape:connector-curvature="0"
           style="fill:#000000;stroke-width:0" /></g>    </g>
  </g>
</svg>
