<?xml version="1.0" encoding="UTF-8" standalone="no"?>
<!-- Created with Inkscape (http://www.inkscape.org/) -->

<svg
   xmlns:dc="http://purl.org/dc/elements/1.1/"
   xmlns:cc="http://creativecommons.org/ns#"
   xmlns:rdf="http://www.w3.org/1999/02/22-rdf-syntax-ns#"
   xmlns:svg="http://www.w3.org/2000/svg"
   xmlns="http://www.w3.org/2000/svg"
   xmlns:sodipodi="http://sodipodi.sourceforge.net/DTD/sodipodi-0.dtd"
   xmlns:inkscape="http://www.inkscape.org/namespaces/inkscape"
   width="210mm"
   height="297mm"
   viewBox="0 0 744.09448819 1052.3622047"
   id="svg2"
   version="1.1"
   inkscape:version="0.48.4 r9939"
   sodipodi:docname="weakboundary.svg">
  <sodipodi:namedview
     id="base"
     pagecolor="#ffffff"
     bordercolor="#666666"
     borderopacity="1.0"
     inkscape:pageopacity="0.0"
     inkscape:pageshadow="2"
     inkscape:zoom="0.87897495"
     inkscape:cx="171.814"
     inkscape:cy="526.18109"
     inkscape:document-units="px"
     inkscape:current-layer="layer1"
     showgrid="true"
     inkscape:window-width="1855"
     inkscape:window-height="1056"
     inkscape:window-x="65"
     inkscape:window-y="24"
     inkscape:window-maximized="1">
    <inkscape:grid
       type="xygrid"
       id="grid2999" />
  </sodipodi:namedview>
  <defs
     id="defs4">
    <marker
       style="overflow:visible"
       id="Arrow1Mstart"
       refX="0.0"
       refY="0.0"
       orient="auto"
       inkscape:stockid="Arrow1Mstart">
      <path
         transform="scale(0.4) translate(10,0)"
         style="fill-rule:evenodd;stroke:#000000;stroke-width:1.0pt"
         d="M 0.0,0.0 L 5.0,-5.0 L -12.5,0.0 L 5.0,5.0 L 0.0,0.0 z "
         id="path4031" />
    </marker>
    <marker
       style="overflow:visible;"
       id="Arrow1Mend"
       refX="0.0"
       refY="0.0"
       orient="auto"
       inkscape:stockid="Arrow1Mend">
      <path
         transform="scale(0.4) rotate(180) translate(10,0)"
         style="fill-rule:evenodd;stroke:#000000;stroke-width:1.0pt;"
         d="M 0.0,0.0 L 5.0,-5.0 L -12.5,0.0 L 5.0,5.0 L 0.0,0.0 z "
         id="path4034" />
    </marker>
    <marker
       inkscape:isstock="true"
       style="overflow:visible"
       id="marker4420"
       refX="0.0"
       refY="0.0"
       orient="auto"
       inkscape:stockid="DotM">
      <path
         transform="scale(0.4) translate(7.4, 1)"
         style="fill-rule:evenodd;stroke:#000000;stroke-width:1pt;stroke-opacity:1;fill:#000000;fill-opacity:1"
         d="M -2.5,-1.0 C -2.5,1.7600000 -4.7400000,4.0 -7.5,4.0 C -10.260000,4.0 -12.5,1.7600000 -12.5,-1.0 C -12.5,-3.7600000 -10.260000,-6.0 -7.5,-6.0 C -4.7400000,-6.0 -2.5,-3.7600000 -2.5,-1.0 z "
         id="path4422" />
    </marker>
    <marker
       inkscape:isstock="true"
       style="overflow:visible"
       id="DotM"
       refX="0.0"
       refY="0.0"
       orient="auto"
       inkscape:stockid="DotM">
      <path
         transform="scale(0.4) translate(7.4, 1)"
         style="fill-rule:evenodd;stroke:#000000;stroke-width:1pt;stroke-opacity:1;fill:#000000;fill-opacity:1"
         d="M -2.5,-1.0 C -2.5,1.7600000 -4.7400000,4.0 -7.5,4.0 C -10.260000,4.0 -12.5,1.7600000 -12.5,-1.0 C -12.5,-3.7600000 -10.260000,-6.0 -7.5,-6.0 C -4.7400000,-6.0 -2.5,-3.7600000 -2.5,-1.0 z "
         id="path4208" />
    </marker>
  </defs>
  <metadata
     id="metadata7">
    <rdf:RDF>
      <cc:Work
         rdf:about="">
        <dc:format>image/svg+xml</dc:format>
        <dc:type
           rdf:resource="http://purl.org/dc/dcmitype/StillImage" />
        <dc:title />
      </cc:Work>
    </rdf:RDF>
  </metadata>
  <g
     id="layer1"
     inkscape:groupmode="layer"
     inkscape:label="Layer 1">
    <path
       style="fill:none;stroke:#000000;stroke-width:2.00000004;stroke-linecap:butt;stroke-linejoin:miter;stroke-opacity:1;stroke-miterlimit:4;stroke-dasharray:none"
       d="m 380,322.36218 0,230"
       id="path3001"
       inkscape:connector-curvature="0"
       transform="translate(-4.9229925e-6,0)" />
    <rect
       style="fill:#161853;fill-opacity:0.88584475;stroke:#000000;stroke-width:0.85546392;stroke-miterlimit:4;stroke-opacity:1;stroke-dasharray:none;stroke-dashoffset:0"
       id="rect3787"
       width="9.7676477"
       height="7.4922695"
       x="374.57349"
       y="433.21915" />
    <rect
       style="fill:#161853;fill-opacity:0.88584475;stroke:#000000;stroke-width:0.8744185;stroke-miterlimit:4;stroke-opacity:1;stroke-dasharray:none;stroke-dashoffset:0"
       id="rect3787-4"
       width="9.7486935"
       height="7.8431811"
       x="466.08243"
       y="-441.16422"
       transform="scale(1,-1)" />
    <g
       transform="translate(59.159821,75.087465)"
       id="g3842">
      <g
         style="font-style:normal;font-variant:normal;font-weight:normal;font-stretch:normal;letter-spacing:normal;word-spacing:normal;text-anchor:start;fill:none;stroke:#000000;stroke-linecap:butt;stroke-linejoin:miter;stroke-miterlimit:10.43299961;stroke-opacity:1;stroke-dasharray:none;stroke-dashoffset:0"
         id="content"
         transform="matrix(1.0629921,0,0,-1.0629921,-186.02362,789.27165)"
         xml:space="preserve"
         stroke-miterlimit="10.433"
         font-style="normal"
         font-variant="normal"
         font-weight="normal"
         font-stretch="normal"
         font-size-adjust="none"
         letter-spacing="normal"
         word-spacing="normal"><path
           style="fill:#000000;stroke-width:0"
           inkscape:connector-curvature="0"
           d="m 463.36,422.54 0.01,0.02 0,0.01 0.01,0.02 0,0.01 0.01,0.02 0,0.01 0.01,0.02 0,0.01 0.01,0.02 0,0.03 0.01,0.02 0.01,0.02 0,0.02 0.01,0.02 0,0.02 0.01,0.01 0,0.02 0,0.02 0.01,0.01 0,0.01 0,0.02 0,0.01 0.01,0.01 0,0.01 0,0.01 0,0.01 0,0.02 0,0.02 0,0.03 0,0.02 0,0.01 0,0.01 c 0,0.42 -0.37,0.42 -0.78,0.4 l -3.06,-0.23 c -0.42,-0.02 -0.47,-0.05 -0.59,-0.14 -0.11,-0.13 -0.18,-0.42 -0.18,-0.58 0,-0.42 0.39,-0.42 0.74,-0.42 0.03,0 0.48,0 0.86,-0.05 0.47,-0.04 0.5,-0.12 0.5,-0.33 0,-0.14 -0.25,-1.12 -0.41,-1.67 l -2.06,-8.34 c -0.13,-0.52 -0.2,-0.92 -0.2,-1.47 0,-2.59 1.84,-4.31 4.23,-4.31 l 0.05,0.86 c -1.07,0 -2.28,0.64 -2.28,2.65 0,0.8 0.18,1.6 0.39,2.44 0.07,0.31 0.5,1.92 0.51,2.08 0.08,0.25 1.83,2.41 3.92,2.41 1.07,0 2.19,-0.65 2.19,-2.54 0,-0.92 -0.47,-3.26 -1.26,-4.7 -0.85,-1.48 -2.25,-2.34 -3.47,-2.34 h 0 l -0.05,-0.86 c 3.61,0 7.03,3.5 7.03,6.95 0,2.47 -1.8,4.34 -4.36,4.34 -1.05,0 -2.26,-0.4 -3.5,-1.34 z"
           id="path3845" /></g>    </g>
    <path
       style="fill:#828cc8;stroke:#000000;stroke-width:2.00000004000000020;stroke-linecap:butt;stroke-linejoin:miter;stroke-opacity:1;stroke-miterlimit:4;stroke-dasharray:none;fill-opacity:0.88584476999999995;opacity:0.4"
       d="m 380,362.36218 -90,20 -50,70 50,70 90,-10 z"
       id="path3927"
       inkscape:connector-curvature="0"
       transform="translate(-4.9229925e-6,0)" />
    <g
       transform="translate(87.602043,-2.2753781)"
       id="g3961">
      <g
         style="font-style:normal;font-variant:normal;font-weight:normal;font-stretch:normal;letter-spacing:normal;word-spacing:normal;text-anchor:start;fill:none;stroke:#000000;stroke-linecap:butt;stroke-linejoin:miter;stroke-miterlimit:10.43299961;stroke-opacity:1;stroke-dasharray:none;stroke-dashoffset:0"
         id="g3963"
         transform="matrix(1.0629921,0,0,-1.0629921,-186.02362,789.27165)"
         xml:space="preserve"
         stroke-miterlimit="10.433"
         font-style="normal"
         font-variant="normal"
         font-weight="normal"
         font-stretch="normal"
         font-size-adjust="none"
         letter-spacing="normal"
         word-spacing="normal"><path
           style="fill:#000000;stroke-width:0"
           inkscape:connector-curvature="0"
           d="m 463.36,422.54 0.01,0.02 0,0.01 0.01,0.02 0,0.01 0.01,0.02 0,0.01 0.01,0.02 0,0.01 0.01,0.02 0,0.03 0.01,0.02 0.01,0.02 0,0.02 0.01,0.02 0,0.02 0.01,0.01 0,0.02 0,0.02 0.01,0.01 0,0.01 0,0.02 0,0.01 0.01,0.01 0,0.01 0,0.01 0,0.01 0,0.02 0,0.02 0,0.03 0,0.02 0,0.01 0,0.01 c 0,0.42 -0.37,0.42 -0.78,0.4 l -3.06,-0.23 c -0.42,-0.02 -0.47,-0.05 -0.59,-0.14 -0.11,-0.13 -0.18,-0.42 -0.18,-0.58 0,-0.42 0.39,-0.42 0.74,-0.42 0.03,0 0.48,0 0.86,-0.05 0.47,-0.04 0.5,-0.12 0.5,-0.33 0,-0.14 -0.25,-1.12 -0.41,-1.67 l -2.06,-8.34 c -0.13,-0.52 -0.2,-0.92 -0.2,-1.47 0,-2.59 1.84,-4.31 4.23,-4.31 l 0.05,0.86 c -1.07,0 -2.28,0.64 -2.28,2.65 0,0.8 0.18,1.6 0.39,2.44 0.07,0.31 0.5,1.92 0.51,2.08 0.08,0.25 1.83,2.41 3.92,2.41 1.07,0 2.19,-0.65 2.19,-2.54 0,-0.92 -0.47,-3.26 -1.26,-4.7 -0.85,-1.48 -2.25,-2.34 -3.47,-2.34 h 0 l -0.05,-0.86 c 3.61,0 7.03,3.5 7.03,6.95 0,2.47 -1.8,4.34 -4.36,4.34 -1.05,0 -2.26,-0.4 -3.5,-1.34 z"
           id="path3965" /><path
           style="fill:#000000;stroke-width:0"
           inkscape:connector-curvature="0"
           d="m 486.99,412.68 -0.01,0.24 -0.02,0.22 -0.03,0.23 -0.04,0.22 -0.05,0.22 -0.06,0.21 -0.08,0.21 -0.08,0.21 -0.1,0.2 -0.1,0.2 -0.12,0.19 -0.13,0.18 -0.13,0.18 -0.15,0.17 -0.16,0.16 -0.16,0.16 -0.18,0.15 -0.18,0.14 -0.2,0.14 -0.2,0.13 -0.21,0.11 -0.22,0.11 -0.23,0.11 -0.23,0.09 -0.25,0.08 -0.25,0.07 -0.26,0.06 -0.27,0.05 -0.27,0.04 -0.28,0.03 -0.29,0.02 -0.3,0 c -4.15,0 -7.87,-3.39 -7.87,-6.75 0,-2.54 2.06,-4.54 5.23,-4.54 l 0.05,0.86 c -1.22,0 -2.98,0.56 -2.98,2.9 0,0.75 0.31,3.19 1.68,4.83 0.96,1.11 2.43,1.85 3.85,1.85 1.36,0 2.98,-0.69 2.98,-2.91 0,-0.7 -0.3,-3.02 -1.51,-4.58 -1.16,-1.5 -2.8,-2.09 -4.02,-2.09 h 0 l -0.05,-0.86 c 4.16,0 7.88,3.42 7.88,6.76 z"
           id="path3967" /><path
           style="fill:#000000;stroke-width:0"
           inkscape:connector-curvature="0"
           d="m 502.55,413.32 -0.76,-3.11 c -0.11,-0.32 -0.24,-0.85 -0.25,-1 -0.03,-0.07 -1.38,-2.43 -3.52,-2.43 -0.95,0 -2.04,0.34 -2.04,2.14 0,1.29 0.65,2.98 1.37,4.7 0.25,0.66 0.41,0.97 0.41,1.39 0,1.22 -1.17,2.2 -2.72,2.2 -2.63,0 -4.02,-3.18 -4.02,-3.85 0,-0.36 0.41,-0.36 0.53,-0.36 0.43,0 0.44,0.12 0.57,0.5 0.5,1.67 1.67,2.86 2.81,2.86 0.48,0 0.75,-0.27 0.75,-0.94 0,-0.5 -0.09,-0.78 -0.42,-1.5 -1.35,-3.31 -1.35,-3.99 -1.35,-4.66 0,-2.78 2.36,-3.34 3.99,-3.34 1.39,0 2.67,0.7 3.61,1.72 0.58,-1.6 2.45,-1.72 2.89,-1.72 0.87,0 1.58,0.44 2.17,1.36 0.67,0.97 1.02,2.36 1.02,2.51 0,0.35 -0.43,0.35 -0.52,0.35 -0.45,0 -0.47,-0.16 -0.59,-0.55 -0.49,-1.92 -1.13,-2.81 -1.97,-2.81 -0.71,0 -1,0.54 -1,1.31 0,0.53 0.76,3.52 1.73,7.37 0.13,0.43 0.13,0.47 0.13,0.6 0,0.55 -0.44,0.87 -0.92,0.87 -0.99,0 -1.19,-0.87 -1.36,-1.54 z"
           id="path3969" /><path
           style="fill:#000000;stroke-width:0"
           inkscape:connector-curvature="0"
           d="m 514.73,408.64 -0.01,-0.06 -0.02,-0.07 -0.01,-0.06 -0.02,-0.07 -0.02,-0.06 -0.01,-0.07 -0.04,-0.15 -0.03,-0.14 -0.04,-0.15 -0.03,-0.14 -0.02,-0.07 -0.02,-0.07 -0.01,-0.07 -0.02,-0.07 -0.01,-0.06 -0.01,-0.06 -0.02,-0.06 -0.01,-0.06 -0.01,-0.05 -0.01,-0.05 -0.01,-0.05 -0.01,-0.04 -0.01,-0.04 -0.01,-0.04 0,-0.03 0,-0.02 -0.01,-0.02 0,-0.01 0,-0.01 c 0,-0.54 0.44,-0.87 0.92,-0.87 0.38,0 0.93,0.2 1.19,0.83 0.03,0.12 0.33,1.29 0.49,1.93 0.84,3.38 0.84,3.43 0.89,3.52 0.32,0.67 2.11,4.16 5.15,4.16 1.22,0 1.75,-0.68 1.75,-1.79 0,-1.42 -1.04,-3.98 -1.62,-5.4 -0.13,-0.3 -0.25,-0.63 -0.25,-1.05 0,-1.3 1.25,-2.2 2.72,-2.2 2.65,0 4.03,3.25 4.03,3.87 0,0.35 -0.42,0.35 -0.52,0.35 -0.44,0 -0.45,-0.1 -0.61,-0.58 -0.47,-1.49 -1.61,-2.78 -2.81,-2.78 -0.56,0 -0.75,0.39 -0.75,0.93 0,0.54 0.11,0.79 0.33,1.33 0.42,1 1.58,3.83 1.58,5.21 0,1.84 -1.33,2.96 -3.69,2.96 -2.28,0 -3.84,-1.37 -4.72,-2.46 -0.12,2.04 -2.11,2.46 -3.03,2.46 -2.5,0 -3.22,-3.81 -3.22,-3.85 0,-0.36 0.41,-0.36 0.53,-0.36 0.42,0 0.47,0.15 0.56,0.48 0.38,1.44 0.96,2.88 2,2.88 0.85,0 1.02,-0.8 1.02,-1.32 0,-0.34 -0.25,-1.29 -0.39,-1.93 -0.19,-0.68 -0.42,-1.71 -0.55,-2.25 z"
           id="path3971" /><path
           style="fill:#000000;stroke-width:0"
           inkscape:connector-curvature="0"
           d="m 548.32,422.54 0,0.02 0.01,0.01 0,0.02 0.01,0.01 0,0.02 0,0.01 0.01,0.02 0,0.01 0.01,0.02 0.01,0.03 0,0.02 0.01,0.02 0.01,0.02 0,0.02 0,0.02 0.01,0.01 0,0.02 0.01,0.02 0,0.01 0,0.01 0,0.02 0.01,0.01 0,0.01 0,0.01 0,0.01 0,0.01 0,0.02 0.01,0.02 0,0.03 0,0.02 0,0.01 0,0.01 c 0,0.42 -0.38,0.42 -0.78,0.4 l -3.07,-0.23 c -0.42,-0.02 -0.47,-0.05 -0.59,-0.14 -0.09,-0.13 -0.17,-0.42 -0.17,-0.58 0,-0.42 0.39,-0.42 0.75,-0.42 0.01,0 0.46,0 0.84,-0.05 0.47,-0.04 0.5,-0.12 0.5,-0.33 0,-0.12 -0.2,-0.87 -0.3,-1.31 l -1.17,-4.69 c -0.48,0.65 -1.42,1.5 -3,1.5 v -0.85 c 1.13,0 2.21,-0.68 2.59,-2.16 l -1.13,-4.69 c -0.12,-0.37 -0.12,-0.42 -0.55,-0.92 -0.92,-1.05 -2.22,-1.81 -3.47,-1.81 -0.88,0 -2.19,0.47 -2.19,2.53 0,1.15 0.59,3.76 1.47,5.06 0.97,1.38 2.24,1.99 3.28,1.99 v 0.85 c -3.5,0 -7,-3.42 -7,-6.95 0,-2.55 1.88,-4.34 4.36,-4.34 2.05,0 3.64,1.45 3.94,1.75 0.45,-1.22 1.83,-1.75 2.94,-1.75 1,0 1.67,0.58 2.2,1.4 0.64,0.97 0.98,2.29 0.98,2.47 0,0.35 -0.42,0.35 -0.51,0.35 -0.45,0 -0.47,-0.16 -0.6,-0.55 -0.45,-1.84 -1.09,-2.81 -1.97,-2.81 -0.7,0 -1,0.54 -1,1.31 0,0.28 0.04,0.55 0.1,0.8 z"
           id="path3973" /><path
           style="fill:#000000;stroke-width:0"
           inkscape:connector-curvature="0"
           d="m 564.7,414.28 0.01,0.05 0.01,0.05 0.02,0.05 0.01,0.06 0.02,0.05 0.01,0.06 0.03,0.12 0.03,0.12 0.03,0.13 0.03,0.12 0.03,0.12 0.02,0.05 0.01,0.06 0.02,0.05 0.01,0.06 0.01,0.05 0.01,0.05 0.01,0.04 0.01,0.05 0.01,0.04 0.01,0.03 0.01,0.04 0,0.03 0.01,0.02 0,0.03 0,0.02 0,0 0,0.01 c 0,0.42 -0.31,0.87 -0.92,0.87 -0.43,0 -1.05,-0.29 -1.23,-1 -0.49,0.65 -1.42,1.5 -3,1.5 v -0.85 c 1.12,0 2.2,-0.68 2.59,-2.16 l -1.14,-4.69 c -0.11,-0.37 -0.11,-0.42 -0.55,-0.92 -0.92,-1.05 -2.22,-1.81 -3.47,-1.81 -0.87,0 -2.18,0.47 -2.18,2.53 0,1.15 0.59,3.76 1.47,5.06 0.96,1.38 2.23,1.99 3.28,1.99 v 0.85 c -3.5,0 -7,-3.42 -7,-6.95 0,-2.55 1.87,-4.34 4.36,-4.34 2.04,0 3.64,1.45 3.94,1.75 0.45,-1.22 1.82,-1.75 2.93,-1.75 1,0 1.67,0.58 2.2,1.4 0.65,0.97 0.99,2.29 0.99,2.47 0,0.35 -0.42,0.35 -0.52,0.35 -0.45,0 -0.47,-0.16 -0.59,-0.55 -0.45,-1.84 -1.09,-2.81 -1.97,-2.81 -0.7,0 -1,0.54 -1,1.31 0,0.37 0.25,1.33 0.41,2 z"
           id="path3975" /><path
           style="fill:#000000;stroke-width:0"
           inkscape:connector-curvature="0"
           d="m 577.05,410.28 0,0.03 0.01,0.04 0.01,0.05 0.01,0.04 0.01,0.05 0.02,0.05 0.01,0.05 0.01,0.06 0.02,0.05 0.01,0.06 0.01,0.06 0.02,0.06 0.03,0.12 0.03,0.13 0.03,0.12 0.03,0.13 0.02,0.06 0.01,0.05 0.01,0.06 0.02,0.06 0.01,0.05 0.01,0.06 0.02,0.05 0.01,0.04 0.01,0.05 0.01,0.04 0.01,0.04 0,0.04 c 0.1,0.38 0.19,0.77 0.3,1.09 0.09,0.43 0.89,1.72 1.72,2.43 0.87,0.68 1.64,0.86 2.51,0.86 0.3,0 1.49,0 2.29,-0.43 -1.07,-0.37 -1.07,-1.42 -1.07,-1.43 0,-0.43 0.3,-1.02 1.13,-1.02 0.69,0 1.53,0.59 1.53,1.69 0,1.84 -2.61,2.04 -3.83,2.04 -0.59,0 -2.3,0 -3.98,-1.95 -0.3,1.33 -1.75,1.95 -2.97,1.95 -0.85,0 -1.56,-0.4 -2.22,-1.37 -0.64,-1.05 -0.97,-2.34 -0.97,-2.47 0,-0.37 0.38,-0.37 0.53,-0.37 0.42,0 0.44,0.07 0.61,0.7 0.41,1.51 1,2.66 1.92,2.66 0.85,0 1.03,-0.8 1.03,-1.32 0,-0.34 -0.25,-1.29 -0.4,-1.93 -0.17,-0.68 -0.42,-1.71 -0.55,-2.25 l -0.58,-2.22 c -0.14,-0.63 -0.42,-1.72 -0.42,-1.85 0,-0.54 0.45,-0.87 0.92,-0.87 0.41,0 0.85,0.23 1.1,0.65 0.11,0.21 0.29,1 0.42,1.5 z"
           id="path3977" /><path
           style="fill:#000000;stroke-width:0"
           inkscape:connector-curvature="0"
           d="m 603.63,415.5 0.01,0.03 0.01,0.03 0.01,0.04 0,0.03 0.01,0.03 0.01,0.03 0.01,0.02 0,0.03 0.01,0.03 0,0.02 0.01,0.02 0,0.02 0.01,0.03 0,0.02 0,0.01 0,0.02 0.01,0.02 0,0.01 0,0.02 0,0.01 0,0.02 0,0.01 0.01,0.01 0,0.01 0,0.01 0,0 0,0.01 0,0.01 0,0 0,0 0,0.01 0,0 c 0,0.55 -0.46,0.87 -0.92,0.87 -1,0 -1.21,-0.87 -1.38,-1.54 l -0.51,-2.07 -0.78,-3.11 c -0.1,-0.32 -0.22,-0.85 -0.25,-1 -0.02,-0.09 -1.37,-2.43 -3.49,-2.43 -1.14,0 -2.05,0.54 -2.05,2.14 0,1.36 0.75,3.19 1.47,4.98 0.13,0.3 0.32,0.69 0.32,1.11 0,1.22 -1.18,2.2 -2.72,2.2 -2.63,0 -4.02,-3.18 -4.02,-3.85 0,-0.36 0.41,-0.36 0.53,-0.36 0.42,0 0.44,0.12 0.56,0.5 0.53,1.71 1.71,2.86 2.82,2.86 0.48,0 0.75,-0.27 0.75,-0.94 0,-0.5 -0.14,-0.85 -0.33,-1.3 -1.22,-2.97 -1.44,-3.86 -1.44,-4.86 0,-2.76 2.31,-3.34 3.98,-3.34 1.43,0 2.47,0.7 3.1,1.23 -0.36,-1.4 -0.63,-2.5 -1.8,-3.69 -0.58,-0.57 -1.75,-1.53 -3.28,-1.53 -0.45,0 -1.37,0.08 -1.95,0.61 1.12,0.27 1.25,1.24 1.25,1.49 0,0.73 -0.58,1.03 -1.1,1.03 -0.72,0 -1.57,-0.61 -1.57,-1.75 0,-1.25 1.28,-2.22 3.37,-2.22 2.83,0 6.2,1.89 7,5.08 z"
           id="path3979" /></g>    </g>
    <path
       transform="translate(-4.9229925e-6,0)"
       inkscape:connector-curvature="0"
       id="path4019"
       d="m 470,372.36218 -80,20"
       style="fill:none;stroke:#000000;stroke-width:2.00000004000000020;stroke-linecap:butt;stroke-linejoin:miter;stroke-opacity:1;stroke-miterlimit:4;stroke-dasharray:12.00000024999999937, 2.00000004000000020;stroke-dashoffset:0;marker-end:url(#Arrow1Mend)" />
    <g
       id="g3054"
       transform="translate(134.24729,72.812088)">
      <g
         word-spacing="normal"
         letter-spacing="normal"
         font-size-adjust="none"
         font-stretch="normal"
         font-weight="normal"
         font-variant="normal"
         font-style="normal"
         stroke-miterlimit="10.433"
         xml:space="preserve"
         transform="matrix(1.0629921,0,0,-1.0629921,-186.02362,789.27165)"
         id="g3056"
         style="font-style:normal;font-variant:normal;font-weight:normal;font-stretch:normal;letter-spacing:normal;word-spacing:normal;text-anchor:start;fill:none;stroke:#000000;stroke-linecap:butt;stroke-linejoin:miter;stroke-miterlimit:10.43299961;stroke-opacity:1;stroke-dasharray:none;stroke-dashoffset:0"><path
           id="path3058"
           d="m 463.36,422.54 0.01,0.02 0,0.01 0.01,0.02 0,0.01 0.01,0.02 0,0.01 0.01,0.02 0,0.01 0.01,0.02 0,0.03 0.01,0.02 0.01,0.02 0,0.02 0.01,0.02 0,0.02 0.01,0.01 0,0.02 0,0.02 0.01,0.01 0,0.01 0,0.02 0,0.01 0.01,0.01 0,0.01 0,0.01 0,0.01 0,0.02 0,0.02 0,0.03 0,0.02 0,0.01 0,0.01 c 0,0.42 -0.37,0.42 -0.78,0.4 l -3.06,-0.23 c -0.42,-0.02 -0.47,-0.05 -0.59,-0.14 -0.11,-0.13 -0.18,-0.42 -0.18,-0.58 0,-0.42 0.39,-0.42 0.74,-0.42 0.03,0 0.48,0 0.86,-0.05 0.47,-0.04 0.5,-0.12 0.5,-0.33 0,-0.14 -0.25,-1.12 -0.41,-1.67 l -2.06,-8.34 c -0.13,-0.52 -0.2,-0.92 -0.2,-1.47 0,-2.59 1.84,-4.31 4.23,-4.31 l 0.05,0.86 c -1.07,0 -2.28,0.64 -2.28,2.65 0,0.8 0.18,1.6 0.39,2.44 0.07,0.31 0.5,1.92 0.51,2.08 0.08,0.25 1.83,2.41 3.92,2.41 1.07,0 2.19,-0.65 2.19,-2.54 0,-0.92 -0.47,-3.26 -1.26,-4.7 -0.85,-1.48 -2.25,-2.34 -3.47,-2.34 h 0 l -0.05,-0.86 c 3.61,0 7.03,3.5 7.03,6.95 0,2.47 -1.8,4.34 -4.36,4.34 -1.05,0 -2.26,-0.4 -3.5,-1.34 z"
           inkscape:connector-curvature="0"
           style="fill:#000000;stroke-width:0" /><path
           id="path3060"
           d="m 481.16,414.61 0,0.03 0,0.03 0,0.04 0,0.03 0,0.03 0,0.03 0,0.03 0,0.02 -0.01,0.03 0,0.02 0,0.03 0,0.02 -0.01,0.03 0,0.02 0,0.02 -0.01,0.02 0,0.02 0,0.02 -0.01,0.03 -0.01,0.03 -0.02,0.03 -0.01,0.03 -0.02,0.02 -0.02,0.02 -0.02,0.02 -0.03,0.02 -0.02,0.01 -0.03,0.01 -0.04,0.02 -0.03,0 -0.04,0.01 -0.04,0.01 -0.02,0 -0.03,0 -0.02,0.01 -0.02,0 -0.03,0 -0.02,0 -0.03,0 -0.03,0 -0.03,0 -0.03,0 -0.03,0 -0.03,0 -0.04,0 -0.03,0 -0.03,0 -0.04,0 -0.04,0.01 -0.04,0 c -1.76,-1.6 -4.53,-1.6 -5.03,-1.6 h -0.42 v -1.09 h 0.42 c 0.58,0 2.19,0.06 3.64,0.69 V 400.9 c 0,-0.76 0,-1.04 -2.64,-1.04 h -1.25 v -1.1 c 1.38,0.1 3.6,0.1 5.03,0.1 1.46,0 3.68,0 5.04,-0.1 v 1.1 h -1.24 c -2.64,0 -2.64,0.28 -2.64,1.04 z"
           inkscape:connector-curvature="0"
           style="fill:#000000;stroke-width:0" /></g>    </g>
    <g
       transform="translate(130.83422,98.978931)"
       id="g3133">
      <g
         style="font-style:normal;font-variant:normal;font-weight:normal;font-stretch:normal;letter-spacing:normal;word-spacing:normal;text-anchor:start;fill:none;stroke:#000000;stroke-linecap:butt;stroke-linejoin:miter;stroke-miterlimit:10.43299961;stroke-opacity:1;stroke-dasharray:none;stroke-dashoffset:0"
         id="g3135"
         transform="matrix(1.0629921,0,0,-1.0629921,-186.02362,789.27165)"
         xml:space="preserve"
         stroke-miterlimit="10.433"
         font-style="normal"
         font-variant="normal"
         font-weight="normal"
         font-stretch="normal"
         font-size-adjust="none"
         letter-spacing="normal"
         word-spacing="normal"><path
           style="fill:#000000;stroke-width:0"
           inkscape:connector-curvature="0"
           d="m 468.39,407.71 0.04,-0.06 0.04,-0.06 0.04,-0.07 0.05,-0.07 0.06,-0.07 0.06,-0.07 0.06,-0.07 0.07,-0.08 0.07,-0.07 0.08,-0.08 0.08,-0.07 0.09,-0.08 0.1,-0.07 0.1,-0.07 0.11,-0.07 0.11,-0.07 0.13,-0.07 0.12,-0.07 0.14,-0.06 0.14,-0.06 0.15,-0.06 0.15,-0.05 0.17,-0.05 0.17,-0.05 0.18,-0.04 0.18,-0.04 0.2,-0.03 0.2,-0.03 0.21,-0.02 0.22,-0.02 0.23,-0.01 0.24,0 c 4.73,0 6.01,7.98 6.01,9.17 0,1.72 -1,2.14 -1.42,2.14 -0.78,0 -1.47,-0.8 -1.47,-1.44 0,-0.47 0.32,-0.72 0.47,-0.84 0.71,-0.53 0.97,-1.17 0.97,-1.91 0,-0.64 -1.25,-6.26 -4.44,-6.26 -0.93,0 -2.39,0.29 -2.39,2.26 0,0.05 0,0.52 0.18,1.27 0.23,1 0.95,3.86 1.29,5.19 0.11,0.39 0.11,0.43 0.11,0.56 0,0.55 -0.45,0.87 -0.92,0.87 -0.41,0 -0.86,-0.22 -1.09,-0.64 -0.11,-0.17 -0.33,-1.09 -0.49,-1.65 -0.34,-1.41 -0.34,-1.47 -0.72,-2.86 -0.2,-0.8 -0.42,-1.74 -0.45,-2.42 0.08,-0.4 0,-0.52 -0.22,-0.94 -0.95,-1.64 -2,-1.64 -2.39,-1.64 -0.37,0 -1.33,0.04 -1.97,0.59 -0.64,0.58 -0.64,1.5 -0.64,1.77 0,1.01 0.31,2.04 1.36,4.57 0.2,0.5 0.36,0.88 0.36,1.3 0,1.22 -1.17,2.2 -2.72,2.2 -2.62,0 -4.01,-3.18 -4.01,-3.85 0,-0.36 0.4,-0.36 0.53,-0.36 0.42,0 0.43,0.12 0.56,0.5 0.53,1.71 1.7,2.86 2.81,2.86 0.49,0 0.75,-0.27 0.75,-0.94 0,-0.5 -0.09,-0.78 -0.42,-1.5 -1.31,-3.24 -1.31,-3.88 -1.31,-4.49 0,-2.86 2.56,-3.51 4.58,-3.51 0.5,0 1.89,0 3.1,1.79 z"
           id="path3137" /><path
           style="fill:#000000;stroke-width:0"
           inkscape:connector-curvature="0"
           d="m 488.45,413.79 0,0.01 0,0.02 0.01,0.01 0,0.02 0.01,0.01 0,0.01 0.01,0.02 0,0.01 0.01,0.03 0.01,0.02 0,0.02 0.01,0.02 0,0.02 0.01,0.02 0,0.02 0.01,0.02 0,0.01 0.01,0.02 0,0.01 0,0.02 0,0.01 0.01,0.01 0,0.01 0,0.01 0,0.01 0,0.02 0,0.02 0,0.02 0,0.02 0,0.02 0,0.01 0,0.01 c 0,0.42 -0.37,0.42 -0.78,0.41 l -3.06,-0.24 c -0.42,-0.01 -0.47,-0.04 -0.59,-0.14 -0.11,-0.12 -0.17,-0.42 -0.17,-0.58 0,-0.42 0.39,-0.42 0.73,-0.42 0.03,0 0.48,0 0.86,-0.04 0.47,-0.05 0.5,-0.13 0.5,-0.33 0,-0.14 -0.25,-1.13 -0.41,-1.67 l -2.06,-8.35 c -0.12,-0.51 -0.2,-0.92 -0.2,-1.47 0,-2.59 1.84,-4.31 4.23,-4.31 l 0.05,0.86 c -1.06,0 -2.28,0.64 -2.28,2.66 0,0.79 0.18,1.59 0.39,2.43 0.08,0.32 0.5,1.93 0.51,2.08 0.08,0.25 1.83,2.41 3.93,2.41 1.06,0 2.18,-0.64 2.18,-2.53 0,-0.93 -0.47,-3.27 -1.26,-4.71 -0.85,-1.48 -2.25,-2.34 -3.47,-2.34 h 0 l -0.05,-0.86 c 3.61,0 7.03,3.5 7.03,6.95 0,2.47 -1.79,4.35 -4.36,4.35 -1.04,0 -2.26,-0.41 -3.5,-1.35 z"
           id="path3139" /><path
           style="fill:#000000;stroke-width:0"
           inkscape:connector-curvature="0"
           d="m 506.24,405.84 0,0.04 0,0.03 0,0.03 0,0.04 0,0.03 0,0.03 0,0.02 0,0.03 0,0.03 -0.01,0.02 0,0.03 0,0.02 0,0.02 -0.01,0.03 0,0.02 0,0.02 -0.01,0.02 0,0.02 -0.01,0.03 -0.01,0.03 -0.02,0.03 -0.01,0.03 -0.02,0.02 -0.02,0.02 -0.02,0.02 -0.02,0.02 -0.03,0.01 -0.03,0.01 -0.03,0.01 -0.04,0.01 -0.04,0.01 -0.04,0.01 -0.02,0 -0.02,0 -0.03,0 -0.02,0.01 -0.03,0 -0.02,0 -0.03,0 -0.03,0 -0.03,0 -0.03,0 -0.03,0 -0.03,0 -0.03,0 -0.04,0 -0.03,0 -0.04,0 -0.04,0 -0.03,0 C 503.57,405 500.8,405 500.3,405 h -0.42 v -1.09 h 0.42 c 0.58,0 2.19,0.06 3.65,0.68 v -12.45 c 0,-0.76 0,-1.05 -2.65,-1.05 h -1.25 V 390 c 1.38,0.09 3.6,0.09 5.04,0.09 1.45,0 3.67,0 5.03,-0.09 v 1.09 h -1.24 c -2.64,0 -2.64,0.29 -2.64,1.05 z"
           id="path3141" /></g>    </g>
    <g
       id="g3223"
       transform="translate(39.819111,97.841243)">
      <g
         word-spacing="normal"
         letter-spacing="normal"
         font-size-adjust="none"
         font-stretch="normal"
         font-weight="normal"
         font-variant="normal"
         font-style="normal"
         stroke-miterlimit="10.433"
         xml:space="preserve"
         transform="matrix(1.0629921,0,0,-1.0629921,-186.02362,789.27165)"
         id="g3225"
         style="font-style:normal;font-variant:normal;font-weight:normal;font-stretch:normal;letter-spacing:normal;word-spacing:normal;text-anchor:start;fill:none;stroke:#000000;stroke-linecap:butt;stroke-linejoin:miter;stroke-miterlimit:10.43299961;stroke-opacity:1;stroke-dasharray:none;stroke-dashoffset:0"><path
           id="path3227"
           d="m 468.39,407.71 0.04,-0.06 0.04,-0.06 0.04,-0.07 0.05,-0.07 0.06,-0.07 0.06,-0.07 0.06,-0.07 0.07,-0.08 0.07,-0.07 0.08,-0.08 0.08,-0.07 0.09,-0.08 0.1,-0.07 0.1,-0.07 0.11,-0.07 0.11,-0.07 0.13,-0.07 0.12,-0.07 0.14,-0.06 0.14,-0.06 0.15,-0.06 0.15,-0.05 0.17,-0.05 0.17,-0.05 0.18,-0.04 0.18,-0.04 0.2,-0.03 0.2,-0.03 0.21,-0.02 0.22,-0.02 0.23,-0.01 0.24,0 c 4.73,0 6.01,7.98 6.01,9.17 0,1.72 -1,2.14 -1.42,2.14 -0.78,0 -1.47,-0.8 -1.47,-1.44 0,-0.47 0.32,-0.72 0.47,-0.84 0.71,-0.53 0.97,-1.17 0.97,-1.91 0,-0.64 -1.25,-6.26 -4.44,-6.26 -0.93,0 -2.39,0.29 -2.39,2.26 0,0.05 0,0.52 0.18,1.27 0.23,1 0.95,3.86 1.29,5.19 0.11,0.39 0.11,0.43 0.11,0.56 0,0.55 -0.45,0.87 -0.92,0.87 -0.41,0 -0.86,-0.22 -1.09,-0.64 -0.11,-0.17 -0.33,-1.09 -0.49,-1.65 -0.34,-1.41 -0.34,-1.47 -0.72,-2.86 -0.2,-0.8 -0.42,-1.74 -0.45,-2.42 0.08,-0.4 0,-0.52 -0.22,-0.94 -0.95,-1.64 -2,-1.64 -2.39,-1.64 -0.37,0 -1.33,0.04 -1.97,0.59 -0.64,0.58 -0.64,1.5 -0.64,1.77 0,1.01 0.31,2.04 1.36,4.57 0.2,0.5 0.36,0.88 0.36,1.3 0,1.22 -1.17,2.2 -2.72,2.2 -2.62,0 -4.01,-3.18 -4.01,-3.85 0,-0.36 0.4,-0.36 0.53,-0.36 0.42,0 0.43,0.12 0.56,0.5 0.53,1.71 1.7,2.86 2.81,2.86 0.49,0 0.75,-0.27 0.75,-0.94 0,-0.5 -0.09,-0.78 -0.42,-1.5 -1.31,-3.24 -1.31,-3.88 -1.31,-4.49 0,-2.86 2.56,-3.51 4.58,-3.51 0.5,0 1.89,0 3.1,1.79 z"
           inkscape:connector-curvature="0"
           style="fill:#000000;stroke-width:0" /><path
           id="path3229"
           d="m 488.45,413.79 0,0.01 0,0.02 0.01,0.01 0,0.02 0.01,0.01 0,0.01 0.01,0.02 0,0.01 0.01,0.03 0.01,0.02 0,0.02 0.01,0.02 0,0.02 0.01,0.02 0,0.02 0.01,0.02 0,0.01 0.01,0.02 0,0.01 0,0.02 0,0.01 0.01,0.01 0,0.01 0,0.01 0,0.01 0,0.02 0,0.02 0,0.02 0,0.02 0,0.02 0,0.01 0,0.01 c 0,0.42 -0.37,0.42 -0.78,0.41 l -3.06,-0.24 c -0.42,-0.01 -0.47,-0.04 -0.59,-0.14 -0.11,-0.12 -0.17,-0.42 -0.17,-0.58 0,-0.42 0.39,-0.42 0.73,-0.42 0.03,0 0.48,0 0.86,-0.04 0.47,-0.05 0.5,-0.13 0.5,-0.33 0,-0.14 -0.25,-1.13 -0.41,-1.67 l -2.06,-8.35 c -0.12,-0.51 -0.2,-0.92 -0.2,-1.47 0,-2.59 1.84,-4.31 4.23,-4.31 l 0.05,0.86 c -1.06,0 -2.28,0.64 -2.28,2.66 0,0.79 0.18,1.59 0.39,2.43 0.08,0.32 0.5,1.93 0.51,2.08 0.08,0.25 1.83,2.41 3.93,2.41 1.06,0 2.18,-0.64 2.18,-2.53 0,-0.93 -0.47,-3.27 -1.26,-4.71 -0.85,-1.48 -2.25,-2.34 -3.47,-2.34 h 0 l -0.05,-0.86 c 3.61,0 7.03,3.5 7.03,6.95 0,2.47 -1.79,4.35 -4.36,4.35 -1.04,0 -2.26,-0.41 -3.5,-1.35 z"
           inkscape:connector-curvature="0"
           style="fill:#000000;stroke-width:0" /></g>    </g>
  </g>
</svg>
