<?xml version="1.0" encoding="UTF-8" standalone="no"?>
<!-- Created with Inkscape (http://www.inkscape.org/) -->

<svg
   xmlns:dc="http://purl.org/dc/elements/1.1/"
   xmlns:cc="http://creativecommons.org/ns#"
   xmlns:rdf="http://www.w3.org/1999/02/22-rdf-syntax-ns#"
   xmlns:svg="http://www.w3.org/2000/svg"
   xmlns="http://www.w3.org/2000/svg"
   xmlns:sodipodi="http://sodipodi.sourceforge.net/DTD/sodipodi-0.dtd"
   xmlns:inkscape="http://www.inkscape.org/namespaces/inkscape"
   width="210mm"
   height="297mm"
   viewBox="0 0 744.09448819 1052.3622047"
   id="svg4138"
   version="1.1"
   inkscape:version="0.91 r13725"
   sodipodi:docname="stencil4.svg">
  <sodipodi:namedview
     id="base"
     pagecolor="#ffffff"
     bordercolor="#666666"
     borderopacity="1.0"
     inkscape:pageopacity="0.0"
     inkscape:pageshadow="2"
     inkscape:zoom="0.8276618"
     inkscape:cx="184.16857"
     inkscape:cy="535.24277"
     inkscape:document-units="px"
     inkscape:current-layer="layer1"
     showgrid="true"
     inkscape:window-width="1920"
     inkscape:window-height="993"
     inkscape:window-x="0"
     inkscape:window-y="24"
     inkscape:window-maximized="1">
    <inkscape:grid
       id="grid4692"
       type="xygrid" />
  </sodipodi:namedview>
  <defs
     id="defs4140">
    <inkscape:path-effect
       is_visible="true"
       id="path-effect4700"
       effect="spiro" />
    <inkscape:path-effect
       is_visible="true"
       id="path-effect4696"
       effect="spiro" />
  </defs>
  <metadata
     id="metadata4143">
    <rdf:RDF>
      <cc:Work
         rdf:about="">
        <dc:format>image/svg+xml</dc:format>
        <dc:type
           rdf:resource="http://purl.org/dc/dcmitype/StillImage" />
        <dc:title></dc:title>
      </cc:Work>
    </rdf:RDF>
  </metadata>
  <g
     id="layer1"
     inkscape:groupmode="layer"
     inkscape:label="Layer 1">
    <path
       inkscape:connector-curvature="0"
       inkscape:original-d="M 266.04111,481.02534 430,442.3622 460.87401,597.73488 c -73.40186,1.9023 -49.87125,-186.43568 -234.70426,38.32892 z"
       inkscape:path-effect="#path-effect4696"
       id="path4694"
       d="M 266.04111,481.02534 430,442.3622 460.87401,597.73488 226.16975,636.0638 266.04111,481.02534 Z"
       style="fill:none;fill-rule:evenodd;stroke:#000000;stroke-width:4;stroke-linecap:butt;stroke-linejoin:miter;stroke-miterlimit:4;stroke-dasharray:none;stroke-opacity:1"
       sodipodi:nodetypes="ccccc" />
    <path
       sodipodi:nodetypes="ccccccccccc"
       inkscape:connector-curvature="0"
       inkscape:original-d="M 246.04111,318.9431 422.75066,299.07175 430,442.3622 590.87401,449.5346 459.66578,600.15133 455.37268,753.98157 277.91776,790.89669 224.96153,637.27203 58.509269,501.15398 266.04111,479.81711 244.83289,317.73488"
       inkscape:path-effect="#path-effect4700"
       id="path4698"
       d="M 246.04111,318.9431 422.75066,299.07175 430,442.3622 590.87401,449.5346 459.66578,600.15133 455.37268,753.98157 277.91776,790.89669 224.96153,637.27203 58.509269,501.15398 266.04111,479.81711 244.83289,317.73488"
       style="fill:none;fill-rule:evenodd;stroke:#000000;stroke-width:4;stroke-linecap:butt;stroke-linejoin:miter;stroke-miterlimit:4;stroke-dasharray:none;stroke-opacity:1" />
    <g
       id="g4769"
       transform="translate(38.663135,190.89923)">
      <g
         word-spacing="normal"
         letter-spacing="normal"
         font-size-adjust="none"
         font-stretch="normal"
         font-weight="normal"
         font-variant="normal"
         font-style="normal"
         stroke-miterlimit="10.433"
         xml:space="preserve"
         transform="matrix(1.0629921,0,0,-1.0629921,-186.02362,789.27165)"
         id="content"
         style="font-style:normal;font-variant:normal;font-weight:normal;font-stretch:normal;letter-spacing:normal;word-spacing:normal;text-anchor:start;fill:none;fill-opacity:1;fill-rule:evenodd;stroke:#000000;stroke-linecap:butt;stroke-linejoin:miter;stroke-miterlimit:10.43299961;stroke-dasharray:none;stroke-dashoffset:0;stroke-opacity:1"><path
           id="path4772"
           d="m 470.15,437.13 0,0.1 -0.01,0.09 -0.01,0.09 -0.01,0.09 -0.02,0.08 -0.02,0.09 -0.03,0.08 -0.03,0.08 -0.03,0.08 -0.04,0.08 -0.04,0.08 -0.04,0.07 -0.05,0.07 -0.05,0.07 -0.06,0.06 -0.05,0.06 -0.07,0.06 -0.06,0.06 -0.07,0.05 -0.07,0.05 -0.07,0.05 -0.08,0.04 -0.08,0.04 -0.08,0.04 -0.09,0.03 -0.09,0.03 -0.09,0.02 -0.1,0.02 -0.1,0.02 -0.1,0.01 -0.1,0 -0.11,0.01 c -1.34,0 -2.69,-1.3 -2.69,-2.64 0,-0.95 0.7,-1.8 1.9,-1.8 1.14,0 2.64,1.15 2.64,2.64 z"
           inkscape:connector-curvature="0"
           style="fill:#000000;stroke-width:0" /><path
           id="path4774"
           d="m 466.36,418.4 0.05,0.13 0.05,0.13 0.05,0.12 0.05,0.11 0.04,0.1 0.04,0.1 0.04,0.09 0.03,0.09 0.04,0.09 0.03,0.08 0.03,0.08 0.03,0.08 0.03,0.07 0.02,0.07 0.05,0.15 0.06,0.14 0.05,0.14 0.02,0.07 0.03,0.08 0.03,0.08 0.03,0.08 0.03,0.08 0.03,0.09 0.04,0.09 0.03,0.1 0.04,0.11 0.04,0.1 0.04,0.12 0.05,0.12 c 0.4,1 0.65,1.69 0.65,2.64 0,2.25 -1.6,4.09 -4.09,4.09 -4.68,0 -6.57,-7.23 -6.57,-7.67 0,-0.5 0.49,-0.5 0.59,-0.5 0.5,0 0.55,0.1 0.8,0.9 1.34,4.68 3.34,6.17 5.03,6.17 0.4,0 1.25,0 1.25,-1.59 0,-1.05 -0.35,-2.1 -0.55,-2.59 -0.4,-1.3 -2.64,-7.08 -3.44,-9.22 -0.5,-1.29 -1.15,-2.94 -1.15,-3.98 0,-2.34 1.7,-4.09 4.09,-4.09 4.68,0 6.52,7.23 6.52,7.67 0,0.5 -0.44,0.5 -0.59,0.5 -0.5,0 -0.5,-0.15 -0.75,-0.89 -0.89,-3.14 -2.54,-6.18 -5.08,-6.18 -0.85,0 -1.2,0.5 -1.2,1.64 0,1.25 0.3,1.94 1.45,4.98 z"
           inkscape:connector-curvature="0"
           style="fill:#000000;stroke-width:0" /></g>    </g>
    <g
       id="g4802"
       transform="translate(22.956233,31.413797)">
      <g
         id="g4804"
         transform="matrix(1.0629921,0,0,-1.0629921,-186.02362,789.27165)"
         xml:space="preserve"
         stroke-miterlimit="10.433"
         font-style="normal"
         font-variant="normal"
         font-weight="normal"
         font-stretch="normal"
         font-size-adjust="none"
         letter-spacing="normal"
         word-spacing="normal"
         style="font-style:normal;font-variant:normal;font-weight:normal;font-stretch:normal;letter-spacing:normal;word-spacing:normal;text-anchor:start;fill:none;fill-opacity:1;fill-rule:evenodd;stroke:#000000;stroke-linecap:butt;stroke-linejoin:miter;stroke-miterlimit:10.43299961;stroke-dasharray:none;stroke-dashoffset:0;stroke-opacity:1"><path
           d="m 475.78,437.13 -0.01,0.09 0,0.09 -0.01,0.09 -0.02,0.08 -0.01,0.09 -0.03,0.08 -0.02,0.08 -0.03,0.08 -0.03,0.08 -0.04,0.08 -0.04,0.07 -0.05,0.08 -0.05,0.07 -0.05,0.06 -0.05,0.07 -0.06,0.06 -0.06,0.06 -0.07,0.06 -0.07,0.06 -0.07,0.05 -0.08,0.05 -0.08,0.04 -0.08,0.04 -0.09,0.04 -0.09,0.03 -0.09,0.03 -0.09,0.03 -0.1,0.02 -0.1,0.01 -0.11,0.02 -0.11,0 -0.11,0.01 c -1.14,0 -2.64,-1.15 -2.64,-2.64 0,-1 0.7,-1.8 1.85,-1.8 1.34,0 2.69,1.3 2.69,2.64 z"
           id="path4806"
           inkscape:connector-curvature="0"
           style="fill:#000000;stroke-width:0" /><path
           d="m 465.76,403.51 -0.09,-0.35 -0.1,-0.35 -0.11,-0.34 -0.12,-0.33 -0.12,-0.33 -0.14,-0.32 -0.14,-0.31 -0.14,-0.3 -0.16,-0.3 -0.16,-0.29 -0.16,-0.27 -0.18,-0.27 -0.18,-0.26 -0.18,-0.25 -0.19,-0.24 -0.2,-0.22 -0.2,-0.22 -0.21,-0.2 -0.21,-0.2 -0.22,-0.18 -0.22,-0.17 -0.23,-0.15 -0.23,-0.15 -0.23,-0.12 -0.24,-0.12 -0.24,-0.1 -0.25,-0.09 -0.25,-0.07 -0.25,-0.05 -0.25,-0.04 -0.26,-0.03 -0.26,-0.01 c -0.3,0 -1.05,0 -1.94,0.45 1.49,0.35 2.23,1.65 2.23,2.64 0,0.8 -0.54,1.74 -1.89,1.74 -1.24,0 -2.69,-1.04 -2.69,-2.83 0,-2 1.99,-3.09 4.38,-3.09 3.49,0 8.13,2.64 9.37,7.57 l 4.58,18.23 c 0.25,1 0.25,1.7 0.25,1.84 0,2.84 -2.09,4.59 -4.58,4.59 -5.08,0 -7.92,-7.23 -7.92,-7.67 0,-0.5 0.5,-0.5 0.6,-0.5 0.45,0 0.5,0.05 0.9,0.99 1.24,3.04 3.53,6.08 6.27,6.08 0.7,0 1.59,-0.2 1.59,-2.29 0,-1.15 -0.15,-1.69 -0.34,-2.54 z"
           id="path4808"
           inkscape:connector-curvature="0"
           style="fill:#000000;stroke-width:0" /><path
           d="m 487.68,421.18 0,0.04 0,0.04 0,0.04 0,0.04 0,0.04 0,0.04 0,0.03 0,0.04 -0.01,0.03 0,0.03 0,0.04 0,0.03 -0.01,0.02 0,0.03 0,0.03 -0.01,0.03 0,0.02 0,0.02 -0.02,0.05 -0.01,0.04 -0.01,0.04 -0.02,0.03 -0.02,0.03 -0.02,0.03 -0.03,0.03 -0.02,0.02 -0.03,0.02 -0.04,0.02 -0.03,0.01 -0.04,0.01 -0.05,0.02 -0.05,0 -0.02,0.01 -0.03,0 -0.03,0.01 -0.02,0 -0.03,0 -0.03,0 -0.04,0 -0.03,0.01 -0.03,0 -0.04,0 -0.03,0 -0.04,0 -0.04,0 -0.04,0 -0.04,0 -0.04,0 -0.05,0 -0.04,0 c -2.24,-2.19 -5.41,-2.23 -6.84,-2.23 l 0,-1.25 c 0.84,0 3.14,0 5.06,0.97 l 0,-17.78 c 0,-1.15 0,-1.61 -3.49,-1.61 l -1.33,0 0,-1.25 12.45,0 0,1.25 -1.32,0 c -3.49,0 -3.49,0.46 -3.49,1.61 z"
           id="path4810"
           inkscape:connector-curvature="0"
           style="fill:#000000;stroke-width:0" /></g>    </g>
    <g
       id="g4848"
       transform="translate(176.40056,138.94564)">
      <g
         word-spacing="normal"
         letter-spacing="normal"
         font-size-adjust="none"
         font-stretch="normal"
         font-weight="normal"
         font-variant="normal"
         font-style="normal"
         stroke-miterlimit="10.433"
         xml:space="preserve"
         transform="matrix(1.0629921,0,0,-1.0629921,-186.02362,789.27165)"
         id="g4850"
         style="font-style:normal;font-variant:normal;font-weight:normal;font-stretch:normal;letter-spacing:normal;word-spacing:normal;text-anchor:start;fill:none;fill-opacity:1;fill-rule:evenodd;stroke:#000000;stroke-linecap:butt;stroke-linejoin:miter;stroke-miterlimit:10.43299961;stroke-dasharray:none;stroke-dashoffset:0;stroke-opacity:1"><path
           id="path4852"
           d="m 475.78,437.13 -0.01,0.09 0,0.09 -0.01,0.09 -0.02,0.08 -0.01,0.09 -0.03,0.08 -0.02,0.08 -0.03,0.08 -0.03,0.08 -0.04,0.08 -0.04,0.07 -0.05,0.08 -0.05,0.07 -0.05,0.06 -0.05,0.07 -0.06,0.06 -0.06,0.06 -0.07,0.06 -0.07,0.06 -0.07,0.05 -0.08,0.05 -0.08,0.04 -0.08,0.04 -0.09,0.04 -0.09,0.03 -0.09,0.03 -0.09,0.03 -0.1,0.02 -0.1,0.01 -0.11,0.02 -0.11,0 -0.11,0.01 c -1.14,0 -2.64,-1.15 -2.64,-2.64 0,-1 0.7,-1.8 1.85,-1.8 1.34,0 2.69,1.3 2.69,2.64 z"
           inkscape:connector-curvature="0"
           style="fill:#000000;stroke-width:0" /><path
           id="path4854"
           d="m 465.76,403.51 -0.09,-0.35 -0.1,-0.35 -0.11,-0.34 -0.12,-0.33 -0.12,-0.33 -0.14,-0.32 -0.14,-0.31 -0.14,-0.3 -0.16,-0.3 -0.16,-0.29 -0.16,-0.27 -0.18,-0.27 -0.18,-0.26 -0.18,-0.25 -0.19,-0.24 -0.2,-0.22 -0.2,-0.22 -0.21,-0.2 -0.21,-0.2 -0.22,-0.18 -0.22,-0.17 -0.23,-0.15 -0.23,-0.15 -0.23,-0.12 -0.24,-0.12 -0.24,-0.1 -0.25,-0.09 -0.25,-0.07 -0.25,-0.05 -0.25,-0.04 -0.26,-0.03 -0.26,-0.01 c -0.3,0 -1.05,0 -1.94,0.45 1.49,0.35 2.23,1.65 2.23,2.64 0,0.8 -0.54,1.74 -1.89,1.74 -1.24,0 -2.69,-1.04 -2.69,-2.83 0,-2 1.99,-3.09 4.38,-3.09 3.49,0 8.13,2.64 9.37,7.57 l 4.58,18.23 c 0.25,1 0.25,1.7 0.25,1.84 0,2.84 -2.09,4.59 -4.58,4.59 -5.08,0 -7.92,-7.23 -7.92,-7.67 0,-0.5 0.5,-0.5 0.6,-0.5 0.45,0 0.5,0.05 0.9,0.99 1.24,3.04 3.53,6.08 6.27,6.08 0.7,0 1.59,-0.2 1.59,-2.29 0,-1.15 -0.15,-1.69 -0.34,-2.54 z"
           inkscape:connector-curvature="0"
           style="fill:#000000;stroke-width:0" /><path
           id="path4856"
           d="m 493.61,405.35 -1.19,0 c -0.1,-0.77 -0.45,-2.83 -0.9,-3.18 -0.28,-0.21 -2.97,-0.21 -3.45,-0.21 l -6.42,0 c 3.66,3.25 4.88,4.22 6.97,5.86 2.58,2.06 4.99,4.22 4.99,7.54 0,4.21 -3.7,6.79 -8.16,6.79 -4.33,0 -7.25,-3.03 -7.25,-6.24 0,-1.78 1.5,-1.95 1.84,-1.95 0.84,0 1.85,0.59 1.85,1.85 0,0.62 -0.24,1.85 -2.05,1.85 1.08,2.47 3.45,3.24 5.09,3.24 3.48,0 5.3,-2.72 5.3,-5.54 0,-3.04 -2.16,-5.45 -3.28,-6.7 l -8.4,-8.3 c -0.35,-0.31 -0.35,-0.38 -0.35,-1.36 l 14.36,0 z"
           inkscape:connector-curvature="0"
           style="fill:#000000;stroke-width:0" /></g>    </g>
    <g
       id="g4904"
       transform="translate(36.246685,338.30243)">
      <g
         id="g4906"
         transform="matrix(1.0629921,0,0,-1.0629921,-186.02362,789.27165)"
         xml:space="preserve"
         stroke-miterlimit="10.433"
         font-style="normal"
         font-variant="normal"
         font-weight="normal"
         font-stretch="normal"
         font-size-adjust="none"
         letter-spacing="normal"
         word-spacing="normal"
         style="font-style:normal;font-variant:normal;font-weight:normal;font-stretch:normal;letter-spacing:normal;word-spacing:normal;text-anchor:start;fill:none;fill-opacity:1;fill-rule:evenodd;stroke:#000000;stroke-linecap:butt;stroke-linejoin:miter;stroke-miterlimit:10.43299961;stroke-dasharray:none;stroke-dashoffset:0;stroke-opacity:1"><path
           d="m 475.78,437.13 -0.01,0.09 0,0.09 -0.01,0.09 -0.02,0.08 -0.01,0.09 -0.03,0.08 -0.02,0.08 -0.03,0.08 -0.03,0.08 -0.04,0.08 -0.04,0.07 -0.05,0.08 -0.05,0.07 -0.05,0.06 -0.05,0.07 -0.06,0.06 -0.06,0.06 -0.07,0.06 -0.07,0.06 -0.07,0.05 -0.08,0.05 -0.08,0.04 -0.08,0.04 -0.09,0.04 -0.09,0.03 -0.09,0.03 -0.09,0.03 -0.1,0.02 -0.1,0.01 -0.11,0.02 -0.11,0 -0.11,0.01 c -1.14,0 -2.64,-1.15 -2.64,-2.64 0,-1 0.7,-1.8 1.85,-1.8 1.34,0 2.69,1.3 2.69,2.64 z"
           id="path4908"
           inkscape:connector-curvature="0"
           style="fill:#000000;stroke-width:0" /><path
           d="m 465.76,403.51 -0.09,-0.35 -0.1,-0.35 -0.11,-0.34 -0.12,-0.33 -0.12,-0.33 -0.14,-0.32 -0.14,-0.31 -0.14,-0.3 -0.16,-0.3 -0.16,-0.29 -0.16,-0.27 -0.18,-0.27 -0.18,-0.26 -0.18,-0.25 -0.19,-0.24 -0.2,-0.22 -0.2,-0.22 -0.21,-0.2 -0.21,-0.2 -0.22,-0.18 -0.22,-0.17 -0.23,-0.15 -0.23,-0.15 -0.23,-0.12 -0.24,-0.12 -0.24,-0.1 -0.25,-0.09 -0.25,-0.07 -0.25,-0.05 -0.25,-0.04 -0.26,-0.03 -0.26,-0.01 c -0.3,0 -1.05,0 -1.94,0.45 1.49,0.35 2.23,1.65 2.23,2.64 0,0.8 -0.54,1.74 -1.89,1.74 -1.24,0 -2.69,-1.04 -2.69,-2.83 0,-2 1.99,-3.09 4.38,-3.09 3.49,0 8.13,2.64 9.37,7.57 l 4.58,18.23 c 0.25,1 0.25,1.7 0.25,1.84 0,2.84 -2.09,4.59 -4.58,4.59 -5.08,0 -7.92,-7.23 -7.92,-7.67 0,-0.5 0.5,-0.5 0.6,-0.5 0.45,0 0.5,0.05 0.9,0.99 1.24,3.04 3.53,6.08 6.27,6.08 0.7,0 1.59,-0.2 1.59,-2.29 0,-1.15 -0.15,-1.69 -0.34,-2.54 z"
           id="path4910"
           inkscape:connector-curvature="0"
           style="fill:#000000;stroke-width:0" /><path
           d="m 485.52,410.64 0.25,0 0.25,-0.02 0.24,-0.02 0.24,-0.04 0.23,-0.05 0.23,-0.06 0.22,-0.07 0.22,-0.09 0.21,-0.09 0.2,-0.11 0.19,-0.11 0.19,-0.13 0.18,-0.13 0.18,-0.15 0.17,-0.16 0.15,-0.17 0.16,-0.18 0.14,-0.2 0.13,-0.2 0.13,-0.21 0.12,-0.23 0.11,-0.23 0.09,-0.25 0.09,-0.26 0.08,-0.27 0.07,-0.28 0.06,-0.29 0.05,-0.3 0.04,-0.31 0.03,-0.32 0.02,-0.33 0,-0.35 c 0,-4.32 -2.51,-5.61 -4.53,-5.61 -1.39,0 -4.46,0.38 -5.93,2.44 1.64,0.07 2.02,1.22 2.02,1.95 0,1.12 -0.83,1.92 -1.91,1.92 -0.98,0 -1.96,-0.59 -1.96,-2.02 0,-3.28 3.63,-5.41 7.85,-5.41 4.84,0 8.19,3.25 8.19,6.73 0,2.72 -2.23,5.44 -6.06,6.24 3.66,1.33 4.98,3.94 4.98,6.07 0,2.76 -3.17,4.81 -7.04,4.81 -3.87,0 -6.84,-1.88 -6.84,-4.67 0,-1.18 0.77,-1.85 1.82,-1.85 1.08,0 1.77,0.8 1.77,1.78 0,1.01 -0.69,1.75 -1.77,1.81 1.22,1.54 3.62,1.92 4.92,1.92 1.56,0 3.76,-0.76 3.76,-3.8 0,-1.46 -0.49,-3.07 -1.39,-4.15 -1.16,-1.32 -2.13,-1.39 -3.87,-1.5 -0.88,-0.07 -0.95,-0.07 -1.12,-0.1 -0.07,0 -0.35,-0.07 -0.35,-0.46 0,-0.49 0.31,-0.49 0.91,-0.49 z"
           id="path4912"
           inkscape:connector-curvature="0"
           style="fill:#000000;stroke-width:0" /></g>    </g>
    <g
       id="g4970"
       transform="translate(-120.82229,182.44166)">
      <g
         word-spacing="normal"
         letter-spacing="normal"
         font-size-adjust="none"
         font-stretch="normal"
         font-weight="normal"
         font-variant="normal"
         font-style="normal"
         stroke-miterlimit="10.433"
         xml:space="preserve"
         transform="matrix(1.0629921,0,0,-1.0629921,-186.02362,789.27165)"
         id="g4972"
         style="font-style:normal;font-variant:normal;font-weight:normal;font-stretch:normal;letter-spacing:normal;word-spacing:normal;text-anchor:start;fill:none;fill-opacity:1;fill-rule:evenodd;stroke:#000000;stroke-linecap:butt;stroke-linejoin:miter;stroke-miterlimit:10.43299961;stroke-dasharray:none;stroke-dashoffset:0;stroke-opacity:1"><path
           id="path4974"
           d="m 475.78,437.13 -0.01,0.09 0,0.09 -0.01,0.09 -0.02,0.08 -0.01,0.09 -0.03,0.08 -0.02,0.08 -0.03,0.08 -0.03,0.08 -0.04,0.08 -0.04,0.07 -0.05,0.08 -0.05,0.07 -0.05,0.06 -0.05,0.07 -0.06,0.06 -0.06,0.06 -0.07,0.06 -0.07,0.06 -0.07,0.05 -0.08,0.05 -0.08,0.04 -0.08,0.04 -0.09,0.04 -0.09,0.03 -0.09,0.03 -0.09,0.03 -0.1,0.02 -0.1,0.01 -0.11,0.02 -0.11,0 -0.11,0.01 c -1.14,0 -2.64,-1.15 -2.64,-2.64 0,-1 0.7,-1.8 1.85,-1.8 1.34,0 2.69,1.3 2.69,2.64 z"
           inkscape:connector-curvature="0"
           style="fill:#000000;stroke-width:0" /><path
           id="path4976"
           d="m 465.76,403.51 -0.09,-0.35 -0.1,-0.35 -0.11,-0.34 -0.12,-0.33 -0.12,-0.33 -0.14,-0.32 -0.14,-0.31 -0.14,-0.3 -0.16,-0.3 -0.16,-0.29 -0.16,-0.27 -0.18,-0.27 -0.18,-0.26 -0.18,-0.25 -0.19,-0.24 -0.2,-0.22 -0.2,-0.22 -0.21,-0.2 -0.21,-0.2 -0.22,-0.18 -0.22,-0.17 -0.23,-0.15 -0.23,-0.15 -0.23,-0.12 -0.24,-0.12 -0.24,-0.1 -0.25,-0.09 -0.25,-0.07 -0.25,-0.05 -0.25,-0.04 -0.26,-0.03 -0.26,-0.01 c -0.3,0 -1.05,0 -1.94,0.45 1.49,0.35 2.23,1.65 2.23,2.64 0,0.8 -0.54,1.74 -1.89,1.74 -1.24,0 -2.69,-1.04 -2.69,-2.83 0,-2 1.99,-3.09 4.38,-3.09 3.49,0 8.13,2.64 9.37,7.57 l 4.58,18.23 c 0.25,1 0.25,1.7 0.25,1.84 0,2.84 -2.09,4.59 -4.58,4.59 -5.08,0 -7.92,-7.23 -7.92,-7.67 0,-0.5 0.5,-0.5 0.6,-0.5 0.45,0 0.5,0.05 0.9,0.99 1.24,3.04 3.53,6.08 6.27,6.08 0.7,0 1.59,-0.2 1.59,-2.29 0,-1.15 -0.15,-1.69 -0.34,-2.54 z"
           inkscape:connector-curvature="0"
           style="fill:#000000;stroke-width:0" /><path
           id="path4978"
           d="m 494.45,404.72 0,1.25 -3.88,0 0,15.56 c 0,0.73 0,0.97 -0.76,0.97 -0.42,0 -0.56,0 -0.91,-0.49 l -11.54,-16.04 0,-1.25 10.25,0 0.25,1.25 -9.21,0 9.21,12.76 0,-12.76 -0.25,-1.25 0,-2.86 c 0,-1.19 0,-1.61 -2.82,-1.61 l -0.95,0 0,-1.25 10.5,0 0,1.25 -0.94,0 c -2.83,0 -2.83,0.42 -2.83,1.61 l 0,2.86 z"
           inkscape:connector-curvature="0"
           style="fill:#000000;stroke-width:0" /></g>    </g>
  </g>
</svg>
