<?xml version="1.0" encoding="UTF-8" standalone="no"?>
<!-- Created with Inkscape (http://www.inkscape.org/) -->

<svg
   xmlns:dc="http://purl.org/dc/elements/1.1/"
   xmlns:cc="http://creativecommons.org/ns#"
   xmlns:rdf="http://www.w3.org/1999/02/22-rdf-syntax-ns#"
   xmlns:svg="http://www.w3.org/2000/svg"
   xmlns="http://www.w3.org/2000/svg"
   xmlns:sodipodi="http://sodipodi.sourceforge.net/DTD/sodipodi-0.dtd"
   xmlns:inkscape="http://www.inkscape.org/namespaces/inkscape"
   width="210mm"
   height="297mm"
   viewBox="0 0 744.09448819 1052.3622047"
   id="svg2"
   version="1.1"
   inkscape:version="0.91 r13725"
   sodipodi:docname="clsfv.svg">
  <sodipodi:namedview
     id="base"
     pagecolor="#ffffff"
     bordercolor="#666666"
     borderopacity="1.0"
     inkscape:pageopacity="0.0"
     inkscape:pageshadow="2"
     inkscape:zoom="0.8276618"
     inkscape:cx="166.04522"
     inkscape:cy="526.1811"
     inkscape:document-units="px"
     inkscape:current-layer="layer1"
     showgrid="false"
     inkscape:window-width="1920"
     inkscape:window-height="993"
     inkscape:window-x="0"
     inkscape:window-y="24"
     inkscape:window-maximized="1" />
  <defs
     id="defs4" />
  <metadata
     id="metadata7">
    <rdf:RDF>
      <cc:Work
         rdf:about="">
        <dc:format>image/svg+xml</dc:format>
        <dc:type
           rdf:resource="http://purl.org/dc/dcmitype/StillImage" />
        <dc:title />
      </cc:Work>
    </rdf:RDF>
  </metadata>
  <g
     inkscape:label="Layer 1"
     inkscape:groupmode="layer"
     id="layer1">
    <g
       id="g4409"
       inkscape:label="Grid_Polar:X4:Y4"
       transform="translate(157.54856,273.0193)">
      <g
         id="g4411"
         inkscape:label="MajorXGridlines">
        <path
           id="path4413"
           inkscape:label="MajorXDiv1"
           style="fill:none;stroke:#000000;stroke-width:2"
           d="m 100,0 0,400"
           inkscape:connector-curvature="0" />
        <path
           id="path4415"
           inkscape:label="MajorXDiv2"
           style="fill:none;stroke:#000000;stroke-width:2"
           d="m 200,0 0,400"
           inkscape:connector-curvature="0" />
        <path
           id="path4417"
           inkscape:label="MajorXDiv3"
           style="fill:none;stroke:#000000;stroke-width:2"
           d="m 300,0 0,400"
           inkscape:connector-curvature="0" />
      </g>
      <g
         id="g4419"
         inkscape:label="MajorYGridlines">
        <path
           id="path4421"
           inkscape:label="MajorYDiv1"
           style="fill:none;stroke:#000000;stroke-width:2"
           d="m 0,100 400,0"
           inkscape:connector-curvature="0" />
        <path
           id="path4423"
           inkscape:label="MajorYDiv2"
           style="fill:none;stroke:#000000;stroke-width:2"
           d="m 0,200 400,0"
           inkscape:connector-curvature="0" />
        <path
           id="path4425"
           inkscape:label="MajorYDiv3"
           style="fill:none;stroke:#000000;stroke-width:2"
           d="m 0,300 400,0"
           inkscape:connector-curvature="0" />
      </g>
      <rect
         id="rect4427"
         inkscape:label="Border"
         y="0"
         x="0"
         width="400"
         style="fill:none;stroke:#000000;stroke-width:3"
         height="400" />
    </g>
    <path
       style="opacity:1;fill:#f20000;fill-opacity:1;stroke:#000000;stroke-width:0.25955877;stroke-miterlimit:4;stroke-dasharray:none;stroke-dashoffset:0;stroke-opacity:1"
       id="path4149-2"
       sodipodi:type="arc"
       sodipodi:cx="206.60612"
       sodipodi:cy="321.99146"
       sodipodi:rx="5.7015324"
       sodipodi:ry="6.3089676"
       sodipodi:start="0.58506929"
       sodipodi:end="0.5696266"
       d="m 211.35934,325.47563 a 5.7015324,6.3089676 0 0 1 -7.88355,1.78886 5.7015324,6.3089676 0 0 1 -1.64705,-8.71649 5.7015324,6.3089676 0 0 1 7.87084,-1.85617 5.7015324,6.3089676 0 0 1 1.70782,8.70216 l -4.80128,-3.40253 z" />
    <path
       style="opacity:1;fill:#f20000;fill-opacity:1;stroke:#000000;stroke-width:0.25955877;stroke-miterlimit:4;stroke-dasharray:none;stroke-dashoffset:0;stroke-opacity:1"
       id="path4149-9"
       sodipodi:type="arc"
       sodipodi:cx="306.88864"
       sodipodi:cy="321.99146"
       sodipodi:rx="5.7015324"
       sodipodi:ry="6.3089676"
       sodipodi:start="0.58506929"
       sodipodi:end="0.5696266"
       d="m 311.64186,325.47563 a 5.7015324,6.3089676 0 0 1 -7.88356,1.78886 5.7015324,6.3089676 0 0 1 -1.64705,-8.71649 5.7015324,6.3089676 0 0 1 7.87084,-1.85617 5.7015324,6.3089676 0 0 1 1.70783,8.70216 l -4.80128,-3.40253 z" />
    <path
       style="opacity:1;fill:#f20000;fill-opacity:1;stroke:#000000;stroke-width:0.25955877;stroke-miterlimit:4;stroke-dasharray:none;stroke-dashoffset:0;stroke-opacity:1"
       id="path4149-22"
       sodipodi:type="arc"
       sodipodi:cx="408.37936"
       sodipodi:cy="321.99146"
       sodipodi:rx="5.7015324"
       sodipodi:ry="6.3089676"
       sodipodi:start="0.58506929"
       sodipodi:end="0.5696266"
       d="m 413.13258,325.47563 a 5.7015324,6.3089676 0 0 1 -7.88355,1.78886 5.7015324,6.3089676 0 0 1 -1.64705,-8.71649 5.7015324,6.3089676 0 0 1 7.87083,-1.85617 5.7015324,6.3089676 0 0 1 1.70783,8.70216 l -4.80128,-3.40253 z" />
    <path
       style="opacity:1;fill:#f20000;fill-opacity:1;stroke:#000000;stroke-width:0.25955877;stroke-miterlimit:4;stroke-dasharray:none;stroke-dashoffset:0;stroke-opacity:1"
       id="path4149-8"
       sodipodi:type="arc"
       sodipodi:cx="508.66193"
       sodipodi:cy="319.57501"
       sodipodi:rx="5.7015324"
       sodipodi:ry="6.3089676"
       sodipodi:start="0.58506929"
       sodipodi:end="0.5696266"
       d="m 513.41514,323.05918 a 5.7015324,6.3089676 0 0 1 -7.88355,1.78887 5.7015324,6.3089676 0 0 1 -1.64705,-8.7165 5.7015324,6.3089676 0 0 1 7.87084,-1.85616 5.7015324,6.3089676 0 0 1 1.70782,8.70216 l -4.80127,-3.40254 z" />
    <path
       style="opacity:1;fill:#f20000;fill-opacity:1;stroke:#000000;stroke-width:0.25955877;stroke-miterlimit:4;stroke-dasharray:none;stroke-dashoffset:0;stroke-opacity:1"
       id="path4149-2-0"
       sodipodi:type="arc"
       sodipodi:cx="204.18965"
       sodipodi:cy="426.50275"
       sodipodi:rx="5.7015324"
       sodipodi:ry="6.3089676"
       sodipodi:start="0.58506929"
       sodipodi:end="0.5696266"
       d="m 208.94287,429.98692 a 5.7015324,6.3089676 0 0 1 -7.88356,1.78886 5.7015324,6.3089676 0 0 1 -1.64705,-8.71649 5.7015324,6.3089676 0 0 1 7.87084,-1.85616 5.7015324,6.3089676 0 0 1 1.70783,8.70215 l -4.80128,-3.40253 z" />
    <path
       style="opacity:1;fill:#f20000;fill-opacity:1;stroke:#000000;stroke-width:0.25955877;stroke-miterlimit:4;stroke-dasharray:none;stroke-dashoffset:0;stroke-opacity:1"
       id="path4149-9-6"
       sodipodi:type="arc"
       sodipodi:cx="304.47217"
       sodipodi:cy="426.50275"
       sodipodi:rx="5.7015324"
       sodipodi:ry="6.3089676"
       sodipodi:start="0.58506929"
       sodipodi:end="0.5696266"
       d="m 309.22539,429.98692 a 5.7015324,6.3089676 0 0 1 -7.88356,1.78886 5.7015324,6.3089676 0 0 1 -1.64705,-8.71649 5.7015324,6.3089676 0 0 1 7.87084,-1.85616 5.7015324,6.3089676 0 0 1 1.70782,8.70215 l -4.80127,-3.40253 z" />
    <path
       style="opacity:1;fill:#f20000;fill-opacity:1;stroke:#000000;stroke-width:0.25955877;stroke-miterlimit:4;stroke-dasharray:none;stroke-dashoffset:0;stroke-opacity:1"
       id="path4149-22-3"
       sodipodi:type="arc"
       sodipodi:cx="405.96289"
       sodipodi:cy="426.50275"
       sodipodi:rx="5.7015324"
       sodipodi:ry="6.3089676"
       sodipodi:start="0.58506929"
       sodipodi:end="0.5696266"
       d="m 410.71611,429.98692 a 5.7015324,6.3089676 0 0 1 -7.88356,1.78886 5.7015324,6.3089676 0 0 1 -1.64705,-8.71649 5.7015324,6.3089676 0 0 1 7.87084,-1.85616 5.7015324,6.3089676 0 0 1 1.70782,8.70215 l -4.80127,-3.40253 z" />
    <path
       style="opacity:1;fill:#f20000;fill-opacity:1;stroke:#000000;stroke-width:0.25955877;stroke-miterlimit:4;stroke-dasharray:none;stroke-dashoffset:0;stroke-opacity:1"
       id="path4149-8-2"
       sodipodi:type="arc"
       sodipodi:cx="507.45364"
       sodipodi:cy="425.29453"
       sodipodi:rx="5.7015324"
       sodipodi:ry="6.3089676"
       sodipodi:start="0.58506929"
       sodipodi:end="0.5696266"
       d="m 512.20686,428.7787 a 5.7015324,6.3089676 0 0 1 -7.88355,1.78886 5.7015324,6.3089676 0 0 1 -1.64705,-8.71649 5.7015324,6.3089676 0 0 1 7.87083,-1.85617 5.7015324,6.3089676 0 0 1 1.70783,8.70216 l -4.80128,-3.40253 z" />
    <path
       style="opacity:1;fill:#f20000;fill-opacity:1;stroke:#000000;stroke-width:0.25955877;stroke-miterlimit:4;stroke-dasharray:none;stroke-dashoffset:0;stroke-opacity:1"
       id="path4149-2-6"
       sodipodi:type="arc"
       sodipodi:cx="202.98143"
       sodipodi:cy="622.23486"
       sodipodi:rx="5.7015324"
       sodipodi:ry="6.3089676"
       sodipodi:start="0.58506929"
       sodipodi:end="0.5696266"
       d="m 207.73465,625.71904 a 5.7015324,6.3089676 0 0 1 -7.88356,1.78886 5.7015324,6.3089676 0 0 1 -1.64705,-8.71649 5.7015324,6.3089676 0 0 1 7.87084,-1.85617 5.7015324,6.3089676 0 0 1 1.70782,8.70216 l -4.80127,-3.40254 z" />
    <path
       style="opacity:1;fill:#f20000;fill-opacity:1;stroke:#000000;stroke-width:0.25955877;stroke-miterlimit:4;stroke-dasharray:none;stroke-dashoffset:0;stroke-opacity:1"
       id="path4149-9-1"
       sodipodi:type="arc"
       sodipodi:cx="303.26395"
       sodipodi:cy="622.23486"
       sodipodi:rx="5.7015324"
       sodipodi:ry="6.3089676"
       sodipodi:start="0.58506929"
       sodipodi:end="0.5696266"
       d="m 308.01716,625.71904 a 5.7015324,6.3089676 0 0 1 -7.88355,1.78886 5.7015324,6.3089676 0 0 1 -1.64705,-8.71649 5.7015324,6.3089676 0 0 1 7.87084,-1.85617 5.7015324,6.3089676 0 0 1 1.70782,8.70216 l -4.80127,-3.40254 z" />
    <path
       style="opacity:1;fill:#f20000;fill-opacity:1;stroke:#000000;stroke-width:0.25955877;stroke-miterlimit:4;stroke-dasharray:none;stroke-dashoffset:0;stroke-opacity:1"
       id="path4149-22-5"
       sodipodi:type="arc"
       sodipodi:cx="404.75467"
       sodipodi:cy="622.23486"
       sodipodi:rx="5.7015324"
       sodipodi:ry="6.3089676"
       sodipodi:start="0.58506929"
       sodipodi:end="0.5696266"
       d="m 409.50789,625.71904 a 5.7015324,6.3089676 0 0 1 -7.88356,1.78886 5.7015324,6.3089676 0 0 1 -1.64705,-8.71649 5.7015324,6.3089676 0 0 1 7.87084,-1.85617 5.7015324,6.3089676 0 0 1 1.70782,8.70216 l -4.80127,-3.40254 z" />
    <path
       style="opacity:1;fill:#f20000;fill-opacity:1;stroke:#000000;stroke-width:0.25955877;stroke-miterlimit:4;stroke-dasharray:none;stroke-dashoffset:0;stroke-opacity:1"
       id="path4149-8-5"
       sodipodi:type="arc"
       sodipodi:cx="506.24545"
       sodipodi:cy="623.44312"
       sodipodi:rx="5.7015324"
       sodipodi:ry="6.3089676"
       sodipodi:start="0.58506929"
       sodipodi:end="0.5696266"
       d="m 510.99867,626.92729 a 5.7015324,6.3089676 0 0 1 -7.88356,1.78886 5.7015324,6.3089676 0 0 1 -1.64705,-8.71649 5.7015324,6.3089676 0 0 1 7.87084,-1.85617 5.7015324,6.3089676 0 0 1 1.70783,8.70216 l -4.80128,-3.40253 z" />
    <path
       style="opacity:1;fill:#f20000;fill-opacity:1;stroke:#000000;stroke-width:0.25955877;stroke-miterlimit:4;stroke-dasharray:none;stroke-dashoffset:0;stroke-opacity:1"
       id="path4149-2-7"
       sodipodi:type="arc"
       sodipodi:cx="204.18965"
       sodipodi:cy="523.16058"
       sodipodi:rx="5.7015324"
       sodipodi:ry="6.3089676"
       sodipodi:start="0.58506929"
       sodipodi:end="0.5696266"
       d="m 208.94287,526.64476 a 5.7015324,6.3089676 0 0 1 -7.88356,1.78886 5.7015324,6.3089676 0 0 1 -1.64705,-8.71649 5.7015324,6.3089676 0 0 1 7.87084,-1.85617 5.7015324,6.3089676 0 0 1 1.70783,8.70216 l -4.80128,-3.40254 z" />
    <path
       style="opacity:1;fill:#f20000;fill-opacity:1;stroke:#000000;stroke-width:0.25955877;stroke-miterlimit:4;stroke-dasharray:none;stroke-dashoffset:0;stroke-opacity:1"
       id="path4149-9-65"
       sodipodi:type="arc"
       sodipodi:cx="304.47217"
       sodipodi:cy="523.16058"
       sodipodi:rx="5.7015324"
       sodipodi:ry="6.3089676"
       sodipodi:start="0.58506929"
       sodipodi:end="0.5696266"
       d="m 309.22539,526.64476 a 5.7015324,6.3089676 0 0 1 -7.88356,1.78886 5.7015324,6.3089676 0 0 1 -1.64705,-8.71649 5.7015324,6.3089676 0 0 1 7.87084,-1.85617 5.7015324,6.3089676 0 0 1 1.70782,8.70216 l -4.80127,-3.40254 z" />
    <path
       style="opacity:1;fill:#f20000;fill-opacity:1;stroke:#000000;stroke-width:0.25955877;stroke-miterlimit:4;stroke-dasharray:none;stroke-dashoffset:0;stroke-opacity:1"
       id="path4149-22-6"
       sodipodi:type="arc"
       sodipodi:cx="405.96289"
       sodipodi:cy="523.16058"
       sodipodi:rx="5.7015324"
       sodipodi:ry="6.3089676"
       sodipodi:start="0.58506929"
       sodipodi:end="0.5696266"
       d="m 410.71611,526.64476 a 5.7015324,6.3089676 0 0 1 -7.88356,1.78886 5.7015324,6.3089676 0 0 1 -1.64705,-8.71649 5.7015324,6.3089676 0 0 1 7.87084,-1.85617 5.7015324,6.3089676 0 0 1 1.70782,8.70216 l -4.80127,-3.40254 z" />
    <path
       style="opacity:1;fill:#f20000;fill-opacity:1;stroke:#000000;stroke-width:0.25955877;stroke-miterlimit:4;stroke-dasharray:none;stroke-dashoffset:0;stroke-opacity:1"
       id="path4149-8-9"
       sodipodi:type="arc"
       sodipodi:cx="506.24542"
       sodipodi:cy="520.74414"
       sodipodi:rx="5.7015324"
       sodipodi:ry="6.3089676"
       sodipodi:start="0.58506929"
       sodipodi:end="0.5696266"
       d="m 510.99864,524.22831 a 5.7015324,6.3089676 0 0 1 -7.88356,1.78886 5.7015324,6.3089676 0 0 1 -1.64705,-8.71649 5.7015324,6.3089676 0 0 1 7.87084,-1.85616 5.7015324,6.3089676 0 0 1 1.70783,8.70216 l -4.80128,-3.40254 z" />
    <path
       sodipodi:type="star"
       style="opacity:1;fill:#44e800;fill-opacity:1;stroke:#000000;stroke-width:1.36409461;stroke-miterlimit:4;stroke-dasharray:none;stroke-dashoffset:0;stroke-opacity:1"
       id="path4444"
       sodipodi:sides="4"
       sodipodi:cx="256.74737"
       sodipodi:cy="320.7832"
       sodipodi:r1="10.712848"
       sodipodi:r2="7.6906137"
       sodipodi:arg1="1.5707963"
       sodipodi:arg2="2.3561945"
       inkscape:flatsided="false"
       inkscape:rounded="0"
       inkscape:randomized="0"
       d="m 256.74738,331.49605 -5.43809,-5.27476 -5.27476,-5.43809 5.27476,-5.43808 5.43809,-5.27476 5.43808,5.27476 5.27476,5.43808 -5.27476,5.43809 z" />
    <path
       sodipodi:type="star"
       style="opacity:1;fill:#44e800;fill-opacity:1;stroke:#000000;stroke-width:1.36409461;stroke-miterlimit:4;stroke-dasharray:none;stroke-dashoffset:0;stroke-opacity:1"
       id="path4444-3"
       sodipodi:sides="4"
       sodipodi:cx="357.634"
       sodipodi:cy="322.59552"
       sodipodi:r1="10.712848"
       sodipodi:r2="7.6906137"
       sodipodi:arg1="1.5707963"
       sodipodi:arg2="2.3561945"
       inkscape:flatsided="false"
       inkscape:rounded="0"
       inkscape:randomized="0"
       d="m 357.634,333.30837 -5.43808,-5.27476 -5.27477,-5.43809 5.27477,-5.43809 5.43808,-5.27476 5.43809,5.27476 5.27476,5.43809 -5.27476,5.43809 z" />
    <path
       sodipodi:type="star"
       style="opacity:1;fill:#44e800;fill-opacity:1;stroke:#000000;stroke-width:1.36409461;stroke-miterlimit:4;stroke-dasharray:none;stroke-dashoffset:0;stroke-opacity:1"
       id="path4444-7"
       sodipodi:sides="4"
       sodipodi:cx="457.91651"
       sodipodi:cy="322.59553"
       sodipodi:r1="10.712848"
       sodipodi:r2="7.6906137"
       sodipodi:arg1="1.5707963"
       sodipodi:arg2="2.3561945"
       inkscape:flatsided="false"
       inkscape:rounded="0"
       inkscape:randomized="0"
       d="m 457.9165,333.30837 -5.43808,-5.27476 -5.27476,-5.43809 5.27476,-5.43809 5.43808,-5.27476 5.43809,5.27476 5.27476,5.43809 -5.27476,5.43809 z" />
    <path
       sodipodi:type="star"
       style="opacity:1;fill:#44e800;fill-opacity:1;stroke:#000000;stroke-width:1.36409461;stroke-miterlimit:4;stroke-dasharray:none;stroke-dashoffset:0;stroke-opacity:1"
       id="path4444-4"
       sodipodi:sides="4"
       sodipodi:cx="306.88865"
       sodipodi:cy="572.69766"
       sodipodi:r1="10.712848"
       sodipodi:r2="7.6906137"
       sodipodi:arg1="1.5707963"
       sodipodi:arg2="2.3561945"
       inkscape:flatsided="false"
       inkscape:rounded="0"
       inkscape:randomized="0"
       d="m 306.88864,583.41048 -5.43808,-5.27476 -5.27477,-5.43809 5.27477,-5.43808 5.43808,-5.27477 5.43809,5.27477 5.27476,5.43808 -5.27476,5.43809 z" />
    <path
       sodipodi:type="star"
       style="opacity:1;fill:#44e800;fill-opacity:1;stroke:#000000;stroke-width:1.36409461;stroke-miterlimit:4;stroke-dasharray:none;stroke-dashoffset:0;stroke-opacity:1"
       id="path4444-5"
       sodipodi:sides="4"
       sodipodi:cx="257.35148"
       sodipodi:cy="422.87805"
       sodipodi:r1="10.712848"
       sodipodi:r2="7.6906137"
       sodipodi:arg1="1.5707963"
       sodipodi:arg2="2.3561945"
       inkscape:flatsided="false"
       inkscape:rounded="0"
       inkscape:randomized="0"
       d="m 257.35147,433.5909 -5.43808,-5.27476 -5.27477,-5.43809 5.27477,-5.43808 5.43808,-5.27477 5.43809,5.27477 5.27476,5.43808 -5.27476,5.43809 z" />
    <path
       sodipodi:type="star"
       style="opacity:1;fill:#44e800;fill-opacity:1;stroke:#000000;stroke-width:1.36409461;stroke-miterlimit:4;stroke-dasharray:none;stroke-dashoffset:0;stroke-opacity:1"
       id="path4444-4-2"
       sodipodi:sides="4"
       sodipodi:cx="256.14326"
       sodipodi:cy="521.95233"
       sodipodi:r1="10.712848"
       sodipodi:r2="7.6906137"
       sodipodi:arg1="1.5707963"
       sodipodi:arg2="2.3561945"
       inkscape:flatsided="false"
       inkscape:rounded="0"
       inkscape:randomized="0"
       d="m 256.14325,532.66518 -5.43809,-5.27476 -5.27476,-5.43809 5.27476,-5.43808 5.43809,-5.27477 5.43808,5.27477 5.27477,5.43808 -5.27477,5.43809 z" />
    <path
       sodipodi:type="star"
       style="opacity:1;fill:#44e800;fill-opacity:1;stroke:#000000;stroke-width:1.36409461;stroke-miterlimit:4;stroke-dasharray:none;stroke-dashoffset:0;stroke-opacity:1"
       id="path4444-4-5"
       sodipodi:sides="4"
       sodipodi:cx="357.63401"
       sodipodi:cy="520.7441"
       sodipodi:r1="10.712848"
       sodipodi:r2="7.6906137"
       sodipodi:arg1="1.5707963"
       sodipodi:arg2="2.3561945"
       inkscape:flatsided="false"
       inkscape:rounded="0"
       inkscape:randomized="0"
       d="m 357.634,531.45693 -5.43808,-5.27477 -5.27477,-5.43808 5.27477,-5.43809 5.43808,-5.27476 5.43809,5.27476 5.27476,5.43809 -5.27476,5.43808 z" />
    <path
       sodipodi:type="star"
       style="opacity:1;fill:#44e800;fill-opacity:1;stroke:#000000;stroke-width:1.36409461;stroke-miterlimit:4;stroke-dasharray:none;stroke-dashoffset:0;stroke-opacity:1"
       id="path4444-4-4"
       sodipodi:sides="4"
       sodipodi:cx="405.96291"
       sodipodi:cy="471.20696"
       sodipodi:r1="10.712848"
       sodipodi:r2="7.6906137"
       sodipodi:arg1="1.5707963"
       sodipodi:arg2="2.3561945"
       inkscape:flatsided="false"
       inkscape:rounded="0"
       inkscape:randomized="0"
       d="m 405.96292,481.91982 -5.43808,-5.27476 -5.27477,-5.43809 5.27477,-5.43808 5.43808,-5.27477 5.43809,5.27477 5.27476,5.43808 -5.27476,5.43809 z" />
    <path
       sodipodi:type="star"
       style="opacity:1;fill:#44e800;fill-opacity:1;stroke:#000000;stroke-width:1.36409461;stroke-miterlimit:4;stroke-dasharray:none;stroke-dashoffset:0;stroke-opacity:1"
       id="path4444-4-7"
       sodipodi:sides="4"
       sodipodi:cx="457.9165"
       sodipodi:cy="422.87805"
       sodipodi:r1="10.712848"
       sodipodi:r2="7.6906137"
       sodipodi:arg1="1.5707963"
       sodipodi:arg2="2.3561945"
       inkscape:flatsided="false"
       inkscape:rounded="0"
       inkscape:randomized="0"
       d="m 457.9165,433.5909 -5.43808,-5.27476 -5.27476,-5.43809 5.27476,-5.43808 5.43808,-5.27477 5.43809,5.27477 5.27476,5.43808 -5.27476,5.43809 z" />
    <path
       sodipodi:type="star"
       style="opacity:1;fill:#44e800;fill-opacity:1;stroke:#000000;stroke-width:1.36409461;stroke-miterlimit:4;stroke-dasharray:none;stroke-dashoffset:0;stroke-opacity:1"
       id="path4444-4-44"
       sodipodi:sides="4"
       sodipodi:cx="457.91653"
       sodipodi:cy="519.53588"
       sodipodi:r1="10.712848"
       sodipodi:r2="7.6906137"
       sodipodi:arg1="1.5707963"
       sodipodi:arg2="2.3561945"
       inkscape:flatsided="false"
       inkscape:rounded="0"
       inkscape:randomized="0"
       d="m 457.91653,530.24874 -5.43808,-5.27477 -5.27476,-5.43808 5.27476,-5.43809 5.43808,-5.27476 5.43809,5.27476 5.27476,5.43809 -5.27476,5.43808 z" />
    <path
       sodipodi:type="star"
       style="opacity:1;fill:#44e800;fill-opacity:1;stroke:#000000;stroke-width:1.36409461;stroke-miterlimit:4;stroke-dasharray:none;stroke-dashoffset:0;stroke-opacity:1"
       id="path4444-4-3"
       sodipodi:sides="4"
       sodipodi:cx="357.634"
       sodipodi:cy="422.87804"
       sodipodi:r1="10.712848"
       sodipodi:r2="7.6906137"
       sodipodi:arg1="1.5707963"
       sodipodi:arg2="2.3561945"
       inkscape:flatsided="false"
       inkscape:rounded="0"
       inkscape:randomized="0"
       d="m 357.634,433.5909 -5.43808,-5.27476 -5.27477,-5.43809 5.27477,-5.43808 5.43808,-5.27477 5.43809,5.27477 5.27476,5.43808 -5.27476,5.43809 z" />
    <path
       sodipodi:type="star"
       style="opacity:1;fill:#44e800;fill-opacity:1;stroke:#000000;stroke-width:1.36409461;stroke-miterlimit:4;stroke-dasharray:none;stroke-dashoffset:0;stroke-opacity:1"
       id="path4444-4-0"
       sodipodi:sides="4"
       sodipodi:cx="204.18968"
       sodipodi:cy="571.48947"
       sodipodi:r1="10.712848"
       sodipodi:r2="7.6906137"
       sodipodi:arg1="1.5707963"
       sodipodi:arg2="2.3561945"
       inkscape:flatsided="false"
       inkscape:rounded="0"
       inkscape:randomized="0"
       d="m 204.18968,582.20229 -5.43808,-5.27476 -5.27477,-5.43809 5.27477,-5.43808 5.43808,-5.27477 5.43809,5.27477 5.27476,5.43808 -5.27476,5.43809 z" />
    <path
       sodipodi:type="star"
       style="opacity:1;fill:#44e800;fill-opacity:1;stroke:#000000;stroke-width:1.36409461;stroke-miterlimit:4;stroke-dasharray:none;stroke-dashoffset:0;stroke-opacity:1"
       id="path4444-4-78"
       sodipodi:sides="4"
       sodipodi:cx="357.63401"
       sodipodi:cy="618.61018"
       sodipodi:r1="10.712848"
       sodipodi:r2="7.6906137"
       sodipodi:arg1="1.5707963"
       sodipodi:arg2="2.3561945"
       inkscape:flatsided="false"
       inkscape:rounded="0"
       inkscape:randomized="0"
       d="m 357.634,629.32302 -5.43808,-5.27477 -5.27477,-5.43808 5.27477,-5.43809 5.43808,-5.27476 5.43809,5.27476 5.27476,5.43809 -5.27476,5.43808 z" />
    <path
       sodipodi:type="star"
       style="opacity:1;fill:#44e800;fill-opacity:1;stroke:#000000;stroke-width:1.36409461;stroke-miterlimit:4;stroke-dasharray:none;stroke-dashoffset:0;stroke-opacity:1"
       id="path4444-4-6"
       sodipodi:sides="4"
       sodipodi:cx="309.30508"
       sodipodi:cy="373.3409"
       sodipodi:r1="10.712848"
       sodipodi:r2="7.6906137"
       sodipodi:arg1="1.5707963"
       sodipodi:arg2="2.3561945"
       inkscape:flatsided="false"
       inkscape:rounded="0"
       inkscape:randomized="0"
       d="m 309.30508,384.05376 -5.43808,-5.27476 -5.27476,-5.43809 5.27476,-5.43808 5.43808,-5.27477 5.43809,5.27477 5.27476,5.43808 -5.27476,5.43809 z" />
    <path
       sodipodi:type="star"
       style="opacity:1;fill:#44e800;fill-opacity:1;stroke:#000000;stroke-width:1.36409461;stroke-miterlimit:4;stroke-dasharray:none;stroke-dashoffset:0;stroke-opacity:1"
       id="path4444-4-84"
       sodipodi:sides="4"
       sodipodi:cx="407.17113"
       sodipodi:cy="573.90589"
       sodipodi:r1="10.712848"
       sodipodi:r2="7.6906137"
       sodipodi:arg1="1.5707963"
       sodipodi:arg2="2.3561945"
       inkscape:flatsided="false"
       inkscape:rounded="0"
       inkscape:randomized="0"
       d="m 407.17114,584.61873 -5.43808,-5.27476 -5.27477,-5.43809 5.27477,-5.43808 5.43808,-5.27476 5.43809,5.27476 5.27476,5.43808 -5.27476,5.43809 z" />
    <path
       sodipodi:type="star"
       style="opacity:1;fill:#44e800;fill-opacity:1;stroke:#000000;stroke-width:1.36409461;stroke-miterlimit:4;stroke-dasharray:none;stroke-dashoffset:0;stroke-opacity:1"
       id="path4444-4-31"
       sodipodi:sides="4"
       sodipodi:cx="457.9165"
       sodipodi:cy="617.40191"
       sodipodi:r1="10.712848"
       sodipodi:r2="7.6906137"
       sodipodi:arg1="1.5707963"
       sodipodi:arg2="2.3561945"
       inkscape:flatsided="false"
       inkscape:rounded="0"
       inkscape:randomized="0"
       d="m 457.9165,628.11476 -5.43808,-5.27476 -5.27476,-5.43808 5.27476,-5.43809 5.43808,-5.27476 5.43809,5.27476 5.27476,5.43809 -5.27476,5.43808 z" />
    <path
       sodipodi:type="star"
       style="opacity:1;fill:#44e800;fill-opacity:1;stroke:#000000;stroke-width:1.36409461;stroke-miterlimit:4;stroke-dasharray:none;stroke-dashoffset:0;stroke-opacity:1"
       id="path4444-4-49"
       sodipodi:sides="4"
       sodipodi:cx="204.18968"
       sodipodi:cy="372.13267"
       sodipodi:r1="10.712848"
       sodipodi:r2="7.6906137"
       sodipodi:arg1="1.5707963"
       sodipodi:arg2="2.3561945"
       inkscape:flatsided="false"
       inkscape:rounded="0"
       inkscape:randomized="0"
       d="m 204.18968,382.84551 -5.43808,-5.27477 -5.27477,-5.43808 5.27477,-5.43809 5.43808,-5.27476 5.43809,5.27476 5.27476,5.43809 -5.27476,5.43809 z" />
    <path
       sodipodi:type="star"
       style="opacity:1;fill:#44e800;fill-opacity:1;stroke:#000000;stroke-width:1.36409461;stroke-miterlimit:4;stroke-dasharray:none;stroke-dashoffset:0;stroke-opacity:1"
       id="path4444-4-20"
       sodipodi:sides="4"
       sodipodi:cx="204.18969"
       sodipodi:cy="473.62339"
       sodipodi:r1="10.712848"
       sodipodi:r2="7.6906137"
       sodipodi:arg1="1.5707963"
       sodipodi:arg2="2.3561945"
       inkscape:flatsided="false"
       inkscape:rounded="0"
       inkscape:randomized="0"
       d="m 204.1897,484.33623 -5.43809,-5.27476 -5.27476,-5.43809 5.27476,-5.43808 5.43809,-5.27477 5.43808,5.27477 5.27476,5.43808 -5.27476,5.43809 z" />
    <path
       sodipodi:type="star"
       style="opacity:1;fill:#44e800;fill-opacity:1;stroke:#000000;stroke-width:1.36409461;stroke-miterlimit:4;stroke-dasharray:none;stroke-dashoffset:0;stroke-opacity:1"
       id="path4444-4-68"
       sodipodi:sides="4"
       sodipodi:cx="309.30509"
       sodipodi:cy="471.20695"
       sodipodi:r1="10.712848"
       sodipodi:r2="7.6906137"
       sodipodi:arg1="1.5707963"
       sodipodi:arg2="2.3561945"
       inkscape:flatsided="false"
       inkscape:rounded="0"
       inkscape:randomized="0"
       d="m 309.30508,481.91979 -5.43808,-5.27477 -5.27476,-5.43808 5.27476,-5.43809 5.43808,-5.27476 5.43809,5.27476 5.27476,5.43809 -5.27476,5.43808 z" />
    <path
       sodipodi:type="star"
       style="opacity:1;fill:#44e800;fill-opacity:1;stroke:#000000;stroke-width:1.36409461;stroke-miterlimit:4;stroke-dasharray:none;stroke-dashoffset:0;stroke-opacity:1"
       id="path4444-4-9"
       sodipodi:sides="4"
       sodipodi:cx="258.5597"
       sodipodi:cy="621.02659"
       sodipodi:r1="10.712848"
       sodipodi:r2="7.6906137"
       sodipodi:arg1="1.5707963"
       sodipodi:arg2="2.3561945"
       inkscape:flatsided="false"
       inkscape:rounded="0"
       inkscape:randomized="0"
       d="m 258.55969,631.73946 -5.43808,-5.27476 -5.27477,-5.43809 5.27477,-5.43808 5.43808,-5.27477 5.43809,5.27477 5.27476,5.43808 -5.27476,5.43809 z" />
    <path
       sodipodi:type="star"
       style="opacity:1;fill:#44e800;fill-opacity:1;stroke:#000000;stroke-width:1.36409461;stroke-miterlimit:4;stroke-dasharray:none;stroke-dashoffset:0;stroke-opacity:1"
       id="path4444-4-8-2"
       sodipodi:sides="4"
       sodipodi:cx="507.45365"
       sodipodi:cy="469.99874"
       sodipodi:r1="10.712848"
       sodipodi:r2="7.6906137"
       sodipodi:arg1="1.5707963"
       sodipodi:arg2="2.3561945"
       inkscape:flatsided="false"
       inkscape:rounded="0"
       inkscape:randomized="0"
       d="m 507.45364,480.7116 -5.43808,-5.27477 -5.27476,-5.43808 5.27476,-5.43809 5.43808,-5.27476 5.43809,5.27476 5.27476,5.43809 -5.27476,5.43808 z" />
    <path
       sodipodi:type="star"
       style="opacity:1;fill:#44e800;fill-opacity:1;stroke:#000000;stroke-width:1.36409461;stroke-miterlimit:4;stroke-dasharray:none;stroke-dashoffset:0;stroke-opacity:1"
       id="path4444-4-8-6"
       sodipodi:sides="4"
       sodipodi:cx="509.8701"
       sodipodi:cy="372.13268"
       sodipodi:r1="10.712848"
       sodipodi:r2="7.6906137"
       sodipodi:arg1="1.5707963"
       sodipodi:arg2="2.3561945"
       inkscape:flatsided="false"
       inkscape:rounded="0"
       inkscape:randomized="0"
       d="m 509.87009,382.84554 -5.43809,-5.27476 -5.27476,-5.43809 5.27476,-5.43808 5.43809,-5.27477 5.43808,5.27477 5.27476,5.43808 -5.27476,5.43809 z" />
    <path
       sodipodi:type="star"
       style="opacity:1;fill:#44e800;fill-opacity:1;stroke:#000000;stroke-width:1.36409461;stroke-miterlimit:4;stroke-dasharray:none;stroke-dashoffset:0;stroke-opacity:1"
       id="path4444-4-8-64"
       sodipodi:sides="4"
       sodipodi:cx="506.24543"
       sodipodi:cy="571.48947"
       sodipodi:r1="10.712848"
       sodipodi:r2="7.6906137"
       sodipodi:arg1="1.5707963"
       sodipodi:arg2="2.3561945"
       inkscape:flatsided="false"
       inkscape:rounded="0"
       inkscape:randomized="0"
       d="m 506.24542,582.20229 -5.43808,-5.27476 -5.27477,-5.43809 5.27477,-5.43808 5.43808,-5.27477 5.43809,5.27477 5.27476,5.43808 -5.27476,5.43809 z" />
    <path
       sodipodi:type="star"
       style="opacity:1;fill:#44e800;fill-opacity:1;stroke:#000000;stroke-width:1.36409461;stroke-miterlimit:4;stroke-dasharray:none;stroke-dashoffset:0;stroke-opacity:1"
       id="path4444-4-8-9"
       sodipodi:sides="4"
       sodipodi:cx="405.96292"
       sodipodi:cy="373.3409"
       sodipodi:r1="10.712848"
       sodipodi:r2="7.6906137"
       sodipodi:arg1="1.5707963"
       sodipodi:arg2="2.3561945"
       inkscape:flatsided="false"
       inkscape:rounded="0"
       inkscape:randomized="0"
       d="m 405.96292,384.05376 -5.43808,-5.27476 -5.27477,-5.43809 5.27477,-5.43808 5.43808,-5.27477 5.43809,5.27477 5.27476,5.43808 -5.27476,5.43809 z" />
  </g>
</svg>
